<?xml version="1.0" encoding="UTF-8" standalone="no"?>
<!-- Created with Inkscape (http://www.inkscape.org/) -->

<svg
   width="210mm"
   height="297mm"
   viewBox="0 0 210 297"
   version="1.1"
   id="svg1"
   xml:space="preserve"
   sodipodi:docname="Logo.svg"
   inkscape:version="1.3.2 (091e20e, 2023-11-25, custom)"
   xmlns:inkscape="http://www.inkscape.org/namespaces/inkscape"
   xmlns:sodipodi="http://sodipodi.sourceforge.net/DTD/sodipodi-0.dtd"
   xmlns="http://www.w3.org/2000/svg"
   xmlns:svg="http://www.w3.org/2000/svg"><sodipodi:namedview
     id="namedview1"
     pagecolor="#ffffff"
     bordercolor="#000000"
     borderopacity="0.25"
     inkscape:showpageshadow="2"
     inkscape:pageopacity="0.0"
     inkscape:pagecheckerboard="0"
     inkscape:deskcolor="#d1d1d1"
     inkscape:document-units="mm"
     showguides="false"
     inkscape:zoom="0.70710678"
     inkscape:cx="217.08178"
     inkscape:cy="449.0128"
     inkscape:window-width="1920"
     inkscape:window-height="991"
     inkscape:window-x="-9"
     inkscape:window-y="-9"
     inkscape:window-maximized="1"
     inkscape:current-layer="layer1" /><defs
     id="defs1"><inkscape:path-effect
       effect="bspline"
       id="path-effect29"
       is_visible="true"
       lpeversion="1.3"
       weight="33.333333"
       steps="2"
       helper_size="0"
       apply_no_weight="true"
       apply_with_weight="true"
       only_selected="false"
       uniform="false" /><inkscape:path-effect
       effect="bspline"
       id="path-effect28"
       is_visible="true"
       lpeversion="1.3"
       weight="33.333333"
       steps="2"
       helper_size="0"
       apply_no_weight="true"
       apply_with_weight="true"
       only_selected="false"
       uniform="false" /><inkscape:path-effect
       effect="bspline"
       id="path-effect27"
       is_visible="true"
       lpeversion="1.3"
       weight="33.333333"
       steps="2"
       helper_size="0"
       apply_no_weight="true"
       apply_with_weight="true"
       only_selected="false"
       uniform="false" /><inkscape:path-effect
       effect="bspline"
       id="path-effect22"
       is_visible="true"
       lpeversion="1.3"
       weight="33.333333"
       steps="2"
       helper_size="0"
       apply_no_weight="true"
       apply_with_weight="true"
       only_selected="false"
       uniform="false" /><inkscape:path-effect
       effect="bspline"
       id="path-effect21"
       is_visible="true"
       lpeversion="1.3"
       weight="33.333333"
       steps="2"
       helper_size="0"
       apply_no_weight="true"
       apply_with_weight="true"
       only_selected="false"
       uniform="false" /><inkscape:path-effect
       effect="bspline"
       id="path-effect20"
       is_visible="true"
       lpeversion="1.3"
       weight="33.333333"
       steps="2"
       helper_size="0"
       apply_no_weight="true"
       apply_with_weight="true"
       only_selected="false"
       uniform="false" /><inkscape:path-effect
       effect="bspline"
       id="path-effect19"
       is_visible="true"
       lpeversion="1.3"
       weight="33.333333"
       steps="2"
       helper_size="0"
       apply_no_weight="true"
       apply_with_weight="true"
       only_selected="false"
       uniform="false" /><inkscape:path-effect
       effect="bspline"
       id="path-effect18"
       is_visible="true"
       lpeversion="1.3"
       weight="33.333333"
       steps="2"
       helper_size="0"
       apply_no_weight="true"
       apply_with_weight="true"
       only_selected="false"
       uniform="false" /><inkscape:path-effect
       effect="bspline"
       id="path-effect16"
       is_visible="true"
       lpeversion="1.3"
       weight="33.333333"
       steps="2"
       helper_size="0"
       apply_no_weight="true"
       apply_with_weight="true"
       only_selected="false"
       uniform="false" /><inkscape:path-effect
       effect="bspline"
       id="path-effect12"
       is_visible="true"
       lpeversion="1.3"
       weight="33.333333"
       steps="2"
       helper_size="0"
       apply_no_weight="true"
       apply_with_weight="true"
       only_selected="false"
       uniform="false" /><inkscape:path-effect
       effect="bspline"
       id="path-effect11"
       is_visible="true"
       lpeversion="1.3"
       weight="33.333333"
       steps="2"
       helper_size="0"
       apply_no_weight="true"
       apply_with_weight="true"
       only_selected="false"
       uniform="false" /></defs><g
     inkscape:label="Camada 1"
     inkscape:groupmode="layer"
     id="layer1"
     style="display:inline"><g
       style="display:inline;opacity:1;fill:none;stroke:currentColor;stroke-width:2;stroke-linecap:round;stroke-linejoin:round"
       id="g1"
       transform="matrix(6.9089674,0,0,6.300278,36.281323,48.001098)"><rect
         width="12"
         height="12"
         x="2"
         y="10"
         rx="2"
         ry="2"
         id="rect1" /><path
         d="m 17.92,14 3.5,-3.5 a 2.24,2.24 0 0 0 0,-3 l -5,-4.92 a 2.24,2.24 0 0 0 -3,0 L 10,6"
         id="path1" /><path
         d="M 6,18 H 6.01"
         id="path2" /><path
         d="m 10,14 h 0.01"
         id="path3" /><path
         d="m 15,6 h 0.01"
         id="path4" /><path
         d="m 18,9 h 0.01"
         id="path5" /></g><path
       style="fill:#000000;fill-opacity:1;stroke-width:3.74448"
       d="m 111.89261,88.635969 -21.976477,19.863281 -22.399124,-0.50665 3.634587,-0.50665 1.605963,-0.75999 33.979011,-30.936095 z"
       id="path6" /><path
       style="fill:#1a1a1a;fill-opacity:1;stroke-width:3.74448"
       d="m 89.185993,91.694157 -74.23202,67.418533 8.84566,9.80194 33.231099,-30.36225 -2.271188,-26.53696 29.884089,-2.27119 z"
       id="path7" /><path
       style="fill:#1a1a1a;fill-opacity:1;stroke-width:4.05616"
       id="path8"
       sodipodi:type="arc"
       sodipodi:cx="19.31707"
       sodipodi:cy="164.0136"
       sodipodi:rx="6.51473"
       sodipodi:ry="6.6940341"
       sodipodi:start="0"
       sodipodi:end="6.2657721"
       sodipodi:open="true"
       sodipodi:arc-type="arc"
       d="m 25.8318,164.0136 a 6.51473,6.6940341 0 0 1 -6.486369,6.69397 6.51473,6.6940341 0 0 1 -6.542844,-6.63569 6.51473,6.6940341 0 0 1 6.429404,-6.75175 6.51473,6.6940341 0 0 1 6.598821,6.57691" /><path
       style="fill:#1a1a1a;fill-opacity:1;stroke-width:4.05616"
       id="path8-4"
       sodipodi:type="arc"
       sodipodi:cx="134.9868"
       sodipodi:cy="186.40106"
       sodipodi:rx="6.51473"
       sodipodi:ry="6.6940341"
       sodipodi:start="0"
       sodipodi:end="6.2657721"
       sodipodi:open="true"
       sodipodi:arc-type="arc"
       d="m 141.50153,186.40106 a 6.51473,6.6940341 0 0 1 -6.48637,6.69397 6.51473,6.6940341 0 0 1 -6.54284,-6.63569 6.51473,6.6940341 0 0 1 6.4294,-6.75174 6.51473,6.6940341 0 0 1 6.59882,6.5769" /><path
       style="fill:#1a1a1a;fill-opacity:1;stroke-width:4.05616"
       id="path8-2"
       sodipodi:type="arc"
       sodipodi:cx="169.53249"
       sodipodi:cy="252.21213"
       sodipodi:rx="6.51473"
       sodipodi:ry="6.6940341"
       sodipodi:start="0"
       sodipodi:end="6.2657721"
       sodipodi:open="true"
       sodipodi:arc-type="arc"
       d="m 176.04722,252.21213 a 6.51473,6.6940341 0 0 1 -6.48637,6.69397 6.51473,6.6940341 0 0 1 -6.54285,-6.63569 6.51473,6.6940341 0 0 1 6.42941,-6.75175 6.51473,6.6940341 0 0 1 6.59882,6.57691" /><path
       style="fill:#1a1a1a;fill-opacity:1;stroke-width:4.05616"
       id="path8-5"
       sodipodi:type="arc"
       sodipodi:cx="49.61665"
       sodipodi:cy="256.92886"
       sodipodi:rx="6.51473"
       sodipodi:ry="6.6940341"
       sodipodi:start="0"
       sodipodi:end="6.2657721"
       sodipodi:open="true"
       sodipodi:arc-type="arc"
       d="m 56.13138,256.92886 a 6.51473,6.6940341 0 0 1 -6.48637,6.69397 6.51473,6.6940341 0 0 1 -6.542843,-6.63568 6.51473,6.6940341 0 0 1 6.429403,-6.75175 6.51473,6.6940341 0 0 1 6.598822,6.5769" /><path
       style="fill:#1a1a1a;fill-opacity:1;stroke-width:3.74448"
       d="m 56.275207,257.17862 0.845179,-85.87733 -14.031133,-1.01474 0.168836,86.55355 z"
       id="path9" /><path
       style="fill:#1a1a1a;fill-opacity:1;stroke-width:3.74448"
       d="m 175.6244,249.74042 -34.99332,-66.77474 -10.98824,7.4382 34.31712,65.25337 z"
       id="path10" /><path
       style="fill:#1a1a1a;fill-opacity:1;stroke-width:0.264583"
       d="m 38.96552,111.16795 c 0.03086,0.0109 0.09258,0.0328 0.158276,0.0483 0.0657,0.0154 0.135371,0.0244 0.190617,0.0284 0.05525,0.004 0.09606,0.003 0.120944,-0.14385 0.02489,-0.14683 0.03385,-0.43948 0.0382,-0.5868 0.0043,-0.14733 0.0041,-0.14933 -0.0085,-0.15016 -0.01262,-8.4e-4 -0.03761,-5e-4 -0.06457,-0.002 -0.02695,-0.002 -0.05575,-0.005 -0.08743,-0.0125 -0.03168,-0.007 -0.06615,-0.0187 -0.100292,-0.0341 -0.03414,-0.0155 -0.06792,-0.0352 -0.09714,-0.0575 -0.02921,-0.0224 -0.05385,-0.0474 -0.08059,-0.0803 -0.02674,-0.0329 -0.05564,-0.0738 -0.07164,-0.12973 -0.016,-0.0559 -0.01917,-0.12703 -0.03078,-0.0839 -0.01161,0.0431 -0.03167,0.20042 -0.04417,0.29282 -0.0125,0.0924 -0.01742,0.11982 -0.02816,0.20993 -0.01074,0.0901 -0.02728,0.24285 -0.02728,0.35652 -1e-6,0.11367 0.01654,0.18829 0.02076,0.24285 0.0042,0.0546 -0.0039,0.0891 0.0076,0.10092 0.01144,0.0119 0.04241,0.001 0.05791,-0.004 0.0155,-0.005 0.01545,-0.005 0.04631,0.006 z"
       id="path11"
       inkscape:path-effect="#path-effect11"
       inkscape:original-d="m 38.934665,111.157 c 0.06171,0.0219 0.12343,0.0438 0.185147,0.0657 0.06968,0.009 0.139359,0.0179 0.209037,0.0269 0.04081,-0.001 0.08162,-0.002 0.122436,-0.003 0.009,-0.29266 0.01791,-0.58531 0.02688,-0.87796 -2.64e-4,-0.002 -5.29e-4,-0.004 -7.94e-4,-0.006 -0.02498,2.6e-4 -0.04997,7.9e-4 -0.07496,0.001 -0.02886,-0.004 -0.05772,-0.007 -0.08657,-0.0106 -0.03449,-0.0113 -0.06898,-0.0225 -0.103468,-0.0338 -0.03379,-0.0197 -0.06757,-0.0394 -0.101356,-0.0591 -0.02463,-0.025 -0.04927,-0.05 -0.07391,-0.075 -0.02886,-0.0408 -0.05772,-0.0817 -0.08658,-0.12247 -0.0032,-0.0711 -0.0063,-0.14219 -0.0095,-0.21328 -0.02006,0.15732 -0.04012,0.31463 -0.06018,0.47194 -0.0049,0.0275 -0.0099,0.0549 -0.01479,0.0824 -0.01654,0.15274 -0.03308,0.30547 -0.04962,0.45821 0.01654,0.0746 0.03308,0.14922 0.04962,0.22383 -0.0081,0.0345 -0.01619,0.069 -0.02429,0.10347 0.03098,-0.0107 0.06196,-0.0214 0.09295,-0.0322 z"
       transform="matrix(14.152378,0,0,14.152378,-494.1512,-1381.5909)" /><path
       style="fill:#1a1a1a;fill-opacity:1;stroke-width:0.264583"
       d="m 39.31751,111.24696 c -0.03823,-0.004 -0.114731,-0.0124 -0.186743,-0.0253 -0.07201,-0.0129 -0.139513,-0.0305 -0.184023,-0.0441 -0.04451,-0.0136 -0.06575,-0.0232 -0.07883,-0.0335 -0.01308,-0.0103 -0.0179,-0.0213 -0.01495,-0.0303 0.0029,-0.009 0.01357,-0.0159 0.03322,-0.0233 0.01965,-0.007 0.04823,-0.0153 0.07492,-0.0178 0.02669,-0.002 0.05151,5.4e-4 0.07672,0.006 0.02521,0.005 0.0506,0.0128 0.07764,0.0254 0.02704,0.0126 0.05565,0.0301 0.08543,0.0448 0.02979,0.0146 0.06079,0.0263 0.08361,0.037 0.02282,0.0107 0.03714,0.0203 0.04763,0.0309 0.01049,0.0106 0.01705,0.0224 0.02032,0.0282 0.0033,0.006 0.0033,0.006 -0.03494,0.002 z"
       id="path12"
       inkscape:path-effect="#path-effect12"
       inkscape:original-d="m 39.355736,111.25109 c -0.07648,-0.008 -0.152961,-0.0165 -0.229442,-0.0248 -0.06753,-0.0176 -0.135048,-0.0351 -0.202572,-0.0527 -0.02135,-0.01 -0.04272,-0.0193 -0.06408,-0.0289 -0.0048,-0.011 -0.0097,-0.022 -0.01447,-0.0331 0.01069,-0.007 0.02135,-0.0138 0.03204,-0.0207 0.0286,-0.008 0.05719,-0.0159 0.08578,-0.0238 0.02479,0.003 0.04961,0.006 0.07441,0.009 0.02551,0.008 0.05099,0.0152 0.07648,0.0227 0.0286,0.0176 0.05719,0.0352 0.08578,0.0527 0.03101,0.0117 0.06201,0.0234 0.09302,0.0351 0.01447,0.01 0.02894,0.0193 0.04341,0.0289 0.0065,0.0117 0.0131,0.0234 0.01963,0.0351 z"
       transform="matrix(13.335955,0,0,14.070197,-462.43144,-1372.4628)" /><path
       style="fill:#1a1a1a;fill-opacity:1;stroke-width:3.74448"
       id="path13"
       sodipodi:type="arc"
       sodipodi:cx="77.721268"
       sodipodi:cy="161.34383"
       sodipodi:rx="6.7434864"
       sodipodi:ry="6.7434864"
       sodipodi:start="0"
       sodipodi:end="6.2657721"
       sodipodi:open="true"
       sodipodi:arc-type="arc"
       d="m 84.464754,161.34383 a 6.7434864,6.7434864 0 0 1 -6.71413,6.74342 6.7434864,6.7434864 0 0 1 -6.772587,-6.68471 6.7434864,6.7434864 0 0 1 6.655164,-6.80163 6.7434864,6.7434864 0 0 1 6.830531,6.6255" /><path
       style="display:inline;fill:#1a1a1a;fill-opacity:1;stroke-width:3.74448"
       id="path13-1"
       sodipodi:type="arc"
       sodipodi:cx="105.46175"
       sodipodi:cy="136.43445"
       sodipodi:rx="6.7434864"
       sodipodi:ry="6.7434864"
       sodipodi:start="0"
       sodipodi:end="6.2657721"
       sodipodi:open="true"
       sodipodi:arc-type="arc"
       d="m 112.20523,136.43445 a 6.7434864,6.7434864 0 0 1 -6.71413,6.74342 6.7434864,6.7434864 0 0 1 -6.772585,-6.68471 6.7434864,6.7434864 0 0 1 6.655165,-6.80162 6.7434864,6.7434864 0 0 1 6.83053,6.62549" /><path
       style="display:inline;fill:#1a1a1a;fill-opacity:1;stroke-width:3.74448"
       id="path13-5"
       sodipodi:type="arc"
       sodipodi:cx="139.76244"
       sodipodi:cy="85.749359"
       sodipodi:rx="6.7434864"
       sodipodi:ry="6.7434864"
       sodipodi:start="0"
       sodipodi:end="6.2657721"
       sodipodi:open="true"
       sodipodi:arc-type="arc"
       d="m 146.50592,85.749359 a 6.7434864,6.7434864 0 0 1 -6.71413,6.743423 6.7434864,6.7434864 0 0 1 -6.77258,-6.684711 6.7434864,6.7434864 0 0 1 6.65516,-6.801623 6.7434864,6.7434864 0 0 1 6.83053,6.625491" /><path
       style="display:inline;fill:#1a1a1a;fill-opacity:1;stroke-width:3.74448"
       id="path13-4"
       sodipodi:type="arc"
       sodipodi:cx="160.80159"
       sodipodi:cy="104.63727"
       sodipodi:rx="6.7434864"
       sodipodi:ry="6.7434864"
       sodipodi:start="0"
       sodipodi:end="6.2657721"
       sodipodi:open="true"
       sodipodi:arc-type="arc"
       d="m 167.54508,104.63727 a 6.7434864,6.7434864 0 0 1 -6.71413,6.74342 6.7434864,6.7434864 0 0 1 -6.77259,-6.68471 6.7434864,6.7434864 0 0 1 6.65516,-6.801623 6.7434864,6.7434864 0 0 1 6.83053,6.625493" /><path
       style="fill:#1a1a1a;fill-opacity:1;stroke-width:3.85454"
       id="path14"
       sodipodi:type="arc"
       sodipodi:cx="159.92566"
       sodipodi:cy="136.35054"
       sodipodi:rx="6.702116"
       sodipodi:ry="6.4175382"
       sodipodi:start="0"
       sodipodi:end="6.2657721"
       sodipodi:open="true"
       sodipodi:arc-type="arc"
       d="m 166.62778,136.35054 a 6.702116,6.4175382 0 0 1 -6.67294,6.41748 6.702116,6.4175382 0 0 1 -6.73104,-6.36161 6.702116,6.4175382 0 0 1 6.61433,-6.47286 6.702116,6.4175382 0 0 1 6.78863,6.30525" /><path
       style="fill:#1a1a1a;fill-opacity:1;stroke-width:0.264583"
       d="m 44.070695,111.05677 c -0.01413,1e-5 -0.03655,-0.0207 -0.03361,-0.031 0.0029,-0.0103 0.0312,-0.0103 0.04239,2e-5 0.0112,0.0103 0.0054,0.031 -0.0088,0.031 z"
       id="path16"
       inkscape:path-effect="#path-effect16"
       inkscape:original-d="m 44.078964,111.07746 c -0.02238,-0.0207 -0.04479,-0.0414 -0.06718,-0.062 0.02825,0 0.0565,0 0.08475,0 -0.0058,0.0207 -0.01172,0.0413 -0.01757,0.062 z"
       transform="matrix(14.152378,0,0,14.152378,-493.84404,-1381.2398)" /><path
       style="fill:#1a1a1a;fill-opacity:1;stroke-width:3.74448"
       d="m 118.74463,192.87658 0.98005,0.014 2.04774,-0.12742 1.843,-0.30711 1.4188,-0.3071 1.34575,-0.40902 0.8337,-0.29294 0.61436,-0.24908 0.59965,-0.26323 0.95076,-0.43873 0.29238,-0.16142 -0.87758,-1.68215 -2.28177,-0.23353 -4.49047,0.014 -1.38962,1.24401 c 0,0 -1.37491,1.28786 -1.43343,1.28786 -0.058,0 -0.74596,0.74582 -0.81914,0.83357 -0.0736,0.0849 0.0736,0.78969 0.0736,0.78969 z"
       id="path17" /><path
       style="fill:#1a1a1a;fill-opacity:1;stroke-width:0.264583"
       d="m 43.316565,110.36226 c 0.01482,0 0.04443,0 0.07514,-0.003 0.03071,-0.003 0.06231,-0.008 0.09016,-0.0156 0.02785,-0.007 0.05208,-0.0167 0.07757,-0.0288 0.0255,-0.0121 0.05237,-0.0269 0.08165,-0.047 0.02928,-0.0201 0.06098,-0.0456 0.08732,-0.0787 0.02635,-0.0331 0.04738,-0.0737 0.06426,-0.11423 0.01688,-0.0405 0.02963,-0.0808 0.03325,-0.13159 0.0036,-0.0508 -0.0019,-0.11215 0.0052,-0.14265 0.0071,-0.0305 0.0267,-0.0302 0.05047,-0.0229 0.02377,0.007 0.05165,0.0213 0.08268,0.0503 0.03103,0.029 0.06511,0.0727 0.09061,0.1192 0.0255,0.0465 0.04236,0.0957 0.04942,0.15723 0.0071,0.0615 0.0043,0.13525 -0.01019,0.19866 -0.01448,0.0634 -0.04065,0.11643 -0.07802,0.16516 -0.03737,0.0487 -0.08597,0.0932 -0.130587,0.12111 -0.04461,0.0279 -0.08525,0.0393 -0.117266,0.0475 -0.03202,0.008 -0.05551,0.0135 -0.0922,0.0152 -0.03669,0.002 -0.08662,9e-5 -0.130005,-0.005 -0.04338,-0.005 -0.08029,-0.0132 -0.105629,-0.0227 -0.02533,-0.009 -0.03908,-0.0201 -0.05115,-0.0332 -0.01207,-0.0131 -0.02239,-0.0286 -0.03257,-0.042 -0.01017,-0.0135 -0.02013,-0.0248 -0.02978,-0.0386 -0.0097,-0.0138 -0.01896,-0.03 -0.02496,-0.0406 -0.006,-0.0106 -0.0089,-0.016 -0.01075,-0.0225 -0.0019,-0.007 -0.0029,-0.0145 -0.0046,-0.0241 -0.0017,-0.01 -0.0041,-0.0209 -0.0077,-0.0297 -0.0036,-0.009 -0.0085,-0.0151 -0.0082,-0.0188 3.11e-4,-0.004 0.006,-0.005 0.01196,-0.007 0.006,-0.002 0.01256,-0.004 0.01583,-0.005 0.0033,-0.001 0.0033,-0.002 0.01812,-0.002 z"
       id="path18"
       inkscape:path-effect="#path-effect18"
       inkscape:original-d="m 43.30175,110.36226 c 0.02963,0 0.05925,0 0.08888,0 0.0317,-0.006 0.06339,-0.011 0.09509,-0.0165 0.0241,-0.009 0.04823,-0.0186 0.07235,-0.0279 0.02687,-0.0148 0.05374,-0.0296 0.08061,-0.0444 0.0317,-0.0255 0.06339,-0.051 0.09509,-0.0765 0.02101,-0.0406 0.04203,-0.0813 0.06305,-0.12196 0.01275,-0.0403 0.02551,-0.0806 0.03824,-0.12092 -0.0055,-0.0613 -0.01103,-0.12264 -0.01654,-0.18397 0.01963,2.7e-4 0.03927,8e-4 0.05891,10e-4 0.02791,0.0141 0.05581,0.0282 0.08371,0.0424 0.03411,0.0438 0.06821,0.0875 0.10232,0.13125 0.01688,0.0493 0.03376,0.0985 0.05064,0.1478 -0.0028,0.0737 -0.0055,0.14745 -0.0083,0.22117 -0.02619,0.0531 -0.05237,0.10612 -0.07855,0.15917 -0.04857,0.0444 -0.09715,0.0889 -0.145727,0.13332 -0.04065,0.0114 -0.0813,0.0227 -0.121957,0.0341 -0.02341,0.005 -0.04685,0.0104 -0.07028,0.0155 -0.04996,-0.002 -0.09991,-0.003 -0.149863,-0.005 -0.03686,-0.008 -0.07372,-0.0165 -0.110588,-0.0248 -0.01378,-0.0107 -0.02756,-0.0213 -0.04134,-0.032 -0.01035,-0.0155 -0.02066,-0.031 -0.031,-0.0465 -0.01,-0.0114 -0.01998,-0.0227 -0.02997,-0.0341 -0.0093,-0.0162 -0.0186,-0.0324 -0.02791,-0.0486 -0.0028,-0.005 -0.0055,-0.0104 -0.0083,-0.0155 -0.0011,-0.008 -0.0021,-0.0159 -0.0031,-0.0238 -0.0024,-0.0114 -0.0048,-0.0227 -0.0072,-0.0341 -0.0048,-0.006 -0.0097,-0.0124 -0.01447,-0.0186 0.0055,-0.001 0.01103,-0.003 0.01654,-0.004 0.0065,-0.002 0.0131,-0.004 0.01963,-0.006 z"
       transform="matrix(14.152378,0,0,14.152378,-494.1512,-1381.5909)" /><path
       style="display:inline;fill:#1a1a1a;fill-opacity:1;stroke-width:0.264583"
       d="m 44.702496,110.39841 c 0.0029,-0.007 0.0088,-0.0219 0.0173,-0.0433 0.0085,-0.0214 0.01973,-0.0495 0.03207,-0.0929 0.01234,-0.0434 0.02577,-0.10192 0.03369,-0.145 0.0079,-0.0431 0.01031,-0.0706 0.01238,-0.0942 0.0021,-0.0236 0.0038,-0.0433 0.0045,-0.0636 6.82e-4,-0.0203 3.16e-4,-0.0413 -5.1e-5,-0.0641 -3.67e-4,-0.0228 -7.33e-4,-0.0472 -0.03036,-0.0563 -0.02963,-0.009 -0.08856,-0.003 -0.125425,6.5e-4 -0.03686,0.004 -0.05168,0.005 -0.072,0.0106 -0.02032,0.006 -0.04614,0.017 -0.06042,0.0271 -0.01428,0.01 -0.01712,0.0196 -0.02143,0.038 -0.0043,0.0185 -0.01016,0.046 -0.01878,0.0734 -0.0086,0.0274 -0.01998,0.0546 -0.02756,0.0784 -0.0076,0.0237 -0.01137,0.044 -0.01723,0.0717 -0.0059,0.0276 -0.01378,0.0624 -0.02188,0.10049 -0.0081,0.0381 -0.01635,0.0794 -0.02048,0.10106 -0.0041,0.0217 -0.0041,0.0227 -0.0046,0.0297 -5.19e-4,0.007 -0.0015,0.0191 -0.0013,0.0267 2.79e-4,0.008 0.0022,0.0114 0.01063,0.0176 0.0084,0.006 0.02356,0.0151 0.03704,0.0215 0.01347,0.006 0.02523,0.0102 0.03775,0.0126 0.01252,0.002 0.02595,0.003 0.03853,0.004 0.01258,10e-4 0.02427,0.002 0.03565,0.002 0.01138,5e-4 0.02239,5e-4 0.03189,-3.4e-4 0.0095,-8.4e-4 0.01731,-0.002 0.0256,-0.004 0.0083,-0.002 0.01691,-0.004 0.02323,-0.005 0.0063,-0.002 0.01071,-0.003 0.01476,-0.004 0.0041,-0.001 0.0083,-0.002 0.01214,-0.004 0.0039,-0.002 0.008,-0.004 0.01636,-0.009 0.0084,-0.005 0.02174,-0.0135 0.02838,-0.0177 0.0066,-0.004 0.0067,-0.005 0.0096,-0.0118 z"
       id="path19"
       inkscape:path-effect="#path-effect19"
       inkscape:original-d="m 44.699576,110.4057 c 0.0058,-0.0146 0.01169,-0.0292 0.01754,-0.0438 0.01122,-0.0281 0.02244,-0.0562 0.03364,-0.0844 0.01344,-0.0586 0.02687,-0.11713 0.04031,-0.1757 0.0024,-0.0276 0.0048,-0.0551 0.0072,-0.0827 0.0019,-0.0196 0.0034,-0.0393 0.0052,-0.0589 -2.64e-4,-0.021 -7.93e-4,-0.042 -0.0011,-0.063 -2.65e-4,-0.0245 -7.94e-4,-0.0489 -0.0011,-0.0734 -0.05891,0.006 -0.117822,0.0124 -0.176731,0.0186 -0.01482,0.001 -0.02963,0.002 -0.04444,0.003 -0.02585,0.011 -0.05168,0.022 -0.07752,0.0331 -0.0028,0.009 -0.0055,0.0186 -0.0083,0.0279 -0.0058,0.0276 -0.01172,0.0551 -0.01757,0.0827 -0.01138,0.0272 -0.02273,0.0544 -0.0341,0.0816 -0.0038,0.0203 -0.0076,0.0406 -0.01138,0.061 -0.0079,0.0348 -0.01585,0.0696 -0.02376,0.10438 -0.0083,0.0414 -0.01654,0.0827 -0.02479,0.12403 0,0.002 0,0.003 0,0.005 -0.0011,0.0121 -0.0021,0.0241 -0.0031,0.0362 0.0019,0.003 0.0034,0.007 0.0052,0.0103 0.01516,0.009 0.03032,0.0179 0.04547,0.0269 0.01172,0.004 0.02342,0.008 0.03514,0.0114 0.01344,10e-4 0.02687,0.002 0.04031,0.003 0.01172,10e-4 0.02341,0.002 0.03514,0.003 0.01103,0 0.02204,0 0.03307,0 0.0079,-0.002 0.01585,-0.003 0.02376,-0.005 0.0086,-0.002 0.01722,-0.004 0.02585,-0.006 0.0041,-10e-4 0.0083,-0.003 0.01241,-0.004 0.0041,-0.001 0.0083,-0.002 0.01241,-0.003 0.0038,-0.002 0.0076,-0.005 0.01138,-0.007 0.01326,-0.008 0.02651,-0.0165 0.03977,-0.0248 z"
       transform="matrix(14.152378,0,0,14.152378,-494.1512,-1381.5909)" /><path
       style="fill:#1a1a1a;fill-opacity:1;stroke-width:0.264583"
       d="m 38.947111,107.22107 c -9.5e-4,-0.18535 -0.0029,-0.55607 -0.0031,-0.74044 -2.78e-4,-0.18437 0.0011,-0.18231 0.0035,-0.18872 0.0024,-0.006 0.0058,-0.0212 0.0088,-0.0326 0.0029,-0.0114 0.0053,-0.0193 0.0084,-0.0287 0.0031,-0.009 0.0069,-0.0205 0.01136,-0.0322 0.0045,-0.0117 0.0097,-0.0241 0.01602,-0.0358 0.0064,-0.0117 0.01392,-0.0227 0.02273,-0.0358 0.0088,-0.0131 0.01877,-0.0282 0.02792,-0.0403 0.0092,-0.0121 0.01737,-0.021 0.02694,-0.0304 0.0096,-0.009 0.02007,-0.0189 0.03086,-0.0278 0.01078,-0.009 0.02191,-0.0172 0.03967,-0.0286 0.01776,-0.0114 0.04219,-0.0258 0.06596,-0.0375 0.02378,-0.0117 0.04685,-0.0207 0.06978,-0.0276 0.02293,-0.007 0.04572,-0.0117 0.06549,-0.0152 0.01977,-0.003 0.03665,-0.005 0.05388,-0.007 0.01723,-0.001 0.03478,-0.002 0.05821,-0.002 0.02343,-1.7e-4 0.05272,1.7e-4 0.09027,3.3e-4 0.03755,1.7e-4 0.08337,1.7e-4 0.112997,-0.0126 0.02963,-0.0127 0.04306,-0.0382 0.04184,-0.0562 -0.0012,-0.0179 -0.01706,-0.0282 -0.03928,-0.0363 -0.02223,-0.008 -0.05078,-0.0139 -0.07215,-0.0169 -0.02136,-0.003 -0.03548,-0.003 -0.05064,-0.003 -0.01516,-1.6e-4 -0.03135,-5e-4 -0.04634,-1.6e-4 -0.01498,3.3e-4 -0.02876,0.001 -0.04117,0.002 -0.0124,6.6e-4 -0.02342,10e-4 -0.0708,0.006 -0.04738,0.005 -0.131083,0.0157 -0.186732,0.0272 -0.05565,0.0115 -0.0832,0.0243 -0.119881,0.0542 -0.03668,0.03 -0.08251,0.0772 -0.133137,0.12607 -0.05063,0.0489 -0.106118,0.0996 -0.133334,0.15349 -0.02722,0.0539 -0.02618,0.1111 -0.02894,0.16554 -0.0028,0.0544 -0.0093,0.1061 -0.01722,0.18465 -0.0079,0.0786 -0.01723,0.18396 -0.02101,0.29714 -0.0038,0.11317 -0.0021,0.23409 -0.0057,0.3283 -0.0036,0.0942 -0.01257,0.16176 -0.02273,0.2472 -0.01016,0.0854 -0.02153,0.18879 -0.02531,0.27061 -0.0038,0.0818 7e-6,0.14211 0.02791,0.10077 0.02791,-0.0413 0.07993,-0.18431 0.123248,-0.25836 0.04332,-0.074 0.07799,-0.0792 0.0953,-0.0817 0.01732,-0.003 0.01728,-0.002 0.01633,-0.18772 z"
       id="path20"
       inkscape:path-effect="#path-effect20"
       inkscape:original-d="m 38.948061,107.40643 c -0.0019,-0.37071 -0.0038,-0.74143 -0.0057,-1.11214 0.0013,0.002 0.0028,0.004 0.0041,0.006 0.0034,-0.0148 0.0069,-0.0296 0.01035,-0.0444 0.0024,-0.008 0.0048,-0.0159 0.0072,-0.0238 0.0038,-0.011 0.0076,-0.022 0.01138,-0.0331 0.0052,-0.0124 0.01035,-0.0248 0.0155,-0.0372 0.0076,-0.011 0.01516,-0.022 0.02273,-0.0331 0.01,-0.0152 0.01998,-0.0303 0.02998,-0.0455 0.0083,-0.009 0.01654,-0.0179 0.02479,-0.0269 0.01069,-0.01 0.02135,-0.0193 0.03204,-0.0289 0.01103,-0.008 0.02204,-0.0165 0.03307,-0.0248 0.02447,-0.0145 0.04892,-0.0289 0.07338,-0.0434 0.02307,-0.009 0.04616,-0.0179 0.06925,-0.0269 0.02273,-0.005 0.04548,-0.01 0.06821,-0.0145 0.01688,-0.002 0.03376,-0.004 0.05064,-0.006 0.01757,-7.9e-4 0.03514,-10e-4 0.05271,-0.002 0.02928,2.7e-4 0.05857,8e-4 0.08785,0.001 0.04582,0 0.09164,0 0.137459,0 0.01344,-0.0255 0.02687,-0.051 0.04031,-0.0765 -0.01585,-0.0104 -0.0317,-0.0207 -0.04754,-0.031 -0.0286,-0.006 -0.05719,-0.0117 -0.08578,-0.0176 -0.01413,0 -0.02825,0 -0.04238,0 -0.01619,-2.7e-4 -0.03238,-8e-4 -0.04857,-0.001 -0.01378,0.001 -0.02756,0.002 -0.04134,0.003 -0.01103,2.7e-4 -0.02204,8e-4 -0.03307,0.001 -0.08372,0.0104 -0.16743,0.0207 -0.251147,0.031 -0.02756,0.0128 -0.05512,0.0255 -0.08268,0.0382 -0.04582,0.0472 -0.09164,0.0944 -0.137459,0.14159 -0.05547,0.0506 -0.110931,0.10129 -0.166399,0.15193 0.0011,0.0572 0.0021,0.11438 0.0031,0.17156 -0.0065,0.0517 -0.0131,0.10336 -0.01963,0.15503 -0.0093,0.10543 -0.0186,0.21084 -0.02791,0.31626 0.0019,0.12093 0.0034,0.24185 0.0052,0.36277 -0.009,0.0675 -0.01791,0.13505 -0.02687,0.20257 -0.01138,0.10336 -0.02273,0.20671 -0.0341,0.31006 0.0038,0.0603 0.0076,0.12058 0.01138,0.18087 0.05202,-0.14297 0.104042,-0.28594 0.156062,-0.42891 0.03464,-0.005 0.06928,-0.0103 0.10392,-0.0154 z"
       transform="matrix(14.152378,0,0,14.152378,-494.1512,-1381.5909)" /><path
       style="fill:#1a1a1a;fill-opacity:1;stroke-width:0.264583"
       d="m 37.970809,106.51856 c 0.0021,-0.0899 0.0041,-0.17983 0.0072,-0.24634 0.0031,-0.0665 0.0072,-0.10951 0.01689,-0.15846 0.0097,-0.0489 0.0248,-0.10369 0.04014,-0.15073 0.01534,-0.047 0.03085,-0.0863 0.0484,-0.12385 0.01756,-0.0375 0.03718,-0.0733 0.05906,-0.11037 0.02188,-0.037 0.04602,-0.0753 0.0722,-0.11184 0.02618,-0.0365 0.05443,-0.0713 0.0844,-0.10455 0.02997,-0.0333 0.06167,-0.065 0.100241,-0.0996 0.03858,-0.0346 0.08407,-0.0722 0.128005,-0.10405 0.04394,-0.0319 0.08632,-0.058 0.124549,-0.0804 0.03823,-0.0224 0.07233,-0.041 0.111603,-0.0592 0.03927,-0.0183 0.08371,-0.0362 0.124712,-0.0513 0.041,-0.0151 0.07855,-0.0275 0.114388,-0.0377 0.03584,-0.0102 0.06993,-0.0181 0.107147,-0.0255 0.03721,-0.007 0.0775,-0.0143 0.121763,-0.0198 0.04427,-0.006 0.09248,-0.01 0.145207,-0.0117 0.05272,-0.002 0.109912,-0.002 0.154525,-0.002 0.04461,1.6e-4 0.07666,5e-4 0.09309,0.002 0.01644,0.001 0.01687,0.002 0.01729,0.004 4.17e-4,0.002 4.17e-4,0.003 4.17e-4,0.006 0,0.003 0,0.008 0,0.013"
       id="path21"
       inkscape:path-effect="#path-effect21"
       inkscape:original-d="m 37.970809,106.51856 c 0.0021,-0.0899 0.0041,-0.17983 0.0062,-0.26975 0.0041,-0.0431 0.0083,-0.0861 0.01241,-0.12919 0.01516,-0.0548 0.03032,-0.10955 0.04548,-0.16433 0.0155,-0.0393 0.031,-0.0786 0.04651,-0.11783 0.01963,-0.0358 0.03927,-0.0716 0.05891,-0.10748 0.0241,-0.0382 0.04823,-0.0765 0.07235,-0.11472 0.02825,-0.0348 0.0565,-0.0696 0.08475,-0.10439 0.0317,-0.0317 0.06339,-0.0634 0.09509,-0.0951 0.04548,-0.0375 0.09095,-0.0751 0.136424,-0.11266 0.04238,-0.0262 0.08475,-0.0524 0.127125,-0.0785 0.03411,-0.0186 0.06821,-0.0372 0.102319,-0.0558 0.04444,-0.0179 0.08888,-0.0358 0.133326,-0.0537 0.03755,-0.0124 0.0751,-0.0248 0.112655,-0.0372 0.03411,-0.008 0.06821,-0.0159 0.102319,-0.0238 0.04031,-0.007 0.08061,-0.0138 0.120923,-0.0207 0.04823,-0.004 0.09646,-0.008 0.144693,-0.0124 0.05719,0 0.114379,0 0.171566,0 0.03204,2.6e-4 0.06408,7.9e-4 0.09612,10e-4 7.94e-4,0.002 0.0013,0.003 0.0021,0.005 0,0.002 0,0.003 0,0.005 0,0.005 0,0.01 0,0.0145"
       transform="matrix(14.152378,0,0,14.152378,-494.1512,-1381.5909)" /><path
       style="fill:#1a1a1a;fill-opacity:1;stroke-width:0.264583"
       d="m 43.82593,106.45655 c 1.84e-4,-0.0124 5.5e-4,-0.0372 0.0011,-0.057 5.33e-4,-0.0198 0.0012,-0.0346 5.49e-4,-0.0517 -6.82e-4,-0.0171 -0.0027,-0.0364 -0.0074,-0.061 -0.0047,-0.0247 -0.0119,-0.0547 -0.02239,-0.082 -0.0105,-0.0274 -0.02428,-0.0522 -0.03311,-0.067 -0.0088,-0.0149 -0.01271,-0.0198 -0.02055,-0.0299 -0.0078,-0.0101 -0.01989,-0.0256 -0.03282,-0.0393 -0.01293,-0.0138 -0.02668,-0.0258 -0.04322,-0.0396 -0.01654,-0.0138 -0.03584,-0.0293 -0.05332,-0.0409 -0.01748,-0.0116 -0.03285,-0.0191 -0.04796,-0.0259 -0.01511,-0.007 -0.02999,-0.0131 -0.04564,-0.0188 -0.01565,-0.006 -0.03222,-0.0109 -0.05061,-0.0157 -0.01839,-0.005 -0.03883,-0.009 -0.05588,-0.012 -0.01705,-0.003 -0.03083,-0.004 -0.04702,-0.004 -0.01619,-6.6e-4 -0.0348,-0.001 -0.05581,-0.001 -0.021,-1.7e-4 -0.04444,-1.7e-4 -0.06615,-1.7e-4 -0.0217,0 -0.04169,0 -0.05669,3.3e-4 -0.01499,3.4e-4 -0.02494,0.001 -0.03014,-0.002 -0.0052,-0.003 -0.0056,-0.008 -0.0037,-0.0179 0.0019,-0.009 0.006,-0.0226 0.01309,-0.035 0.0071,-0.0124 0.01705,-0.0241 0.01154,-0.0754 -0.0055,-0.0513 -0.02653,-0.1423 -0.02171,-0.27563 0.0048,-0.13333 0.03549,-0.30902 0.05186,-0.3967 0.01638,-0.0877 0.01841,-0.0874 0.02255,-0.0872 0.0041,1.7e-4 0.01035,1.7e-4 0.0174,1.7e-4 0.007,0 0.01499,0 0.02791,0 0.01291,0 0.03083,0 0.05115,0 0.02032,0 0.04306,0 0.07698,0.002 0.03392,0.002 0.07909,0.005 0.129902,0.0119 0.05081,0.007 0.10731,0.0167 0.15588,0.0272 0.04857,0.0105 0.08921,0.0215 0.13281,0.0358 0.0436,0.0143 0.09009,0.0319 0.127642,0.0472 0.03756,0.0153 0.06615,0.0284 0.09577,0.0432 0.02962,0.0148 0.06031,0.0314 0.09337,0.0513 0.03306,0.02 0.06858,0.0434 0.09649,0.0631 0.02791,0.0196 0.04822,0.0355 0.06957,0.0528 0.02134,0.0174 0.04378,0.0363 0.0679,0.0584 0.02412,0.022 0.04992,0.0472 0.07697,0.0763 0.02706,0.0291 0.05528,0.0622 0.07872,0.0918 0.02344,0.0296 0.04206,0.0558 0.06064,0.084 0.01858,0.0282 0.03717,0.0585 0.05252,0.0856 0.01535,0.0271 0.02738,0.0508 0.03996,0.0785 0.01258,0.0277 0.02567,0.0594 0.03859,0.0946 0.01292,0.0352 0.02567,0.0738 0.03462,0.10423 0.009,0.0305 0.01412,0.0529 0.01997,0.0856 0.0059,0.0327 0.01239,0.0757 0.01635,0.10539 0.004,0.0296 0.0053,0.0459 0.0064,0.0825 0.001,0.0367 0.0017,0.0939 0.0023,0.15277 5.33e-4,0.0589 9e-4,0.11956 9e-4,0.17418 0,0.0546 -3.66e-4,0.10312 -0.02086,0.12915 -0.02049,0.026 -0.06119,0.0295 -0.166608,0.032 -0.10542,0.003 -0.275597,0.004 -0.418054,-0.0496 -0.142457,-0.0538 -0.257178,-0.16298 -0.314539,-0.21758 -0.05736,-0.0546 -0.05735,-0.0545 -0.05717,-0.0669 z"
       id="path22"
       inkscape:path-effect="#path-effect22"
       inkscape:original-d="m 43.825747,106.46895 c 2.64e-4,-0.0248 7.94e-4,-0.0496 0.0011,-0.0744 7.94e-4,-0.0148 0.0013,-0.0296 0.0021,-0.0445 -0.0021,-0.0193 -0.0041,-0.0386 -0.0062,-0.0579 -0.0072,-0.03 -0.01447,-0.06 -0.0217,-0.0899 -0.01378,-0.0248 -0.02756,-0.0496 -0.04134,-0.0744 -0.0038,-0.005 -0.0076,-0.01 -0.01138,-0.0145 -0.01206,-0.0155 -0.0241,-0.031 -0.03617,-0.0465 -0.01378,-0.0121 -0.02756,-0.0241 -0.04134,-0.0362 -0.01929,-0.0155 -0.03859,-0.031 -0.05788,-0.0465 -0.0155,-0.008 -0.03101,-0.0152 -0.04651,-0.0227 -0.01482,-0.006 -0.02963,-0.0124 -0.04444,-0.0186 -0.01654,-0.005 -0.03307,-0.0103 -0.04961,-0.0155 -0.02032,-0.004 -0.04065,-0.009 -0.06098,-0.0134 -0.01378,-0.001 -0.02756,-0.002 -0.04134,-0.003 -0.0186,-2.6e-4 -0.03721,-7.9e-4 -0.05581,-0.001 -0.02341,0 -0.04685,0 -0.07028,0 -0.01998,0 -0.03997,0 -0.05995,0 -0.01,7.9e-4 -0.01998,0.001 -0.02997,0.002 -2.65e-4,-0.006 -7.94e-4,-0.0117 -0.0011,-0.0176 0.0041,-0.0131 0.0083,-0.0262 0.01241,-0.0393 0.01,-0.0117 0.01998,-0.0234 0.02997,-0.0351 -0.02101,-0.0909 -0.04203,-0.1819 -0.06305,-0.27285 0.03066,-0.17571 0.06132,-0.3514 0.09199,-0.5271 0.0021,2.6e-4 0.0041,7.9e-4 0.0062,0.001 0.0062,0 0.01241,0 0.0186,0 0.0079,0 0.01585,0 0.02376,0 0.01791,0 0.03583,0 0.05374,0 0.02273,0 0.04547,0 0.06821,0 0.04513,0.003 0.09026,0.007 0.135392,0.0103 0.0565,0.01 0.112999,0.02 0.169498,0.03 0.04065,0.011 0.0813,0.022 0.121957,0.0331 0.04651,0.0176 0.09302,0.0351 0.139525,0.0527 0.0286,0.0131 0.05719,0.0262 0.08578,0.0393 0.03066,0.0165 0.06132,0.0331 0.09199,0.0496 0.03549,0.0234 0.07097,0.0469 0.106453,0.0703 0.02032,0.0159 0.04065,0.0317 0.06098,0.0475 0.02238,0.0189 0.04479,0.0379 0.06718,0.0568 0.02585,0.0252 0.05168,0.0503 0.07751,0.0755 0.02825,0.0331 0.0565,0.0661 0.08475,0.0992 0.0186,0.0262 0.03721,0.0524 0.05581,0.0785 0.0186,0.0303 0.03721,0.0606 0.05581,0.091 0.01206,0.0238 0.0241,0.0475 0.03617,0.0713 0.0131,0.0317 0.02619,0.0634 0.03927,0.0951 0.01275,0.0386 0.02551,0.0772 0.03824,0.11576 0.0052,0.0224 0.01035,0.0448 0.0155,0.0672 0.0065,0.0431 0.0131,0.0861 0.01963,0.12919 0.0013,0.0162 0.0028,0.0324 0.0041,0.0486 7.94e-4,0.0572 0.0013,0.11438 0.0021,0.17157 2.64e-4,0.0606 7.93e-4,0.12126 0.0011,0.1819 -2.65e-4,0.0486 -7.94e-4,0.0971 -0.0011,0.14573 -0.04065,0.003 -0.0813,0.007 -0.121957,0.0103 -0.170191,0.002 -0.340374,0.003 -0.510561,0.005 -0.114726,-0.10921 -0.229444,-0.21842 -0.344168,-0.32763 z"
       transform="matrix(14.152378,0,0,14.152378,-494.1512,-1381.5909)" /><path
       style="fill:#1a1a1a;fill-opacity:1;stroke-width:3.74448"
       d="m 139.90206,125.80605 v 47.76287 l -6.49527,10.38417 -4.46811,5.64709 -9.94972,3.28899 -56.572471,-0.0283 -0.541187,-0.39485 -4.885385,-2.07714 -10.648377,-17.08419 -3.247179,-2.99846 0.101891,-19.11733 13.851625,-13.1058 0.05801,33.23234 -2.23793,4.97314 2.749879,5.33884 5.543586,-0.54063 1.184838,-0.7897 54.32428,-0.0139 4.97313,0.23352 5.49971,-1.52124 -3.04241,-5.33885 V 124.9344 Z"
       id="path23" /><path
       style="fill:#1a1a1a;fill-opacity:1;stroke-width:3.74448"
       d="m 43.211373,125.68067 0.02973,8.04478 12.754645,-11.23344 -0.819139,-8.22043 -4.066245,2.28193 z"
       id="path24" /><path
       style="display:inline;fill:#1a1a1a;fill-opacity:1;stroke-width:3.74448"
       d="m 65.590501,117.28478 51.603659,-0.0284 0.58506,-4.53442 -0.0298,-7.9862 -25.128997,0.0284 -25.977362,0.0284 -10.999408,5.41201 2.545078,6.17243 z"
       id="path25" /><path
       style="fill:#1a1a1a;fill-opacity:1;stroke-width:3.74448"
       d="m 112.22103,88.294342 -18.605377,16.762358 -8.62989,0.55617 0.20479,-9.010239 3.91998,-4.885259 17.552257,-15.94337 z"
       id="path26" /><path
       style="fill:#1a1a1a;fill-opacity:1;stroke-width:0.264583"
       d="m 44.230189,102.6096 c 0.0272,-0.025 0.08166,-0.0749 0.120599,-0.10784 0.03894,-0.0329 0.06236,-0.0487 0.09405,-0.0658 0.03169,-0.017 0.07164,-0.0353 0.109508,-0.0486 0.03787,-0.0133 0.07375,-0.0215 0.100815,-0.0265 0.02706,-0.005 0.04526,-0.007 0.06422,-0.008 0.01896,-0.001 0.0386,-0.002 0.05583,-0.002 0.01723,-1.6e-4 0.03202,5e-4 0.04804,0.002 0.01602,0.002 0.03325,0.005 0.04999,0.008 0.01674,0.003 0.03299,0.006 0.05241,0.0103 0.01942,0.005 0.04213,0.0117 0.06253,0.0189 0.0204,0.007 0.03819,0.0148 0.05868,0.0249 0.02049,0.0101 0.04358,0.0229 0.0663,0.0373 0.02273,0.0145 0.04513,0.0307 0.05777,0.0408 0.01264,0.0102 0.01599,0.015 0.02338,0.0222 0.0074,0.007 0.01909,0.0172 0.03236,0.008 0.01327,-0.01 0.02808,-0.0389 0.02789,-0.0665 -1.88e-4,-0.0276 -0.01533,-0.0534 -0.06148,-0.0889 -0.04615,-0.0355 -0.123349,-0.0806 -0.182252,-0.11248 -0.0589,-0.0319 -0.09955,-0.0505 -0.147592,-0.0644 -0.04804,-0.0139 -0.10355,-0.0233 -0.204137,-0.0233 -0.100588,0 -0.246335,0.009 -0.333165,0.0234 -0.08683,0.0141 -0.114721,0.033 -0.144514,0.063 -0.02979,0.03 -0.06149,0.071 -0.104899,0.12625 -0.04341,0.0553 -0.09853,0.12488 -0.131773,0.17708 -0.03325,0.0522 -0.04461,0.087 -0.05098,0.11918 -0.0064,0.0322 -0.0077,0.0619 0.0054,0.0732 0.01311,0.0113 0.04065,0.004 0.07078,-0.0193 0.03013,-0.0238 0.06289,-0.0644 0.09716,-0.093 0.03427,-0.0286 0.07013,-0.0451 0.08665,-0.042 0.01653,0.003 0.01375,0.0259 0.01431,0.0351 5.62e-4,0.009 0.005,0.004 0.007,0.005 0.002,7.9e-4 0.002,0.007 0.0035,0.009 0.0014,0.001 0.0048,-0.002 0.009,-0.005 0.0042,-0.002 0.0099,-0.004 0.01264,-0.004 0.0027,-6.6e-4 0.0027,-2.9e-4 0.0299,-0.0252 z"
       id="path27"
       inkscape:path-effect="#path-effect27"
       inkscape:original-d="m 44.202987,102.63456 c 0.05443,-0.0499 0.108863,-0.0999 0.163296,-0.14986 0.02341,-0.0159 0.04685,-0.0317 0.07028,-0.0475 0.03996,-0.0183 0.07993,-0.0365 0.119888,-0.0548 0.03583,-0.008 0.07166,-0.0165 0.107487,-0.0248 0.01826,-0.002 0.03652,-0.003 0.05478,-0.005 0.01963,-10e-4 0.03927,-0.002 0.05891,-0.003 0.01482,8e-4 0.02963,0.001 0.04444,0.002 0.01722,0.003 0.03445,0.006 0.05168,0.009 0.01619,0.003 0.03239,0.006 0.04858,0.008 0.02273,0.007 0.04547,0.0138 0.06821,0.0207 0.01791,0.008 0.03583,0.0152 0.05374,0.0227 0.02307,0.0128 0.04617,0.0255 0.06925,0.0382 0.02238,0.0162 0.04479,0.0324 0.06718,0.0486 0.0031,0.004 0.0062,0.009 0.0093,0.0134 0.01172,0.01 0.02341,0.02 0.03514,0.03 0.01482,-0.0293 0.02963,-0.0586 0.04444,-0.0879 -0.01516,-0.0259 -0.03032,-0.0517 -0.04548,-0.0775 -0.07717,-0.0451 -0.154339,-0.0903 -0.23151,-0.1354 -0.04065,-0.0186 -0.0813,-0.0372 -0.121957,-0.0558 -0.05547,-0.009 -0.110932,-0.0186 -0.166397,-0.0279 -0.145729,0.009 -0.291457,0.0186 -0.437184,0.0279 -0.0279,0.019 -0.05581,0.0379 -0.08371,0.0568 -0.0317,0.041 -0.06339,0.082 -0.09509,0.12299 -0.05512,0.0696 -0.110241,0.13918 -0.165365,0.20877 -0.01138,0.0348 -0.02273,0.0696 -0.0341,0.10438 -0.0013,0.0296 -0.0028,0.0593 -0.0041,0.0889 0.02756,-0.007 0.05512,-0.0138 0.08268,-0.0207 0.03273,-0.0406 0.06546,-0.0813 0.09819,-0.12195 0.03583,-0.0165 0.07166,-0.0331 0.107487,-0.0496 -0.0028,0.0227 -0.0055,0.0455 -0.0083,0.0682 0.0041,-0.004 0.0083,-0.009 0.01241,-0.0134 0,0.006 0,0.0124 0,0.0186 0.0031,-0.003 0.0062,-0.007 0.0093,-0.0104 0.0055,-10e-4 0.01103,-0.003 0.01654,-0.004 z"
       transform="matrix(14.152378,0,0,14.152378,-494.1512,-1381.5909)" /><path
       style="display:inline;fill:#1a1a1a;fill-opacity:1;stroke-width:0.264583"
       d="m 43.62973,101.89782 c 0.02102,-0.0184 0.06302,-0.0553 0.100583,-0.0853 0.03756,-0.03 0.07063,-0.0531 0.109733,-0.0782 0.0391,-0.0251 0.08423,-0.0523 0.129023,-0.0763 0.04479,-0.0239 0.08925,-0.0446 0.133166,-0.0629 0.04392,-0.0183 0.08731,-0.0341 0.126927,-0.0472 0.03962,-0.0131 0.07547,-0.0234 0.109716,-0.0322 0.03425,-0.009 0.06704,-0.016 0.09942,-0.0226 0.03239,-0.007 0.0644,-0.0124 0.101085,-0.0174 0.03669,-0.005 0.07801,-0.009 0.124364,-0.0114 0.04635,-0.002 0.09768,-0.003 0.147302,-8.3e-4 0.04962,0.002 0.09752,0.006 0.140553,0.01 0.04304,0.004 0.08131,0.01 0.119209,0.0162 0.0379,0.007 0.07542,0.0145 0.11471,0.0245 0.03929,0.01 0.08026,0.0221 0.113811,0.0327 0.03355,0.0107 0.05983,0.02 0.08653,0.0307 0.0267,0.0107 0.0539,0.0227 0.07762,0.0334 0.02372,0.0107 0.04416,0.02 0.07275,0.0348 0.02859,0.0148 0.06543,0.0351 0.100583,0.0563 0.03515,0.0212 0.06859,0.0432 0.114932,0.0789 0.04634,0.0357 0.105561,0.0849 0.152932,0.12589 0.04737,0.041 0.08289,0.0738 0.107863,0.0962 0.02498,0.0224 0.03941,0.0344 0.04206,0.0444 0.0026,0.01 -0.0061,0.0173 -0.01867,0.028 -0.01257,0.0107 -0.02877,0.0244 -0.04873,0.0363 -0.01996,0.0119 -0.04374,0.0219 -0.08356,0.0312 -0.03982,0.009 -0.09557,0.0179 -0.189624,0.022 -0.09405,0.004 -0.226343,0.004 -0.317978,0.0134 -0.09163,0.01 -0.142641,0.0293 -0.207062,0.0451 -0.06442,0.0159 -0.142269,0.0279 -0.202556,0.0346 -0.06029,0.007 -0.103027,0.008 -0.151941,0.002 -0.04891,-0.006 -0.104036,-0.0179 -0.156556,-0.0224 -0.05252,-0.004 -0.102518,-10e-4 -0.187089,0.019 -0.08457,0.02 -0.203766,0.0565 -0.274901,0.0846 -0.07114,0.0281 -0.09426,0.0477 -0.134044,0.0862 -0.03979,0.0384 -0.09628,0.0956 -0.15365,0.0949 -0.05737,-7e-4 -0.115571,-0.0592 -0.159323,-0.10559 -0.04375,-0.0463 -0.07303,-0.0804 -0.104566,-0.14109 -0.03153,-0.0606 -0.06528,-0.14778 -0.08303,-0.19997 -0.01775,-0.0522 -0.01947,-0.0694 -0.01465,-0.078 0.0048,-0.009 0.01617,-0.009 0.02254,-0.0136 0.0064,-0.005 0.0077,-0.015 0.0073,-0.024 -4.82e-4,-0.009 -0.0029,-0.0175 -0.0013,-0.0247 0.0017,-0.007 0.0076,-0.0135 0.01057,-0.0166 0.0029,-0.003 0.003,-0.003 0.02398,-0.0215 z"
       id="path28"
       inkscape:path-effect="#path-effect28"
       inkscape:original-d="m 43.608706,101.91626 c 0.04203,-0.0369 0.08406,-0.0737 0.12609,-0.11059 0.03308,-0.0231 0.06615,-0.0462 0.09922,-0.0693 0.04513,-0.0272 0.09026,-0.0544 0.135393,-0.0816 0.04444,-0.0207 0.08888,-0.0414 0.133326,-0.062 0.04341,-0.0159 0.08682,-0.0317 0.130225,-0.0476 0.03583,-0.0103 0.07166,-0.0207 0.107487,-0.031 0.03273,-0.007 0.06546,-0.0145 0.09818,-0.0217 0.03204,-0.006 0.06408,-0.0117 0.09612,-0.0176 0.04134,-0.004 0.08268,-0.008 0.124024,-0.0124 0.05133,-2.6e-4 0.102663,-7.9e-4 0.153995,-10e-4 0.04789,0.004 0.09577,0.008 0.143661,0.0114 0.03824,0.005 0.07648,0.0104 0.114723,0.0155 0.03755,0.008 0.0751,0.0158 0.112654,0.0238 0.041,0.0121 0.08199,0.0241 0.122989,0.0362 0.02619,0.009 0.05237,0.0186 0.07855,0.0279 0.02721,0.0121 0.05443,0.0241 0.08165,0.0362 0.02032,0.009 0.04065,0.0186 0.06098,0.0279 0.03686,0.0203 0.07372,0.0406 0.110588,0.061 0.03342,0.022 0.06683,0.0441 0.100251,0.0661 0.05926,0.0493 0.118512,0.0985 0.177768,0.1478 0.03549,0.0327 0.07097,0.0655 0.106452,0.0982 0.01447,0.0121 0.02894,0.0241 0.04341,0.0362 -0.009,0.008 -0.01791,0.0152 -0.02687,0.0227 -0.01619,0.0138 -0.03238,0.0276 -0.04857,0.0413 -0.02376,0.01 -0.04754,0.02 -0.07131,0.03 -0.05581,0.009 -0.111623,0.0172 -0.167434,0.0258 -0.132291,-2.6e-4 -0.264583,-7.9e-4 -0.396875,-0.001 -0.05099,0.0196 -0.101973,0.0393 -0.152961,0.0589 -0.07786,0.0121 -0.155718,0.0241 -0.233577,0.0362 -0.04272,0.001 -0.08544,0.003 -0.128158,0.004 -0.05512,-0.0124 -0.110242,-0.0248 -0.165365,-0.0372 -0.04995,0.003 -0.09991,0.007 -0.14986,0.0104 -0.119203,0.0365 -0.238403,0.073 -0.357603,0.10956 -0.02307,0.0196 -0.04616,0.0393 -0.06925,0.0589 -0.0565,0.0572 -0.112998,0.11438 -0.169497,0.17156 -0.05822,-0.0586 -0.116443,-0.11713 -0.174667,-0.1757 -0.02928,-0.0341 -0.05857,-0.0682 -0.08785,-0.10232 -0.03376,-0.0872 -0.06752,-0.17432 -0.101285,-0.26148 -0.0019,-0.0172 -0.0034,-0.0344 -0.0052,-0.0517 0.01138,0 0.02273,0 0.0341,0 0.0013,-0.01 0.0028,-0.02 0.0041,-0.03 -0.0024,-0.008 -0.0048,-0.0165 -0.0072,-0.0248 0.0058,-0.006 0.01172,-0.0124 0.01757,-0.0186 z"
       transform="matrix(14.152378,0,0,14.152378,-494.1512,-1381.5909)" /><path
       style="fill:#1a1a1a;fill-opacity:1;stroke-width:0.264583"
       d="m 47.48788,105.46747 c 0.01274,-0.0114 0.03826,-0.0341 0.05704,-0.0512 0.01878,-0.0171 0.03079,-0.0284 0.04357,-0.042 0.01278,-0.0136 0.02619,-0.0294 0.03738,-0.0437 0.01119,-0.0143 0.02016,-0.027 0.02963,-0.0427 0.0095,-0.0157 0.01946,-0.0343 0.02806,-0.0532 0.0086,-0.019 0.01585,-0.0383 0.02204,-0.0581 0.0062,-0.0198 0.01135,-0.0401 0.0155,-0.0646 0.0041,-0.0245 0.0072,-0.0531 0.0088,-0.0805 0.0016,-0.0274 0.0016,-0.0536 -0.0038,-0.0842 -0.0053,-0.0307 -0.01603,-0.0659 -0.02533,-0.0934 -0.0093,-0.0276 -0.01724,-0.0476 -0.02739,-0.067 -0.01016,-0.0194 -0.02252,-0.0384 -0.03252,-0.0534 -0.01,-0.015 -0.01755,-0.026 -0.03048,-0.0409 -0.01293,-0.0148 -0.03119,-0.0334 -0.05376,-0.0551 -0.02257,-0.0217 -0.04944,-0.0465 -0.08716,-0.0803 -0.03772,-0.0338 -0.08629,-0.0765 -0.114489,-0.10174 -0.0282,-0.0253 -0.03559,-0.0326 -0.03916,-0.0384 -0.0036,-0.006 -0.0032,-0.01 -0.0025,-0.015 6.88e-4,-0.005 0.0017,-0.012 0.0056,-0.0195 0.0039,-0.008 0.0109,-0.0159 0.02449,-0.0226 0.01359,-0.007 0.03398,-0.0119 0.05155,-0.008 0.01758,0.004 0.03237,0.0165 0.06492,-0.0212 0.03255,-0.0377 0.08285,-0.12593 0.175821,-0.14986 0.09298,-0.0239 0.228653,0.0164 0.293066,-0.0153 0.06441,-0.0317 0.0576,-0.1355 0.07021,-0.19959 0.01262,-0.0641 0.04467,-0.0885 0.06152,-0.10005 0.01686,-0.0115 0.01877,-0.0101 0.02186,-0.007 0.0031,0.003 0.0082,0.007 0.01486,0.0136 0.0066,0.006 0.0147,0.0135 0.04169,0.037 0.02699,0.0236 0.11869,0.10284 0.126956,0.1111 0.0083,0.008 0.02483,0.0248 0.04136,0.042 0.01653,0.0172 0.03306,0.0351 0.0489,0.0535 0.01584,0.0184 0.03103,0.0374 0.04876,0.0601 0.01773,0.0227 0.03804,0.0492 0.05906,0.0801 0.02102,0.0308 0.04275,0.066 0.05912,0.0939 0.01637,0.0279 0.02736,0.0485 0.03856,0.0706 0.0112,0.022 0.02255,0.0454 0.031,0.0635 0.0084,0.0181 0.01399,0.0309 0.02226,0.053 0.0083,0.022 0.01928,0.0533 0.02927,0.0853 0.01,0.032 0.01895,0.0648 0.02498,0.0889 0.006,0.0241 0.0091,0.0396 0.01223,0.0549 0.0031,0.0153 0.0062,0.0305 0.0086,0.0439 0.0024,0.0135 0.0042,0.0251 0.0057,0.0363 0.0016,0.0112 0.0029,0.0218 0.0038,0.0312 8.7e-4,0.009 0.0012,0.0173 0.0023,0.0364 0.001,0.0191 0.0028,0.0494 0.0036,0.0789 8.69e-4,0.0295 8.69e-4,0.0581 -8.56e-4,0.0898 -0.0017,0.0317 -0.0052,0.0665 -0.01017,0.10264 -0.005,0.0361 -0.01154,0.0738 -0.01929,0.11079 -0.0077,0.037 -0.0167,0.0735 -0.02531,0.1035 -0.0086,0.03 -0.01686,0.0534 -0.02789,0.0822 -0.01103,0.0288 -0.02481,0.0629 -0.04272,0.1006 -0.01791,0.0377 -0.03999,0.0791 -0.05808,0.11131 -0.01809,0.0322 -0.03223,0.0553 -0.04581,0.0759 -0.01358,0.0206 -0.02668,0.0389 -0.03823,0.0539 -0.01155,0.015 -0.02153,0.0267 -0.03273,0.0406 -0.0112,0.0139 -0.02359,0.0301 -0.03772,0.0472 -0.01413,0.0171 -0.02998,0.035 -0.0503,0.0556 -0.02032,0.0207 -0.04515,0.0441 -0.09336,0.0877 -0.04821,0.0436 -0.119884,0.10731 -0.161926,0.14608 -0.04204,0.0388 -0.05445,0.0525 -0.106116,0.0389 -0.05166,-0.0136 -0.142616,-0.0546 -0.194464,-0.0875 -0.05185,-0.0329 -0.0646,-0.0577 -0.08251,-0.0773 -0.01792,-0.0196 -0.04097,-0.0341 -0.07629,-0.0596 -0.03532,-0.0255 -0.08285,-0.062 -0.09732,-0.11612 -0.01448,-0.0541 0.0041,-0.12573 0.02754,-0.18051 0.02343,-0.0548 0.05168,-0.0927 0.04168,-0.12161 -0.01,-0.0289 -0.05824,-0.0489 -0.0827,-0.0624 -0.02446,-0.0135 -0.02515,-0.0203 -0.0224,-0.0237 0.0027,-0.003 0.009,-0.003 0.0096,-0.005 6.21e-4,-0.001 -0.004,-0.004 -0.0054,-0.009 -0.0014,-0.005 6.21e-4,-0.0117 0.0017,-0.0151 0.001,-0.003 8.89e-4,-0.003 0.01363,-0.0146 z"
       id="path29"
       inkscape:path-effect="#path-effect29"
       inkscape:original-d="m 47.475137,105.47883 c 0.02551,-0.0227 0.05099,-0.0455 0.07648,-0.0682 0.01206,-0.0114 0.0241,-0.0227 0.03617,-0.0341 0.01344,-0.0159 0.02687,-0.0317 0.04031,-0.0475 0.009,-0.0127 0.01791,-0.0255 0.02687,-0.0382 0.01,-0.0186 0.01998,-0.0372 0.02997,-0.0558 0.0072,-0.0193 0.01447,-0.0386 0.0217,-0.0579 0.0052,-0.0203 0.01034,-0.0406 0.0155,-0.061 0.0031,-0.0286 0.0062,-0.0572 0.0093,-0.0858 0,-0.0262 0,-0.0524 0,-0.0786 -0.01069,-0.0351 -0.02135,-0.0703 -0.03204,-0.10542 -0.0079,-0.02 -0.01585,-0.04 -0.02376,-0.0599 -0.01241,-0.019 -0.02479,-0.0379 -0.03721,-0.0569 -0.0076,-0.011 -0.01516,-0.022 -0.02273,-0.0331 -0.01826,-0.0186 -0.03652,-0.0372 -0.05478,-0.0558 -0.02687,-0.0248 -0.05374,-0.0496 -0.08062,-0.0744 -0.04857,-0.0427 -0.09715,-0.0854 -0.145728,-0.12816 -0.0076,-0.008 -0.01516,-0.0152 -0.02273,-0.0227 2.64e-4,-0.004 7.93e-4,-0.008 0.0011,-0.0114 0.0011,-0.007 0.0021,-0.0138 0.0031,-0.0207 0.0069,-0.008 0.01378,-0.0165 0.02066,-0.0248 0.02032,-0.005 0.04065,-0.0104 0.06097,-0.0155 0.01482,0.0128 0.02963,0.0255 0.04444,0.0382 0.0503,-0.0882 0.100598,-0.17639 0.150898,-0.26458 0.135659,0.0403 0.271317,0.0807 0.406974,0.12098 -0.0068,-0.10378 -0.01365,-0.20755 -0.02045,-0.31133 0.03205,-0.0244 0.0641,-0.0488 0.09614,-0.0732 0.0019,0.001 0.0034,0.003 0.0052,0.004 0.0048,0.004 0.0097,0.009 0.01447,0.0134 0.0083,0.008 0.01654,0.0152 0.02479,0.0227 0.04513,0.0403 0.182592,0.15917 0.137459,0.11886 0.01516,0.0179 0.03239,0.0338 0.04961,0.0496 0.01654,0.0179 0.03307,0.0358 0.04961,0.0537 0.01516,0.0189 0.03032,0.0379 0.04548,0.0568 0.02032,0.0265 0.04065,0.053 0.06098,0.0796 0.0217,0.0351 0.04341,0.0703 0.06511,0.10542 0.01103,0.0207 0.02204,0.0413 0.03307,0.062 0.01138,0.0234 0.02273,0.0468 0.03411,0.0703 0.0055,0.0127 0.01103,0.0255 0.01654,0.0382 0.01103,0.0314 0.02204,0.0627 0.03307,0.094 0.009,0.0327 0.01791,0.0655 0.02687,0.0982 0.0031,0.0155 0.0062,0.031 0.0093,0.0465 0.0031,0.0152 0.0062,0.0303 0.0093,0.0455 0.0019,0.0117 0.0034,0.0234 0.0052,0.0351 0.0013,0.0107 0.0028,0.0213 0.0041,0.032 2.64e-4,0.008 7.94e-4,0.0159 0.0011,0.0238 0.0019,0.0303 0.0034,0.0606 0.0052,0.091 0,0.0286 0,0.0572 0,0.0858 -0.0034,0.0348 -0.0069,0.0696 -0.01035,0.10439 -0.0065,0.0375 -0.0131,0.0751 -0.01963,0.11266 -0.009,0.0365 -0.01791,0.073 -0.02687,0.10955 -0.0083,0.0234 -0.01654,0.0468 -0.02479,0.0703 -0.01378,0.0341 -0.02756,0.0682 -0.04134,0.10232 -0.02204,0.0413 -0.0441,0.0827 -0.06615,0.12402 -0.01413,0.0231 -0.02825,0.0462 -0.04237,0.0692 -0.0131,0.0182 -0.02619,0.0365 -0.03927,0.0548 -0.01,0.0117 -0.01998,0.0234 -0.02997,0.0351 -0.01241,0.0162 -0.02479,0.0324 -0.03721,0.0486 -0.01585,0.0179 -0.0317,0.0358 -0.04754,0.0537 -0.02482,0.0234 -0.04961,0.0469 -0.07441,0.0703 -0.07166,0.0637 -0.143317,0.12746 -0.214974,0.1912 -0.01241,0.0138 -0.02479,0.0276 -0.03721,0.0413 -0.09095,-0.041 -0.181901,-0.082 -0.272851,-0.12299 -0.01275,-0.0248 -0.02551,-0.0496 -0.03824,-0.0744 -0.02307,-0.0145 -0.04616,-0.0289 -0.06925,-0.0434 -0.04754,-0.0365 -0.09508,-0.073 -0.142627,-0.10956 0.0186,-0.0717 0.03721,-0.14331 0.05581,-0.21497 0.02825,-0.0379 0.0565,-0.0758 0.08475,-0.11369 -0.04823,-0.02 -0.09646,-0.04 -0.144695,-0.0599 -7.94e-4,-0.007 -0.0013,-0.0138 -0.0021,-0.0207 0.0062,0 0.01241,0 0.0186,0 -0.0048,-0.003 -0.0097,-0.005 -0.01447,-0.008 0.0021,-0.007 0.0041,-0.0138 0.0062,-0.0207 z"
       transform="matrix(14.152378,0,0,14.152378,-494.1512,-1381.5909)" /><path
       style="fill:#1a1a1a;fill-opacity:1;stroke-width:3.74448"
       d="m 155.01933,131.94097 22.70093,-20.71172 8.51282,10.03403 -21.50151,19.60006 z"
       id="path30" /><path
       style="fill:#1a1a1a;fill-opacity:1;stroke-width:3.74448"
       d="m 157.52614,62.425483 29.24937,26.229307 -4.01301,7.819061 -6.8676,0.04236 -30.36638,-27.263574 -3.76478,-3.930258 1.15839,-1.200121 7.11583,0.372207"
       id="path31" /><path
       style="fill:#1a1a1a;fill-opacity:1;stroke-width:3.74448"
       d="m 148.30558,63.852751 0.13166,1.052935 2.20867,0.394853 1.24329,-0.600061 -1.214,-1.872218 -1.93073,0.05662 -0.40959,1.082657 z"
       id="path32" /><path
       style="fill:#1a1a1a;fill-opacity:1;stroke-width:3.74448"
       d="m 131.63091,70.741986 -22.17436,20.082799 -3.11551,-3.422751 -1.38962,-7.401136 1.63821,-4.197888 16.55766,-15.094918 7.32805,5.543486 0.14644,2.179466 z"
       id="path33" /></g></svg>
