<svg width="34" height="34" viewBox="0 0 34 34" fill="none" xmlns="http://www.w3.org/2000/svg">
<path d="M21.2498 17H14.1665" stroke="#46474E" stroke-width="2" stroke-linecap="round" stroke-linejoin="round"/>
<path d="M21.2498 11.3333H14.1665" stroke="#46474E" stroke-width="2" stroke-linecap="round" stroke-linejoin="round"/>
<path d="M26.9165 24.0833V7.08333C26.9165 6.33189 26.618 5.61122 26.0866 5.07986C25.5553 4.54851 24.8346 4.25 24.0832 4.25H5.6665" stroke="#46474E" stroke-width="2" stroke-linecap="round" stroke-linejoin="round"/>
<path d="M11.3335 29.75H28.3335C29.0849 29.75 29.8056 29.4515 30.337 28.9201C30.8683 28.3888 31.1668 27.6681 31.1668 26.9167V25.5C31.1668 25.1243 31.0176 24.7639 30.7519 24.4983C30.4862 24.2326 30.1259 24.0833 29.7502 24.0833H15.5835C15.2078 24.0833 14.8474 24.2326 14.5818 24.4983C14.3161 24.7639 14.1668 25.1243 14.1668 25.5V26.9167C14.1668 27.6681 13.8683 28.3888 13.337 28.9201C12.8056 29.4515 12.0849 29.75 11.3335 29.75ZM11.3335 29.75C10.582 29.75 9.86138 29.4515 9.33003 28.9201C8.79867 28.3888 8.50016 27.6681 8.50016 26.9167V7.08333C8.50016 6.33189 8.20165 5.61122 7.6703 5.07986C7.13895 4.54851 6.41828 4.25 5.66683 4.25C4.91538 4.25 4.19471 4.54851 3.66336 5.07986C3.13201 5.61122 2.8335 6.33189 2.8335 7.08333V9.91667C2.8335 10.2924 2.98275 10.6527 3.24843 10.9184C3.5141 11.1841 3.87444 11.3333 4.25016 11.3333H8.50016" stroke="#46474E" stroke-width="2" stroke-linecap="round" stroke-linejoin="round"/>
</svg>
