<svg width="20" height="20" viewBox="0 0 20 20" fill="none" xmlns="http://www.w3.org/2000/svg">
<path d="M3.33366 16.6668C2.87533 16.6668 2.48296 16.5036 2.15658 16.1772C1.83019 15.8509 1.66699 15.4585 1.66699 15.0002V5.00016C1.66699 4.54183 1.83019 4.14947 2.15658 3.82308C2.48296 3.49669 2.87533 3.3335 3.33366 3.3335H16.667C17.1253 3.3335 17.5177 3.49669 17.8441 3.82308C18.1705 4.14947 18.3337 4.54183 18.3337 5.00016V15.0002C18.3337 15.4585 18.1705 15.8509 17.8441 16.1772C17.5177 16.5036 17.1253 16.6668 16.667 16.6668H3.33366ZM10.0003 10.8335L3.33366 6.66683V15.0002H16.667V6.66683L10.0003 10.8335ZM10.0003 9.16683L16.667 5.00016H3.33366L10.0003 9.16683ZM3.33366 6.66683V5.00016V15.0002V6.66683Z" fill="#FEFEFE"/>
</svg>
