<svg width="20" height="20" viewBox="0 0 20 20" fill="none" xmlns="http://www.w3.org/2000/svg">
<path d="M1 19L2.27129 14.3778C1.48681 13.0248 1.0746 11.491 1.07536 9.91825C1.07762 5.00125 5.09796 1 10.0377 1C12.4348 1.00075 14.685 1.93 16.3775 3.616C18.0693 5.302 19.0008 7.543 19 9.9265C18.9977 14.8443 14.9774 18.8455 10.0377 18.8455C8.53805 18.8448 7.06029 18.4705 5.75132 17.7595L1 19ZM5.97136 16.1448C7.23436 16.891 8.44009 17.338 10.0347 17.3388C14.1402 17.3388 17.4846 14.0133 17.4868 9.925C17.4883 5.8285 14.1598 2.5075 10.0407 2.506C5.93218 2.506 2.59005 5.8315 2.58855 9.919C2.58779 11.5878 3.07913 12.8372 3.9043 14.1445L3.15147 16.8805L5.97136 16.1448ZM14.5524 12.0468C14.4966 11.9538 14.3474 11.8983 14.1228 11.7865C13.899 11.6748 12.798 11.1355 12.5923 11.0613C12.3873 10.987 12.2381 10.9495 12.0882 11.173C11.939 11.3958 11.5094 11.8983 11.379 12.0468C11.2487 12.1953 11.1176 12.214 10.8937 12.1023C10.6699 11.9905 9.948 11.7558 9.09269 10.996C8.42728 10.405 7.97739 9.67525 7.84702 9.45175C7.71665 9.229 7.83346 9.10825 7.94499 8.99725C8.04597 8.8975 8.1688 8.737 8.28108 8.6065C8.39487 8.4775 8.4318 8.3845 8.50716 8.23525C8.58176 8.08675 8.54484 7.95625 8.48832 7.8445C8.4318 7.7335 7.98417 6.63625 7.79804 6.19C7.61567 5.75575 7.43105 5.81425 7.2939 5.8075L6.86436 5.8C6.71515 5.8 6.47249 5.8555 6.26752 6.079C6.06255 6.3025 5.4838 6.841 5.4838 7.93825C5.4838 9.0355 6.28636 10.0953 6.39789 10.2437C6.51017 10.3923 7.97664 12.6438 10.2231 13.609C10.7573 13.8385 11.1748 13.9758 11.4996 14.0785C12.0362 14.248 12.5245 14.224 12.9103 14.167C13.3406 14.1033 14.2351 13.6278 14.422 13.1073C14.6089 12.586 14.6089 12.1398 14.5524 12.0468Z" fill="#FEFEFE"/>
</svg>
