<svg width="34" height="34" viewBox="0 0 34 34" fill="none" xmlns="http://www.w3.org/2000/svg">
<path d="M29.9966 9.6503C30.7456 8.90149 31.1664 7.8858 31.1666 6.82668C31.1667 5.76756 30.7461 4.75177 29.9973 4.00276C29.2485 3.25376 28.2328 2.8329 27.1737 2.83276C26.1145 2.83263 25.0987 3.25324 24.3497 4.00205L5.4429 22.9131C5.11398 23.2411 4.87073 23.6449 4.73457 24.089L2.86315 30.2543C2.82654 30.3768 2.82377 30.507 2.85515 30.6309C2.88653 30.7549 2.95087 30.868 3.04136 30.9584C3.13186 31.0487 3.24512 31.1129 3.36913 31.1441C3.49314 31.1753 3.62328 31.1723 3.74574 31.1355L9.91249 29.2655C10.3561 29.1305 10.7599 28.8888 11.0883 28.5614L29.9966 9.6503Z" stroke="#46474E" stroke-width="2" stroke-linecap="round" stroke-linejoin="round"/>
<path d="M21.25 7.08325L26.9167 12.7499" stroke="#46474E" stroke-width="2" stroke-linecap="round" stroke-linejoin="round"/>
</svg>
