<svg width="34" height="34" viewBox="0 0 34 34" fill="none" xmlns="http://www.w3.org/2000/svg">
<path d="M30.1631 9.81754C30.9121 9.06872 31.3329 8.05304 31.3331 6.99392C31.3332 5.9348 30.9126 4.919 30.1638 4.17C29.415 3.42099 28.3993 3.00013 27.3402 3C26.281 2.99987 25.2652 3.42047 24.5162 4.16929L5.60941 23.0804C5.28048 23.4083 5.03724 23.8121 4.90107 24.2562L3.02966 30.4215C2.99304 30.5441 2.99028 30.6742 3.02165 30.7982C3.05303 30.9221 3.11738 31.0353 3.20787 31.1256C3.29836 31.216 3.41162 31.2801 3.53563 31.3113C3.65964 31.3425 3.78978 31.3395 3.91224 31.3027L10.079 29.4327C10.5226 29.2978 10.9264 29.056 11.2548 28.7286L30.1631 9.81754Z" stroke="#E47F15" stroke-width="2" stroke-linecap="round" stroke-linejoin="round"/>
<path d="M21.25 7.08325L26.9167 12.7499" stroke="#E47F15" stroke-width="2" stroke-linecap="round" stroke-linejoin="round"/>
</svg>
