<svg width="34" height="34" viewBox="0 0 34 34" fill="none" xmlns="http://www.w3.org/2000/svg">
<path d="M17.0002 24.0833C17.7826 24.0833 18.4168 23.4491 18.4168 22.6667C18.4168 21.8843 17.7826 21.25 17.0002 21.25C16.2178 21.25 15.5835 21.8843 15.5835 22.6667C15.5835 23.4491 16.2178 24.0833 17.0002 24.0833Z" stroke="#E47F15" stroke-width="2" stroke-linecap="round" stroke-linejoin="round"/>
<path d="M26.9167 14.1667H7.08333C5.51853 14.1667 4.25 15.4353 4.25 17.0001V28.3334C4.25 29.8982 5.51853 31.1667 7.08333 31.1667H26.9167C28.4815 31.1667 29.75 29.8982 29.75 28.3334V17.0001C29.75 15.4353 28.4815 14.1667 26.9167 14.1667Z" stroke="#E47F15" stroke-width="2" stroke-linecap="round" stroke-linejoin="round"/>
<path d="M9.9165 14.1666V9.91659C9.9165 8.03797 10.6628 6.23629 11.9912 4.90791C13.3195 3.57953 15.1212 2.83325 16.9998 2.83325C18.8785 2.83325 20.6801 3.57953 22.0085 4.90791C23.3369 6.23629 24.0832 8.03797 24.0832 9.91659V14.1666" stroke="#E47F15" stroke-width="2" stroke-linecap="round" stroke-linejoin="round"/>
</svg>
