<svg width="34" height="34" viewBox="0 0 34 34" fill="none" xmlns="http://www.w3.org/2000/svg">
<path d="M30.7839 25.4999L19.4506 5.66658C19.2035 5.23053 18.8451 4.86784 18.4121 4.61551C17.979 4.36317 17.4868 4.23022 16.9856 4.23022C16.4844 4.23022 15.9922 4.36317 15.5591 4.61551C15.1261 4.86784 14.7677 5.23053 14.5206 5.66658L3.18728 25.4999C2.93749 25.9325 2.80652 26.4234 2.80762 26.923C2.80873 27.4225 2.94188 27.9128 3.19358 28.3443C3.44527 28.7758 3.80657 29.1331 4.24085 29.3799C4.67512 29.6268 5.16694 29.7544 5.66644 29.7499H28.3331C28.8302 29.7494 29.3184 29.6181 29.7488 29.3692C30.1791 29.1203 30.5363 28.7626 30.7847 28.332C31.033 27.9014 31.1637 27.413 31.1635 26.9159C31.1634 26.4187 31.0325 25.9304 30.7839 25.4999Z" stroke="#46474E" stroke-width="2" stroke-linecap="round" stroke-linejoin="round"/>
<path d="M17 12.75V18.4167" stroke="#46474E" stroke-width="2" stroke-linecap="round" stroke-linejoin="round"/>
<path d="M17 24.0833H17.0142" stroke="#46474E" stroke-width="2" stroke-linecap="round" stroke-linejoin="round"/>
</svg>
