<svg width="130" height="49" viewBox="0 0 106 24" fill="none" xmlns="http://www.w3.org/2000/svg">
<path d="M37.808 14.7465C37.969 14.7925 38.0572 14.919 38.0725 15.126C37.3212 15.862 36.4472 16.23 35.4505 16.23C34.9292 16.23 34.4308 16.1457 33.9555 15.977C33.4878 15.8007 33.07 15.5438 32.702 15.2065C32.3417 14.8692 32.0503 14.4245 31.828 13.8725C31.6133 13.3128 31.506 12.6803 31.506 11.975C31.506 11.2773 31.6248 10.6525 31.8625 10.1005C32.1078 9.54083 32.4298 9.0885 32.8285 8.7435C33.2348 8.3985 33.668 8.14167 34.128 7.973C34.5957 7.80433 35.0748 7.72 35.5655 7.72C36.6388 7.72 37.4898 7.8925 38.1185 8.2375C38.1492 8.78183 38.0303 9.4105 37.762 10.1235C37.5703 10.1542 37.4017 10.135 37.256 10.066L37.1295 8.5825C36.7155 8.40617 36.221 8.32183 35.646 8.3295C34.8487 8.3295 34.1817 8.68217 33.645 9.3875C33.1083 10.0852 32.84 10.9477 32.84 11.975C32.84 13.0867 33.0738 13.9722 33.5415 14.6315C34.0168 15.2908 34.6953 15.6205 35.577 15.6205C36.3743 15.6205 37.118 15.3292 37.808 14.7465ZM38.6689 13.125C38.6689 12.1667 38.9487 11.4077 39.5084 10.848C40.068 10.2883 40.7542 10.0123 41.5669 10.02C42.4562 10.02 43.1615 10.3152 43.6829 10.9055C44.2042 11.4958 44.4649 12.2357 44.4649 13.125C44.4649 14.0987 44.1889 14.8615 43.6369 15.4135C43.0849 15.9655 42.3949 16.2377 41.5669 16.23C40.6545 16.23 39.9415 15.9348 39.4279 15.3445C38.9219 14.7542 38.6689 14.0143 38.6689 13.125ZM43.2229 13.286C43.2382 12.5577 43.1079 11.9137 42.8319 11.354C42.5559 10.7943 42.1265 10.5145 41.5439 10.5145C40.9765 10.5145 40.5587 10.7637 40.2904 11.262C40.0297 11.7527 39.9032 12.4005 39.9109 13.2055C39.9109 13.5582 39.9415 13.8878 40.0029 14.1945C40.0719 14.5012 40.1754 14.7695 40.3134 14.9995C40.4514 15.2295 40.6239 15.4097 40.8309 15.54C41.0455 15.6703 41.2985 15.7355 41.5899 15.7355C42.0652 15.7432 42.4562 15.5515 42.7629 15.1605C43.0695 14.7695 43.2229 14.1447 43.2229 13.286ZM47.1349 10.2385L47.1004 11.0205L47.1119 11.032C47.7559 10.4033 48.4765 10.0813 49.2739 10.066C49.7799 10.066 50.1747 10.2117 50.4584 10.503C50.742 10.7867 50.8839 11.1968 50.8839 11.7335L50.8954 15.425L51.7004 15.655C51.7234 15.8007 51.7042 15.9348 51.6429 16.0575C51.0295 16.0192 50.5887 16 50.3204 16C50.0444 16 49.592 16.0192 48.9634 16.0575C48.9404 15.9118 48.948 15.7777 48.9864 15.655C49.224 15.609 49.477 15.5323 49.7454 15.425V12.251C49.7454 11.745 49.6649 11.3885 49.5039 11.1815C49.3505 10.9745 49.0937 10.871 48.7334 10.871C48.1124 10.871 47.5987 11.101 47.1924 11.561V15.425L47.9629 15.655C47.9859 15.8007 47.9667 15.9348 47.9054 16.0575C47.292 16.0192 46.8627 16 46.6174 16C46.3874 16 45.9197 16.0192 45.2144 16.0575C45.1914 15.9118 45.199 15.7777 45.2374 15.655C45.6054 15.563 45.8737 15.4863 46.0424 15.425V10.94L45.0879 10.848C45.0649 10.6947 45.084 10.5605 45.1454 10.4455C45.7357 10.3458 46.2685 10.2423 46.7439 10.135C46.8742 10.1427 47.0045 10.1772 47.1349 10.2385ZM55.5706 8.87L55.4441 7.858C55.2984 7.79667 55.1489 7.766 54.9956 7.766C54.3976 7.78133 54.0986 8.37933 54.0986 9.56V10.5375H55.7086C55.7009 10.7905 55.6626 10.9822 55.5936 11.1125H54.0986V15.425L55.2141 15.655C55.2371 15.8007 55.2179 15.9348 55.1566 16.0575C54.4666 16.0192 53.9222 16 53.5236 16C53.2936 16 52.8259 16.0192 52.1206 16.0575C52.0976 15.9118 52.1052 15.7777 52.1436 15.655C52.5116 15.5783 52.7799 15.5017 52.9486 15.425V11.1125H52.2011C52.1934 11.0358 52.2011 10.9362 52.2241 10.8135C52.2471 10.6832 52.2777 10.5912 52.3161 10.5375H52.9486V9.8475C52.9486 9.07317 53.1249 8.45983 53.4776 8.0075C53.8379 7.5475 54.3132 7.3175 54.9036 7.3175C55.4402 7.30217 55.8926 7.41717 56.2606 7.6625C56.2069 8.13017 56.1341 8.548 56.0421 8.916C55.8734 8.939 55.7162 8.92367 55.5706 8.87ZM56.6235 8.3065C56.6235 8.16083 56.7117 8.01133 56.888 7.858C57.0644 7.70467 57.2484 7.628 57.44 7.628C57.6317 7.628 57.7965 7.71617 57.9345 7.8925C58.0725 8.06117 58.1415 8.23367 58.1415 8.41C58.1415 8.56333 58.0534 8.71667 57.877 8.87C57.7084 9.01567 57.5244 9.0885 57.325 9.0885C57.1487 9.0885 56.9877 9.00417 56.842 8.8355C56.6964 8.65917 56.6235 8.48283 56.6235 8.3065ZM58.2105 10.2615V15.425L58.981 15.655C59.004 15.8007 58.9849 15.9348 58.9235 16.0575C58.2335 16.0192 57.8042 16 57.6355 16C57.4055 16 56.9379 16.0192 56.2325 16.0575C56.2095 15.9118 56.2172 15.7777 56.2555 15.655C56.6849 15.5553 56.9532 15.4787 57.0605 15.425V10.94L56.106 10.848C56.083 10.6947 56.1022 10.5605 56.1635 10.4455C56.7999 10.3535 57.3365 10.25 57.7735 10.135C57.9039 10.1427 58.0495 10.1848 58.2105 10.2615ZM63.478 12.1475C63.478 11.6798 63.3515 11.3118 63.0985 11.0435C62.8531 10.7675 62.5311 10.6295 62.1325 10.6295C61.7338 10.6295 61.408 10.7675 61.155 11.0435C60.9096 11.3118 60.787 11.6798 60.787 12.1475C60.787 12.5845 60.9135 12.9448 61.1665 13.2285C61.4195 13.5045 61.7415 13.6425 62.1325 13.6425C62.5235 13.6425 62.8455 13.5045 63.0985 13.2285C63.3515 12.9448 63.478 12.5845 63.478 12.1475ZM62.1325 14.0795C61.8258 14.0795 61.5345 14.0373 61.2585 13.953C61.1205 14.1523 61.0515 14.3018 61.0515 14.4015C61.0515 14.4858 61.0783 14.5587 61.132 14.62C61.1856 14.6813 61.3275 14.7465 61.5575 14.8155C61.7951 14.8768 62.1708 14.9382 62.6845 14.9995C63.5125 15.0838 64.1066 15.241 64.467 15.471C64.835 15.6933 65.019 16.0805 65.019 16.6325C65.019 17.0772 64.8695 17.449 64.5705 17.748C64.2715 18.0547 63.9035 18.2732 63.4665 18.4035C63.0295 18.5338 62.5848 18.599 62.1325 18.599C61.3045 18.599 60.6835 18.4533 60.2695 18.162C59.8555 17.8783 59.6485 17.518 59.6485 17.081C59.6485 16.391 60.0088 15.8965 60.7295 15.5975C60.4765 15.3752 60.35 15.1222 60.35 14.8385C60.35 14.4398 60.5071 14.091 60.8215 13.792C60.1008 13.4393 59.7405 12.8988 59.7405 12.1705C59.7481 11.5035 59.9896 11.0052 60.465 10.6755C60.948 10.3458 61.5038 10.1848 62.1325 10.1925C62.5618 10.1925 62.9451 10.2615 63.2825 10.3995L64.812 9.4565C64.8963 9.51017 64.9768 9.63667 65.0535 9.836C65.1301 10.0353 65.157 10.1887 65.134 10.296C64.628 10.4647 64.1411 10.5643 63.6735 10.595C64.2408 10.94 64.5245 11.4652 64.5245 12.1705C64.5245 12.5998 64.3903 12.964 64.122 13.263C63.8613 13.562 63.5508 13.7728 63.1905 13.8955C62.8301 14.0182 62.4775 14.0795 62.1325 14.0795ZM62.305 15.9195C62.2436 15.9118 62.1401 15.9003 61.9945 15.885C61.8488 15.862 61.6993 15.839 61.546 15.816C61.4003 15.793 61.2661 15.7662 61.1435 15.7355C60.9441 15.9042 60.7985 16.0728 60.7065 16.2415C60.6221 16.4178 60.58 16.644 60.58 16.92C60.58 17.265 60.7256 17.5563 61.017 17.794C61.3083 18.0393 61.6993 18.162 62.19 18.162C62.719 18.162 63.1483 18.0355 63.478 17.7825C63.8153 17.5295 63.984 17.2458 63.984 16.9315C63.984 16.6402 63.8345 16.414 63.5355 16.253C63.2441 16.0997 62.834 15.9885 62.305 15.9195ZM70.9928 15.448C71.1001 15.5247 71.3684 15.6013 71.7978 15.678C71.8208 15.816 71.8016 15.9502 71.7403 16.0805C71.4566 16.1342 71.1423 16.161 70.7973 16.161C70.5519 16.161 70.3373 16.138 70.1533 16.092L69.9578 15.241H69.9003C69.5169 15.586 69.1566 15.8313 68.8193 15.977C68.4896 16.115 68.1254 16.184 67.7268 16.184C66.6918 16.184 66.1743 15.609 66.1743 14.459V10.94L65.3348 10.848C65.3118 10.6947 65.3309 10.5605 65.3923 10.4455C65.8599 10.3765 66.3583 10.273 66.8873 10.135C67.0176 10.1427 67.1633 10.1848 67.3243 10.2615V14.2865C67.3243 14.7158 67.4124 15.0072 67.5888 15.1605C67.7651 15.3138 68.0373 15.3867 68.4053 15.379C68.6429 15.379 68.8959 15.31 69.1643 15.172C69.4326 15.0263 69.6588 14.85 69.8428 14.643V10.94L69.0033 10.848C68.9803 10.6947 68.9994 10.5605 69.0608 10.4455C69.5284 10.3765 70.0268 10.273 70.5558 10.135C70.6861 10.1427 70.8318 10.1848 70.9928 10.2615V15.448ZM74.2915 12.1245V15.425L75.407 15.655C75.43 15.8007 75.4108 15.9348 75.3495 16.0575C74.6595 16.0192 74.1151 16 73.7165 16C73.4098 16 72.9421 16.0192 72.3135 16.0575C72.2905 15.9118 72.2981 15.7777 72.3365 15.655C72.7658 15.563 73.0341 15.4863 73.1415 15.425V10.94L72.187 10.848C72.164 10.6947 72.1831 10.5605 72.2445 10.4455C72.8808 10.3535 73.4175 10.25 73.8545 10.135C73.9388 10.135 74.0653 10.1772 74.234 10.2615V11.308L74.2455 11.3195C74.8128 10.4762 75.3955 10.0545 75.9935 10.0545C76.3001 10.0468 76.5531 10.1043 76.7525 10.227C76.7755 10.7943 76.6988 11.3693 76.5225 11.952C76.3308 11.975 76.1583 11.9597 76.005 11.906L75.844 10.756C75.2076 10.756 74.6901 11.2122 74.2915 12.1245ZM78.3827 14.62C78.3827 14.9267 78.4632 15.1605 78.6242 15.3215C78.7929 15.4825 79.019 15.563 79.3027 15.563C79.5174 15.563 79.7435 15.4978 79.9812 15.3675C80.2265 15.2372 80.4105 15.0838 80.5332 14.9075V13.355C79.7435 13.355 79.1877 13.4508 78.8657 13.6425C78.5437 13.8265 78.3827 14.1523 78.3827 14.62ZM81.6602 12.3545V15.4365C81.7752 15.4978 82.0435 15.5745 82.4652 15.6665C82.4882 15.8122 82.469 15.9463 82.4077 16.069C82.124 16.1227 81.802 16.1495 81.4417 16.1495C81.1887 16.1495 80.9702 16.1265 80.7862 16.0805L80.6252 15.4825H80.5792C80.1192 15.9578 79.548 16.1955 78.8657 16.1955C78.375 16.1955 77.9802 16.069 77.6812 15.816C77.3822 15.5553 77.2327 15.195 77.2327 14.735C77.2404 13.47 78.3405 12.8567 80.5332 12.895L80.5447 11.883C80.5524 10.9937 80.215 10.5452 79.5327 10.5375C79.1264 10.5375 78.766 10.595 78.4517 10.71L78.3022 11.929C78.1489 11.9827 77.9802 11.998 77.7962 11.975C77.6352 11.3923 77.5585 10.894 77.5662 10.48C78.2025 10.1733 78.9615 10.02 79.8432 10.02C80.5025 10.0123 80.9702 10.181 81.2462 10.526C81.5222 10.871 81.6602 11.4805 81.6602 12.3545ZM85.9623 16.644C86.8593 16.644 87.3078 16.9698 87.3078 17.6215C87.3078 17.9588 87.1659 18.2387 86.8823 18.461C86.6063 18.6833 86.2268 18.7945 85.7438 18.7945C85.3988 18.7868 85.0883 18.737 84.8123 18.645C84.8199 18.507 84.8774 18.3958 84.9848 18.3115C85.2224 18.4035 85.4524 18.4495 85.6748 18.4495C85.9201 18.4495 86.1233 18.3882 86.2843 18.2655C86.4453 18.1505 86.5258 18.0202 86.5258 17.8745C86.5258 17.6598 86.4338 17.495 86.2498 17.38C86.0658 17.265 85.8128 17.2075 85.4908 17.2075L85.4678 16.1725C84.8468 16.0882 84.3101 15.8198 83.8578 15.3675C83.3134 14.8155 83.0336 14.068 83.0183 13.125C83.0183 12.1667 83.3019 11.4153 83.8693 10.871C84.4366 10.319 85.1573 10.043 86.0313 10.043C86.6676 10.043 87.2618 10.1657 87.8138 10.411C87.8138 10.9783 87.7371 11.4997 87.5838 11.975C87.5378 11.9827 87.4764 11.9865 87.3998 11.9865C87.2694 11.9865 87.1621 11.9673 87.0778 11.929L86.9283 10.71C86.6906 10.6103 86.4031 10.5567 86.0658 10.549C85.4754 10.5567 85.0231 10.7943 84.7088 11.262C84.4021 11.722 84.2488 12.343 84.2488 13.125C84.2488 13.9223 84.4059 14.5318 84.7203 14.9535C85.0423 15.3675 85.4678 15.5745 85.9968 15.5745C86.5028 15.5745 87.0318 15.3943 87.5838 15.034C87.6834 15.0953 87.7524 15.195 87.7908 15.333C87.2464 15.885 86.6139 16.1725 85.8933 16.1955L85.9623 16.644ZM88.5667 13.125C88.5667 12.1667 88.8465 11.4077 89.4062 10.848C89.9658 10.2883 90.652 10.0123 91.4647 10.02C92.354 10.02 93.0593 10.3152 93.5807 10.9055C94.102 11.4958 94.3627 12.2357 94.3627 13.125C94.3627 14.0987 94.0867 14.8615 93.5347 15.4135C92.9827 15.9655 92.2927 16.2377 91.4647 16.23C90.5523 16.23 89.8393 15.9348 89.3257 15.3445C88.8197 14.7542 88.5667 14.0143 88.5667 13.125ZM93.1207 13.286C93.136 12.5577 93.0057 11.9137 92.7297 11.354C92.4537 10.7943 92.0243 10.5145 91.4417 10.5145C90.8743 10.5145 90.4565 10.7637 90.1882 11.262C89.9275 11.7527 89.801 12.4005 89.8087 13.2055C89.8087 13.5582 89.8393 13.8878 89.9007 14.1945C89.9697 14.5012 90.0732 14.7695 90.2112 14.9995C90.3492 15.2295 90.5217 15.4097 90.7287 15.54C90.9433 15.6703 91.1963 15.7355 91.4877 15.7355C91.963 15.7432 92.354 15.5515 92.6607 15.1605C92.9673 14.7695 93.1207 14.1447 93.1207 13.286ZM90.0847 9.1345C89.9773 9.0885 89.8662 8.9965 89.7512 8.8585C90.0655 8.29117 90.4297 7.99983 90.8437 7.9845C91.0583 7.96917 91.2883 8.0305 91.5337 8.1685C91.779 8.29883 91.9707 8.3755 92.1087 8.3985C92.446 8.45983 92.699 8.36017 92.8677 8.0995C92.998 8.0995 93.1092 8.14167 93.2012 8.226C93.0248 8.85467 92.7258 9.1805 92.3042 9.2035C92.0435 9.21883 91.7752 9.1575 91.4992 9.0195C91.2232 8.87383 91.0047 8.79717 90.8437 8.7895C90.514 8.75883 90.261 8.87383 90.0847 9.1345ZM96.456 12.895V13.125C96.456 13.8917 96.6094 14.4897 96.916 14.919C97.2304 15.3483 97.6559 15.563 98.1925 15.563C98.5375 15.563 98.8135 15.5323 99.0205 15.471C99.2275 15.402 99.4882 15.2602 99.8025 15.0455C99.9252 15.0992 99.9942 15.1912 100.01 15.3215C99.4805 15.8965 98.8634 16.1878 98.158 16.1955C97.2764 16.1955 96.571 15.9195 96.042 15.3675C95.513 14.8155 95.2447 14.068 95.237 13.125C95.2447 12.159 95.5207 11.4077 96.065 10.871C96.617 10.3267 97.2955 10.0545 98.1005 10.0545C98.7522 10.0545 99.2467 10.2768 99.584 10.7215C99.929 11.1585 100.102 11.7527 100.102 12.504C100.102 12.6343 100.098 12.734 100.09 12.803L99.929 12.9295L96.456 12.895ZM98.089 10.549C97.7287 10.549 97.3952 10.7138 97.0885 11.0435C96.7895 11.3655 96.594 11.8255 96.502 12.4235L99.009 12.2855C99.009 11.6722 98.94 11.2313 98.802 10.963C98.6717 10.687 98.434 10.549 98.089 10.549ZM101.655 14.275L101.77 15.494C102.023 15.632 102.372 15.701 102.817 15.701C103.154 15.701 103.438 15.6282 103.668 15.4825C103.906 15.3368 104.024 15.1183 104.024 14.827C104.024 14.5663 103.909 14.3402 103.679 14.1485C103.449 13.9492 103.055 13.7192 102.495 13.4585C102.012 13.2362 101.655 12.9832 101.425 12.6995C101.203 12.4158 101.092 12.0517 101.092 11.607C101.092 11.0857 101.28 10.6947 101.655 10.434C102.031 10.1733 102.522 10.043 103.127 10.043C103.718 10.043 104.277 10.1503 104.806 10.365C104.806 10.3957 104.806 10.4378 104.806 10.4915C104.814 10.5452 104.818 10.5873 104.818 10.618C104.818 11.0703 104.745 11.5112 104.599 11.9405C104.523 11.9558 104.465 11.9635 104.427 11.9635C104.312 11.9635 104.197 11.9405 104.082 11.8945L103.898 10.6525C103.66 10.5835 103.415 10.549 103.162 10.549C102.848 10.549 102.583 10.6142 102.368 10.7445C102.161 10.8748 102.054 11.0857 102.046 11.377C102.046 11.6377 102.142 11.86 102.334 12.044C102.526 12.228 102.886 12.4465 103.415 12.6995C104.036 12.9985 104.469 13.2822 104.714 13.5505C104.96 13.8188 105.082 14.1562 105.082 14.5625C105.082 15.0838 104.879 15.494 104.473 15.793C104.074 16.0843 103.549 16.23 102.897 16.23C102.092 16.2453 101.445 16.092 100.954 15.77V15.5745C100.946 15.0915 101.015 14.643 101.161 14.229C101.207 14.2213 101.245 14.2175 101.276 14.2175C101.414 14.2175 101.54 14.2367 101.655 14.275Z" fill="#E6F9AF"/>
<path d="M21 15.9999V7.9999C20.9996 7.64918 20.9071 7.30471 20.7315 7.00106C20.556 6.69742 20.3037 6.44526 20 6.2699L13 2.2699C12.696 2.09437 12.3511 2.00195 12 2.00195C11.6489 2.00195 11.304 2.09437 11 2.2699L4 6.2699C3.69626 6.44526 3.44398 6.69742 3.26846 7.00106C3.09294 7.30471 3.00036 7.64918 3 7.9999V15.9999C3.00036 16.3506 3.09294 16.6951 3.26846 16.9987C3.44398 17.3024 3.69626 17.5545 4 17.7299L11 21.7299C11.304 21.9054 11.6489 21.9979 12 21.9979C12.3511 21.9979 12.696 21.9054 13 21.7299L20 17.7299C20.3037 17.5545 20.556 17.3024 20.7315 16.9987C20.9071 16.6951 20.9996 16.3506 21 15.9999Z" stroke="#E6F9AF" stroke-width="2" stroke-linecap="round" stroke-linejoin="round"/>
<path d="M12 16C14.2091 16 16 14.2091 16 12C16 9.79086 14.2091 8 12 8C9.79086 8 8 9.79086 8 12C8 14.2091 9.79086 16 12 16Z" stroke="#E6F9AF" stroke-width="2" stroke-linecap="round" stroke-linejoin="round"/>
</svg>
