<svg width="98.5" height="49" viewBox="0 0 80 25" fill="none" xmlns="http://www.w3.org/2000/svg">
<path d="M33.5645 12.09V15.4365L34.657 15.655C34.68 15.8007 34.6608 15.9348 34.5995 16.0575C33.9095 16.0192 33.3537 16 32.932 16C32.725 16 32.265 16.0192 31.552 16.0575C31.529 15.9118 31.5367 15.7777 31.575 15.655C31.966 15.586 32.2267 15.5093 32.357 15.425V8.525L31.4715 8.295C31.4485 8.14933 31.4677 8.01517 31.529 7.8925C32.219 7.93083 32.6867 7.95 32.932 7.95H37.2445C37.2522 8.04967 37.2522 8.26433 37.2445 8.594C37.2445 8.92367 37.2023 9.37983 37.118 9.9625C37.003 10.0085 36.865 10.02 36.704 9.997L36.4165 8.4675H33.5645V11.4575H35.37L35.5885 10.4455C35.7648 10.3918 35.9182 10.411 36.0485 10.503C36.0178 10.802 36.0025 11.2122 36.0025 11.7335C36.0025 12.3085 36.0178 12.7608 36.0485 13.0905C35.9105 13.1442 35.7572 13.1518 35.5885 13.1135L35.37 12.09H33.5645ZM38.6268 14.62C38.6268 14.9267 38.7073 15.1605 38.8683 15.3215C39.037 15.4825 39.2632 15.563 39.5468 15.563C39.7615 15.563 39.9877 15.4978 40.2253 15.3675C40.4707 15.2372 40.6547 15.0838 40.7773 14.9075V13.355C39.9877 13.355 39.4318 13.4508 39.1098 13.6425C38.7878 13.8265 38.6268 14.1523 38.6268 14.62ZM41.9043 12.3545V15.4365C42.0193 15.4978 42.2877 15.5745 42.7093 15.6665C42.7323 15.8122 42.7132 15.9463 42.6518 16.069C42.3682 16.1227 42.0462 16.1495 41.6858 16.1495C41.4328 16.1495 41.2143 16.1265 41.0303 16.0805L40.8693 15.4825H40.8233C40.3633 15.9578 39.7922 16.1955 39.1098 16.1955C38.6192 16.1955 38.2243 16.069 37.9253 15.816C37.6263 15.5553 37.4768 15.195 37.4768 14.735C37.4845 13.47 38.5847 12.8567 40.7773 12.895L40.7888 11.883C40.7965 10.9937 40.4592 10.5452 39.7768 10.5375C39.3705 10.5375 39.0102 10.595 38.6958 10.71L38.5463 11.929C38.393 11.9827 38.2243 11.998 38.0403 11.975C37.8793 11.3923 37.8027 10.894 37.8103 10.48C38.4467 10.1733 39.2057 10.02 40.0873 10.02C40.7467 10.0123 41.2143 10.181 41.4903 10.526C41.7663 10.871 41.9043 11.4805 41.9043 12.3545ZM45.751 16.345L43.474 10.825L42.5885 10.595C42.5655 10.4493 42.5847 10.3152 42.646 10.1925C43.2593 10.2308 43.727 10.25 44.049 10.25C44.3327 10.25 44.8272 10.2308 45.5325 10.1925C45.5555 10.3382 45.5478 10.4723 45.5095 10.595C45.1262 10.664 44.8617 10.7407 44.716 10.825L45.705 13.355C45.935 13.9453 46.096 14.4667 46.188 14.919H46.2225C46.3758 14.321 46.5023 13.8878 46.602 13.6195L47.6945 10.825L46.786 10.595C46.763 10.4493 46.7822 10.3152 46.8435 10.1925C47.3802 10.2308 47.775 10.25 48.028 10.25C48.304 10.25 48.7027 10.2308 49.224 10.1925C49.247 10.3382 49.2393 10.4723 49.201 10.595C48.7947 10.664 48.5225 10.7407 48.3845 10.825L46.2685 16.1955C46.1075 16.2798 45.935 16.3297 45.751 16.345ZM49.3378 13.125C49.3378 12.1667 49.6177 11.4077 50.1773 10.848C50.737 10.2883 51.4232 10.0123 52.2358 10.02C53.1252 10.02 53.8305 10.3152 54.3518 10.9055C54.8732 11.4958 55.1338 12.2357 55.1338 13.125C55.1338 14.0987 54.8578 14.8615 54.3058 15.4135C53.7538 15.9655 53.0638 16.2377 52.2358 16.23C51.3235 16.23 50.6105 15.9348 50.0968 15.3445C49.5908 14.7542 49.3378 14.0143 49.3378 13.125ZM53.8918 13.286C53.9072 12.5577 53.7768 11.9137 53.5008 11.354C53.2248 10.7943 52.7955 10.5145 52.2128 10.5145C51.6455 10.5145 51.2277 10.7637 50.9593 11.262C50.6987 11.7527 50.5722 12.4005 50.5798 13.2055C50.5798 13.5582 50.6105 13.8878 50.6718 14.1945C50.7408 14.5012 50.8443 14.7695 50.9823 14.9995C51.1203 15.2295 51.2928 15.4097 51.4998 15.54C51.7145 15.6703 51.9675 15.7355 52.2588 15.7355C52.7342 15.7432 53.1252 15.5515 53.4318 15.1605C53.7385 14.7695 53.8918 14.1447 53.8918 13.286ZM57.8613 12.1245V15.425L58.9768 15.655C58.9998 15.8007 58.9806 15.9348 58.9193 16.0575C58.2293 16.0192 57.685 16 57.2863 16C56.9796 16 56.512 16.0192 55.8833 16.0575C55.8603 15.9118 55.868 15.7777 55.9063 15.655C56.3356 15.563 56.604 15.4863 56.7113 15.425V10.94L55.7568 10.848C55.7338 10.6947 55.753 10.5605 55.8143 10.4455C56.4506 10.3535 56.9873 10.25 57.4243 10.135C57.5086 10.135 57.6351 10.1772 57.8038 10.2615V11.308L57.8153 11.3195C58.3826 10.4762 58.9653 10.0545 59.5633 10.0545C59.87 10.0468 60.123 10.1043 60.3223 10.227C60.3453 10.7943 60.2686 11.3693 60.0923 11.952C59.9006 11.975 59.7281 11.9597 59.5748 11.906L59.4138 10.756C58.7775 10.756 58.26 11.2122 57.8613 12.1245ZM61.2729 8.3065C61.2729 8.16083 61.3611 8.01133 61.5374 7.858C61.7138 7.70467 61.8978 7.628 62.0894 7.628C62.2811 7.628 62.4459 7.71617 62.5839 7.8925C62.7219 8.06117 62.7909 8.23367 62.7909 8.41C62.7909 8.56333 62.7028 8.71667 62.5264 8.87C62.3578 9.01567 62.1738 9.0885 61.9744 9.0885C61.7981 9.0885 61.6371 9.00417 61.4914 8.8355C61.3458 8.65917 61.2729 8.48283 61.2729 8.3065ZM62.8599 10.2615V15.425L63.6304 15.655C63.6534 15.8007 63.6343 15.9348 63.5729 16.0575C62.8829 16.0192 62.4536 16 62.2849 16C62.0549 16 61.5873 16.0192 60.8819 16.0575C60.8589 15.9118 60.8666 15.7777 60.9049 15.655C61.3343 15.5553 61.6026 15.4787 61.7099 15.425V10.94L60.7554 10.848C60.7324 10.6947 60.7516 10.5605 60.8129 10.4455C61.4493 10.3535 61.9859 10.25 62.4229 10.135C62.5533 10.1427 62.6989 10.1848 62.8599 10.2615ZM66.1954 16.184C65.7661 16.184 65.4402 16.0613 65.2179 15.816C65.0032 15.5707 64.8959 15.1758 64.8959 14.6315V10.963H64.0909C64.0142 10.8173 63.9951 10.6448 64.0334 10.4455C64.4627 10.4532 64.7617 10.3688 64.9304 10.1925C65.1067 10.0085 65.2677 9.62517 65.4134 9.0425H66.0229V10.3305H67.2304C67.3377 10.5528 67.3377 10.7637 67.2304 10.963H66.0229V14.344C66.0229 14.8577 66.0612 15.1988 66.1379 15.3675C66.2222 15.5362 66.3756 15.6167 66.5979 15.609C66.7896 15.609 67.0196 15.5323 67.2879 15.379C67.3952 15.448 67.4527 15.563 67.4604 15.724C67.3607 15.839 67.1959 15.9425 66.9659 16.0345C66.7436 16.1342 66.4867 16.184 66.1954 16.184ZM67.9692 13.125C67.9692 12.1667 68.249 11.4077 68.8087 10.848C69.3683 10.2883 70.0545 10.0123 70.8672 10.02C71.7565 10.02 72.4618 10.3152 72.9832 10.9055C73.5045 11.4958 73.7652 12.2357 73.7652 13.125C73.7652 14.0987 73.4892 14.8615 72.9372 15.4135C72.3852 15.9655 71.6952 16.2377 70.8672 16.23C69.9548 16.23 69.2418 15.9348 68.7282 15.3445C68.2222 14.7542 67.9692 14.0143 67.9692 13.125ZM72.5232 13.286C72.5385 12.5577 72.4082 11.9137 72.1322 11.354C71.8562 10.7943 71.4268 10.5145 70.8442 10.5145C70.2768 10.5145 69.859 10.7637 69.5907 11.262C69.33 11.7527 69.2035 12.4005 69.2112 13.2055C69.2112 13.5582 69.2418 13.8878 69.3032 14.1945C69.3722 14.5012 69.4757 14.7695 69.6137 14.9995C69.7517 15.2295 69.9242 15.4097 70.1312 15.54C70.3458 15.6703 70.5988 15.7355 70.8902 15.7355C71.3655 15.7432 71.7565 15.5515 72.0632 15.1605C72.3698 14.7695 72.5232 14.1447 72.5232 13.286ZM75.3312 14.275L75.4462 15.494C75.6992 15.632 76.048 15.701 76.4927 15.701C76.83 15.701 77.1137 15.6282 77.3437 15.4825C77.5813 15.3368 77.7002 15.1183 77.7002 14.827C77.7002 14.5663 77.5852 14.3402 77.3552 14.1485C77.1252 13.9492 76.7303 13.7192 76.1707 13.4585C75.6877 13.2362 75.3312 12.9832 75.1012 12.6995C74.8788 12.4158 74.7677 12.0517 74.7677 11.607C74.7677 11.0857 74.9555 10.6947 75.3312 10.434C75.7068 10.1733 76.1975 10.043 76.8032 10.043C77.3935 10.043 77.9532 10.1503 78.4822 10.365C78.4822 10.3957 78.4822 10.4378 78.4822 10.4915C78.4898 10.5452 78.4937 10.5873 78.4937 10.618C78.4937 11.0703 78.4208 11.5112 78.2752 11.9405C78.1985 11.9558 78.141 11.9635 78.1027 11.9635C77.9877 11.9635 77.8727 11.9405 77.7577 11.8945L77.5737 10.6525C77.336 10.5835 77.0907 10.549 76.8377 10.549C76.5233 10.549 76.2588 10.6142 76.0442 10.7445C75.8372 10.8748 75.7298 11.0857 75.7222 11.377C75.7222 11.6377 75.818 11.86 76.0097 12.044C76.2013 12.228 76.5617 12.4465 77.0907 12.6995C77.7117 12.9985 78.1448 13.2822 78.3902 13.5505C78.6355 13.8188 78.7582 14.1562 78.7582 14.5625C78.7582 15.0838 78.555 15.494 78.1487 15.793C77.75 16.0843 77.2248 16.23 76.5732 16.23C75.7682 16.2453 75.1203 16.092 74.6297 15.77V15.5745C74.622 15.0915 74.691 14.643 74.8367 14.229C74.8827 14.2213 74.921 14.2175 74.9517 14.2175C75.0897 14.2175 75.2162 14.2367 75.3312 14.275Z" fill="#E6F9AF"/>
<path d="M18.3 13.3889C19.641 12.01 21 10.3572 21 8.19444C21 6.81679 20.4785 5.49556 19.5502 4.52142C18.6219 3.54727 17.3628 3 16.05 3C14.466 3 13.35 3.47222 12 4.88889C10.65 3.47222 9.534 3 7.95 3C6.63718 3 5.37813 3.54727 4.44982 4.52142C3.52152 5.49556 3 6.81679 3 8.19444C3 10.3667 4.35 12.0194 5.7 13.3889L12 20L18.3 13.3889Z" stroke="#E6F9AF" stroke-width="2" stroke-linecap="round" stroke-linejoin="round"/>
</svg>
