<svg width="88" height="46" viewBox="0 0 88 46" fill="none" xmlns="http://www.w3.org/2000/svg">
<g clip-path="url(#clip0_31_64)">
<path d="M23.838 13.0615H12.7836C11.2573 13.0615 10.02 14.0303 10.02 15.2253V23.8802C10.02 25.0752 11.2573 26.0439 12.7836 26.0439H23.838C25.3642 26.0439 26.6015 25.0752 26.6015 23.8802V15.2253C26.6015 14.0303 25.3642 13.0615 23.838 13.0615Z" stroke="#0B0110" stroke-width="49.8717" stroke-linecap="round" stroke-linejoin="round"/>
<path d="M32.0183 17.3891L36.8545 13.6026C37.3672 13.1574 37.651 12.5792 37.651 11.9798C37.651 11.3804 37.3672 10.8022 36.8545 10.357L29.9456 5.03422C29.377 4.63281 28.6385 4.41064 27.8729 4.41064C27.1073 4.41064 26.3688 4.63281 25.8002 5.03422L21.0745 8.7342" stroke="#0B0110" stroke-width="49.8717" stroke-linecap="round" stroke-linejoin="round"/>
<path d="M15.5471 21.7168H15.5624" stroke="#0B0110" stroke-width="49.8717" stroke-linecap="round" stroke-linejoin="round"/>
<path d="M21.0745 17.3892H21.0898" stroke="#0B0110" stroke-width="49.8717" stroke-linecap="round" stroke-linejoin="round"/>
<path d="M27.9834 8.73438H27.9987" stroke="#0B0110" stroke-width="49.8717" stroke-linecap="round" stroke-linejoin="round"/>
<path d="M32.1287 11.98H32.144" stroke="#0B0110" stroke-width="49.8717" stroke-linecap="round" stroke-linejoin="round"/>
<path d="M22.3785 9.22055L17.9832 12.6314L13.5034 12.5444L14.2303 12.4574L14.5515 12.3269L21.3473 7.01465L22.3785 9.22055Z" fill="#0B0110"/>
<path d="M17.8374 9.74561L2.99097 21.3225L4.7601 23.0057L11.4063 17.792L10.9521 13.2351L16.9289 12.8451L17.8374 9.74561Z" fill="url(#paint0_linear_31_64)"/>
<path d="M5.16644 22.1641C5.16644 22.4681 5.02994 22.7597 4.78682 22.9752C4.54369 23.1906 4.21374 23.3123 3.86917 23.3136C3.52459 23.3149 3.19345 23.1958 2.94821 22.9822C2.70297 22.7687 2.5636 22.4781 2.5606 22.1741C2.5576 21.8702 2.69121 21.5775 2.9322 21.3602C3.17319 21.1429 3.50193 21.0187 3.84648 21.0147C4.19103 21.0108 4.52333 21.1274 4.77067 21.339C5.01801 21.5507 5.16024 21.8402 5.16624 22.1441" fill="url(#paint1_linear_31_64)"/>
<path d="M28.3005 26.0084C28.3005 26.3124 28.164 26.604 27.9209 26.8194C27.6777 27.0348 27.3478 27.1565 27.0032 27.1578C26.6586 27.1592 26.3275 27.04 26.0822 26.8265C25.837 26.6129 25.6976 26.3224 25.6946 26.0184C25.6916 25.7144 25.8252 25.4217 26.0662 25.2045C26.3072 24.9872 26.636 24.863 26.9805 24.859C27.3251 24.855 27.6574 24.9716 27.9047 25.1833C28.152 25.3949 28.2943 25.6844 28.3003 25.9884" fill="#E6F9AF"/>
<path d="M35.2094 37.3091C35.2094 37.6131 35.0729 37.9048 34.8298 38.1202C34.5867 38.3356 34.2567 38.4573 33.9121 38.4586C33.5676 38.4599 33.2364 38.3408 32.9912 38.1272C32.7459 37.9137 32.6066 37.6231 32.6036 37.3192C32.6006 37.0152 32.7342 36.7225 32.9752 36.5052C33.2162 36.288 33.5449 36.1637 33.8894 36.1598C34.234 36.1558 34.5663 36.2724 34.8136 36.4841C35.061 36.6957 35.2032 36.9852 35.2092 37.2891" fill="url(#paint2_linear_31_64)"/>
<path d="M11.2263 38.1192C11.2263 38.4232 11.0898 38.7148 10.8466 38.9302C10.6035 39.1457 10.2736 39.2674 9.92898 39.2687C9.5844 39.27 9.25326 39.1508 9.00802 38.9373C8.76278 38.7238 8.62341 38.4332 8.62041 38.1292C8.61741 37.8252 8.75102 37.5326 8.99201 37.3153C9.233 37.098 9.56174 36.9738 9.90629 36.9698C10.2508 36.9659 10.5831 37.0825 10.8305 37.2941C11.0778 37.5058 11.2201 37.7952 11.2261 38.0992" fill="url(#paint3_linear_31_64)"/>
<path d="M11.2551 38.1621L11.4241 23.4155L8.61792 23.2412L8.65169 38.1039L11.2551 38.1621Z" fill="#E6F9AF"/>
<path d="M35.125 36.8848L28.1264 25.4185L25.9287 26.6957L32.7921 37.9008L35.125 36.8848Z" fill="#E6F9AF"/>
<path d="M11.4608 26.9185C11.5481 26.945 11.7228 26.9982 11.9088 27.0359C12.0947 27.0733 12.2919 27.0952 12.4483 27.1049C12.6047 27.1146 12.7202 27.1122 12.7906 26.7553C12.8611 26.3985 12.8864 25.6873 12.8988 25.3293C12.9109 24.9712 12.9104 24.9663 12.8747 24.9643C12.839 24.9623 12.7682 24.9631 12.6919 24.9595C12.6157 24.9546 12.5341 24.9473 12.4445 24.9291C12.3548 24.9121 12.2572 24.8837 12.1606 24.8462C12.064 24.8086 11.9683 24.7607 11.8856 24.7065C11.803 24.652 11.7332 24.5913 11.6575 24.5113C11.5818 24.4314 11.5 24.332 11.4548 24.1961C11.4095 24.0602 11.4005 23.8874 11.3676 23.9922C11.3348 24.0969 11.278 24.4792 11.2426 24.7038C11.2072 24.9283 11.1933 24.995 11.1629 25.214C11.1325 25.4329 11.0857 25.8041 11.0857 26.0804C11.0857 26.3566 11.1325 26.538 11.1445 26.6706C11.1563 26.8033 11.1334 26.8871 11.166 26.9158C11.1984 26.9447 11.286 26.9182 11.3299 26.9061C11.3737 26.8939 11.3734 26.8918 11.4608 26.9185Z" fill="#E6F9AF"/>
<path d="M12.3812 27.1078C12.2792 27.0982 12.0752 27.0779 11.8831 27.0467C11.691 27.0155 11.511 26.973 11.3923 26.9401C11.2735 26.9073 11.2169 26.8841 11.182 26.8592C11.1471 26.8343 11.1343 26.8077 11.1421 26.786C11.1499 26.7643 11.1783 26.7476 11.2307 26.7297C11.2831 26.7128 11.3594 26.6927 11.4306 26.6867C11.5017 26.6819 11.5679 26.688 11.6352 26.7012C11.7024 26.7133 11.7701 26.7321 11.8423 26.7626C11.9144 26.793 11.9907 26.8353 12.0701 26.8708C12.1496 26.9061 12.2323 26.9343 12.2931 26.9602C12.354 26.986 12.3922 27.0092 12.4202 27.0349C12.4481 27.0605 12.4656 27.089 12.4744 27.103C12.4832 27.1175 12.4832 27.1175 12.3812 27.1078Z" fill="#E6F9AF"/>
<path d="M16.893 21.7058C16.893 22.0121 16.7517 22.3058 16.5 22.5229C16.2483 22.7399 15.9068 22.8625 15.5501 22.8638C15.1934 22.8651 14.8507 22.7451 14.5968 22.53C14.343 22.3148 14.1987 22.0221 14.1956 21.7159C14.1925 21.4097 14.3308 21.1149 14.5803 20.896C14.8297 20.6771 15.17 20.5519 15.5266 20.548C15.8833 20.544 16.2273 20.6614 16.4833 20.8746C16.7393 21.0879 16.8865 21.3795 16.8927 21.6857" fill="#E6F9AF"/>
<path d="M22.441 17.4285C22.441 17.7347 22.2998 18.0285 22.0481 18.2455C21.7964 18.4625 21.4549 18.5851 21.0982 18.5864C20.7415 18.5878 20.3988 18.4677 20.1449 18.2526C19.8911 18.0375 19.7468 17.7448 19.7437 17.4386C19.7406 17.1323 19.8789 16.8375 20.1284 16.6186C20.3778 16.3997 20.7181 16.2746 21.0747 16.2706C21.4314 16.2666 21.7754 16.3841 22.0314 16.5973C22.2874 16.8105 22.4346 17.1021 22.4408 17.4083" fill="#E6F9AF"/>
<path d="M29.3012 8.72487C29.3012 9.03111 29.1599 9.32488 28.9082 9.54189C28.6565 9.75891 28.315 9.8815 27.9583 9.88283C27.6017 9.88416 27.2589 9.76413 27.005 9.54901C26.7512 9.33388 26.6069 9.04118 26.6038 8.73495C26.6007 8.42872 26.739 8.13391 26.9885 7.91502C27.2379 7.69613 27.5782 7.57099 27.9348 7.56699C28.2915 7.56299 28.6355 7.68046 28.8915 7.89368C29.1475 8.1069 29.2947 8.39851 29.3009 8.7047" fill="#E6F9AF"/>
<path d="M33.5092 11.968C33.5092 12.2743 33.3679 12.568 33.1162 12.7851C32.8645 13.0021 32.523 13.1247 32.1663 13.126C31.8097 13.1273 31.4669 13.0073 31.213 12.7922C30.9592 12.577 30.8149 12.2843 30.8118 11.9781C30.8087 11.6719 30.947 11.3771 31.1965 11.1582C31.4459 10.9393 31.7862 10.8142 32.1428 10.8102C32.4995 10.8062 32.8435 10.9236 33.0995 11.1368C33.3555 11.3501 33.5027 11.6417 33.509 11.9479" fill="#E6F9AF"/>
<path d="M33.3256 17.414C33.3256 17.7055 33.1852 17.985 32.9351 18.1915C32.685 18.3981 32.3455 18.5147 31.991 18.516C31.6365 18.5173 31.2959 18.403 31.0436 18.1983C30.7913 17.9936 30.6479 17.715 30.6448 17.4236C30.6417 17.1322 30.7792 16.8516 31.0271 16.6433C31.275 16.435 31.6132 16.3159 31.9677 16.3121C32.3222 16.3083 32.664 16.4201 32.9185 16.623C33.1729 16.8259 33.3192 17.1034 33.3254 17.3948" fill="url(#paint4_linear_31_64)"/>
<path d="M25.9723 26.7084C25.9323 26.7084 25.8689 26.6581 25.8772 26.633C25.8854 26.608 25.9655 26.608 25.9972 26.6331C26.0289 26.6581 26.0125 26.7084 25.9723 26.7084Z" fill="#E6F9AF"/>
<path d="M23.7489 27.1204L23.9449 27.1229L24.3545 27.101L24.7231 27.0482L25.0068 26.9955L25.276 26.9253L25.4427 26.875L25.5656 26.8322L25.6855 26.787L25.8757 26.7117L25.9342 26.6839L25.7586 26.3951L25.3023 26.355L24.4042 26.3574L24.1263 26.571C24.1263 26.571 23.8513 26.7921 23.8396 26.7921C23.828 26.7921 23.6904 26.9202 23.6758 26.9353C23.661 26.9499 23.6905 27.0709 23.6905 27.0709L23.7489 27.1204Z" fill="#E6F9AF"/>
<path d="M23.7764 24.9606C23.8183 24.9606 23.9021 24.9606 23.9891 24.9533C24.076 24.946 24.1654 24.9339 24.2443 24.9154C24.3231 24.8984 24.3917 24.8748 24.4638 24.8454C24.536 24.816 24.6121 24.78 24.6949 24.7312C24.7778 24.6823 24.8675 24.6204 24.9421 24.5399C25.0167 24.4595 25.0762 24.3608 25.124 24.2623C25.1717 24.1639 25.2078 24.066 25.2181 23.9425C25.2283 23.8191 25.2127 23.67 25.2328 23.5959C25.2529 23.5217 25.3084 23.5225 25.3757 23.5402C25.4429 23.5572 25.5218 23.592 25.6097 23.6624C25.6975 23.7329 25.794 23.8391 25.8661 23.9521C25.9383 24.0651 25.986 24.1847 26.006 24.3342C26.0261 24.4837 26.0182 24.6629 25.9772 24.817C25.9362 24.9711 25.8621 25.1 25.7564 25.2184C25.6506 25.3367 25.513 25.4449 25.3867 25.5127C25.2605 25.5805 25.1454 25.6082 25.0548 25.6281C24.9642 25.6476 24.8977 25.661 24.7938 25.6651C24.69 25.67 24.5487 25.6653 24.4259 25.6529C24.3031 25.6408 24.1986 25.6209 24.1269 25.5978C24.0552 25.5759 24.0163 25.5489 23.9821 25.5171C23.9479 25.4852 23.9187 25.4476 23.8899 25.415C23.8611 25.3822 23.8329 25.3547 23.8056 25.3212C23.7782 25.2877 23.752 25.2483 23.735 25.2225C23.718 25.1968 23.7098 25.1837 23.7045 25.1679C23.6992 25.1508 23.6963 25.1326 23.6915 25.1093C23.6867 25.085 23.6799 25.0585 23.6697 25.0371C23.6595 25.0153 23.6457 25.0004 23.6465 24.9914C23.6474 24.9817 23.6635 24.9793 23.6804 24.9744C23.6974 24.9696 23.7159 24.9647 23.7252 24.9623C23.7345 24.9598 23.7345 24.9574 23.7765 24.9574L23.7764 24.9606Z" fill="#E6F9AF"/>
<path d="M27.6991 25.0482C27.7073 25.0311 27.724 24.9949 27.7481 24.9429C27.7721 24.8909 27.8039 24.8226 27.8388 24.7172C27.8738 24.6117 27.9118 24.4695 27.9342 24.3648C27.9566 24.26 27.9634 24.1932 27.9692 24.1359C27.9752 24.0785 27.98 24.0306 27.982 23.9813C27.9839 23.932 27.9829 23.8809 27.9818 23.8255C27.9808 23.7701 27.9798 23.7108 27.8959 23.6887C27.812 23.6668 27.6452 23.6814 27.5409 23.6903C27.4366 23.7 27.3946 23.7024 27.3371 23.716C27.2796 23.7306 27.2065 23.7573 27.1661 23.7819C27.1257 23.8062 27.1176 23.8295 27.1054 23.8742C27.0932 23.9192 27.0767 23.986 27.0523 24.0526C27.0279 24.1192 26.9957 24.1853 26.9743 24.2432C26.9528 24.3008 26.9421 24.3501 26.9255 24.4174C26.9088 24.4845 26.8865 24.569 26.8636 24.6616C26.8406 24.7542 26.8173 24.8546 26.8056 24.9072C26.794 24.9599 26.794 24.9624 26.7926 24.9794C26.7911 24.9964 26.7883 25.0258 26.7889 25.0443C26.7897 25.0637 26.7951 25.072 26.819 25.087C26.8428 25.1016 26.8857 25.1237 26.9238 25.1393C26.9619 25.1539 26.9952 25.1641 27.0307 25.1699C27.0661 25.1748 27.1041 25.1772 27.1397 25.1796C27.1753 25.1821 27.2084 25.1845 27.2406 25.1845C27.2728 25.1857 27.304 25.1857 27.3309 25.1837C27.3578 25.1816 27.3799 25.1788 27.4034 25.174C27.4269 25.1691 27.4512 25.1642 27.4691 25.1618C27.4869 25.1569 27.4994 25.1545 27.5109 25.1521C27.5225 25.1496 27.5344 25.1472 27.5453 25.1424C27.5563 25.1375 27.5679 25.1326 27.5916 25.1205C27.6153 25.1083 27.6531 25.0877 27.6719 25.0775C27.6906 25.0677 27.6909 25.0647 27.6991 25.0482Z" fill="#E6F9AF"/>
<path d="M11.4086 17.3268C11.4059 16.8763 11.4004 15.9754 11.3998 15.5273C11.3991 15.0793 11.4029 15.0843 11.4097 15.0687C11.4165 15.0541 11.4262 15.0172 11.4346 14.9895C11.4429 14.9618 11.4496 14.9426 11.4584 14.9198C11.4672 14.8979 11.478 14.8699 11.4906 14.8415C11.5033 14.8131 11.518 14.7829 11.5359 14.7545C11.554 14.7261 11.5753 14.6993 11.6003 14.6675C11.6252 14.6357 11.6534 14.599 11.6793 14.5696C11.7053 14.5402 11.7284 14.5185 11.7555 14.4957C11.7827 14.4738 11.8123 14.4498 11.8429 14.4281C11.8734 14.4063 11.9049 14.3863 11.9552 14.3586C12.0054 14.3309 12.0746 14.2959 12.1419 14.2675C12.2092 14.2391 12.2745 14.2172 12.3394 14.2004C12.4043 14.1834 12.4688 14.172 12.5248 14.1635C12.5807 14.1562 12.6285 14.1513 12.6773 14.1465C12.726 14.144 12.7757 14.1416 12.842 14.1416C12.9083 14.1412 12.9912 14.142 13.0975 14.1424C13.2038 14.1428 13.3335 14.1428 13.4174 14.1118C13.5012 14.0809 13.5392 14.019 13.5358 13.9752C13.5324 13.9317 13.4875 13.9067 13.4246 13.887C13.3617 13.8675 13.2809 13.8532 13.2204 13.8459C13.1599 13.8386 13.12 13.8386 13.0771 13.8386C13.0341 13.8382 12.9883 13.8374 12.9459 13.8382C12.9035 13.839 12.8645 13.8407 12.8294 13.8431C12.7943 13.8447 12.7631 13.8455 12.629 13.8577C12.4949 13.8698 12.2579 13.8958 12.1004 13.9238C11.9429 13.9517 11.8649 13.9828 11.7611 14.0555C11.6573 14.1284 11.5276 14.2431 11.3843 14.3619C11.241 14.4807 11.0839 14.6039 11.0069 14.7349C10.9298 14.8659 10.9328 15.0049 10.9249 15.1372C10.917 15.2694 10.8986 15.395 10.8762 15.5859C10.8538 15.7769 10.8274 16.033 10.8167 16.308C10.806 16.5831 10.8108 16.8769 10.8006 17.1059C10.7904 17.3348 10.765 17.499 10.7363 17.7066C10.7075 17.9142 10.6753 18.1654 10.6646 18.3643C10.6539 18.563 10.6646 18.7096 10.7436 18.6091C10.8226 18.5088 10.9699 18.1612 11.0925 17.9813C11.2151 17.8014 11.3132 17.7888 11.3622 17.7827C11.4112 17.7754 11.4113 17.7781 11.4086 17.3268Z" fill="#E6F9AF"/>
<path d="M8.64526 15.6194C8.65121 15.401 8.65686 15.1824 8.66564 15.0208C8.67441 14.8592 8.68602 14.7546 8.71345 14.6357C8.7409 14.5169 8.78364 14.3837 8.82706 14.2694C8.87048 14.1552 8.91438 14.0597 8.96406 13.9684C9.01376 13.8773 9.06929 13.7903 9.13122 13.7002C9.19315 13.6103 9.26148 13.5172 9.33559 13.4284C9.40969 13.3397 9.48965 13.2551 9.57448 13.1743C9.65931 13.0934 9.74904 13.0163 9.85821 12.9323C9.96741 12.8482 10.0962 12.7568 10.2205 12.6794C10.3449 12.6019 10.4648 12.5384 10.5731 12.484C10.6813 12.4296 10.7778 12.3844 10.8889 12.3401C11.0001 12.2957 11.1259 12.2522 11.2419 12.2155C11.358 12.1788 11.4643 12.1486 11.5657 12.1238C11.6672 12.0991 11.7636 12.0799 11.869 12.0619C11.9743 12.0449 12.0883 12.0271 12.2136 12.0137C12.3389 11.9992 12.4754 11.9895 12.6246 11.9853C12.7739 11.9805 12.9357 11.9805 13.062 11.9805C13.1883 11.9809 13.279 11.9817 13.3255 11.9853C13.372 11.9878 13.3733 11.9902 13.3745 11.995C13.3756 11.9999 13.3756 12.0023 13.3756 12.0096C13.3756 12.0169 13.3756 12.0291 13.3756 12.0412" fill="#E6F9AF"/>
<path d="M25.2182 15.4685C25.2187 15.4384 25.2197 15.3781 25.2213 15.33C25.2228 15.2819 25.2247 15.2459 25.2228 15.2043C25.2209 15.1628 25.2152 15.1159 25.2019 15.0561C25.1886 14.9961 25.1682 14.9232 25.1385 14.8568C25.1088 14.7902 25.0698 14.73 25.0448 14.694C25.0199 14.6578 25.0088 14.6459 24.9866 14.6213C24.9646 14.5968 24.9303 14.5591 24.8937 14.5258C24.8571 14.4923 24.8182 14.4631 24.7714 14.4296C24.7246 14.3961 24.67 14.3584 24.6205 14.3302C24.571 14.302 24.5275 14.2838 24.4847 14.2673C24.442 14.2503 24.3998 14.2354 24.3555 14.2216C24.3113 14.207 24.2644 14.1951 24.2123 14.1834C24.1602 14.1713 24.1024 14.1615 24.0541 14.1543C24.0059 14.147 23.9669 14.1445 23.921 14.1445C23.8752 14.1429 23.8225 14.1421 23.7631 14.1421C23.7036 14.1417 23.6373 14.1417 23.5758 14.1417C23.5144 14.1417 23.4578 14.1417 23.4154 14.1425C23.373 14.1433 23.3448 14.1449 23.3301 14.1376C23.3154 14.1304 23.3142 14.1182 23.3196 14.0941C23.325 14.0723 23.3366 14.0392 23.3566 14.0091C23.3767 13.9789 23.4049 13.9505 23.3893 13.8258C23.3737 13.7012 23.3142 13.48 23.3279 13.156C23.3414 12.832 23.4283 12.405 23.4747 12.1919C23.521 11.9788 23.5268 11.9795 23.5385 11.98C23.5501 11.9804 23.5678 11.9804 23.5877 11.9804C23.6075 11.9804 23.6302 11.9804 23.6667 11.9804C23.7033 11.9804 23.754 11.9804 23.8115 11.9804C23.869 11.9804 23.9334 11.9804 24.0294 11.9853C24.1254 11.9902 24.2533 11.9974 24.3971 12.0142C24.5409 12.0312 24.7008 12.0548 24.8383 12.0803C24.9758 12.1058 25.0908 12.1326 25.2142 12.1673C25.3376 12.2021 25.4692 12.2448 25.5755 12.282C25.6818 12.3192 25.7627 12.3511 25.8466 12.387C25.9304 12.423 26.0173 12.4633 26.1108 12.5117C26.2044 12.5603 26.305 12.6172 26.384 12.665C26.463 12.7127 26.5205 12.7513 26.5809 12.7933C26.6413 12.8356 26.7048 12.8816 26.7731 12.9353C26.8413 12.9887 26.9144 13.05 26.9909 13.1207C27.0675 13.1914 27.1474 13.2719 27.2138 13.3438C27.2801 13.4157 27.3328 13.4794 27.3854 13.5479C27.438 13.6165 27.4906 13.6901 27.534 13.7559C27.5775 13.8218 27.6115 13.8794 27.6471 13.9467C27.6828 14.014 27.7198 14.0911 27.7564 14.1766C27.7929 14.2622 27.829 14.356 27.8544 14.4299C27.8798 14.504 27.8943 14.5585 27.9109 14.6379C27.9276 14.7174 27.946 14.8219 27.9572 14.8941C27.9685 14.966 27.9722 15.0056 27.9753 15.0946C27.9781 15.1838 27.9801 15.3227 27.9818 15.4658C27.9833 15.609 27.9843 15.7564 27.9843 15.8891C27.9843 16.0218 27.9833 16.1397 27.9253 16.203C27.8673 16.2662 27.7521 16.2747 27.4537 16.2807C27.1553 16.288 26.6737 16.2905 26.2704 16.1602C25.8672 16.0295 25.5425 15.7641 25.3801 15.6314C25.2178 15.4987 25.2177 15.4987 25.2182 15.4685Z" fill="#E6F9AF"/>
<path d="M27.9804 15.6033V23.805L26.6814 25.5881L25.7878 26.5578L23.7978 27.1226L12.4833 27.1178L12.3751 27.05L11.398 26.6933L9.26833 23.7596L8.6189 23.2447L8.63927 19.962L11.4096 17.7115L11.4212 23.418L10.9736 24.272L11.5236 25.1888L12.6323 25.0959L12.8693 24.9603L23.7341 24.9579L24.7288 24.998L25.8287 24.7368L25.2202 23.8201V15.4536L27.9804 15.6033Z" fill="url(#paint5_linear_31_64)"/>
<path d="M8.64233 15.5817L8.64828 16.9631L11.1992 15.0341L11.0354 13.6226L10.2221 14.0144L8.64233 15.5817Z" fill="#E6F9AF"/>
<path d="M13.1183 14.1397L23.439 14.1349L23.556 13.3562L23.5501 11.9849L18.5243 11.9897L13.3288 11.9946L11.1289 12.924L11.6379 13.9839L13.1183 14.1397Z" fill="#E6F9AF"/>
<path d="M22.4441 9.16168L18.723 12.0401L16.9971 12.1356L17.038 10.5884L17.822 9.74947L21.3325 7.01172L22.4441 9.16168Z" fill="url(#paint6_linear_31_64)"/>
<path d="M24.6626 4.39002C24.7221 4.3453 24.841 4.25564 24.9473 4.18273C25.0536 4.10982 25.1472 4.05368 25.2579 3.99268C25.3685 3.93169 25.4963 3.86558 25.6231 3.80726C25.7498 3.74917 25.8757 3.69888 26 3.6544C26.1243 3.60993 26.2471 3.57153 26.3592 3.53969C26.4714 3.50786 26.5729 3.48282 26.6698 3.46143C26.7667 3.43956 26.8596 3.42255 26.9512 3.40651C27.0429 3.3895 27.1335 3.37639 27.2373 3.36424C27.3412 3.35209 27.4581 3.34235 27.5893 3.33652C27.7205 3.33166 27.8658 3.32924 28.0063 3.33452C28.1467 3.33938 28.2823 3.34908 28.4041 3.35881C28.5259 3.36853 28.6343 3.38312 28.7415 3.39819C28.8488 3.4152 28.955 3.43342 29.0662 3.45772C29.1774 3.48202 29.2934 3.51143 29.3883 3.53719C29.4833 3.56319 29.5577 3.58579 29.6333 3.6118C29.7088 3.6378 29.7858 3.66697 29.853 3.69297C29.9201 3.71897 29.978 3.74157 30.0589 3.77754C30.1398 3.8135 30.2441 3.86283 30.3436 3.91435C30.4431 3.96587 30.5377 4.01934 30.6689 4.1061C30.8001 4.19286 30.9677 4.31243 31.1018 4.41205C31.2358 4.51168 31.3364 4.59139 31.4071 4.64583C31.4778 4.70027 31.5186 4.72942 31.5261 4.75372C31.5335 4.77802 31.5088 4.79576 31.4733 4.82176C31.4377 4.84777 31.3918 4.88106 31.3353 4.90998C31.2788 4.9389 31.2115 4.96321 31.0988 4.98582C30.9861 5.00769 30.8283 5.02931 30.5621 5.03927C30.2959 5.04899 29.9214 5.049 29.6621 5.07185C29.4027 5.09615 29.2583 5.14304 29.076 5.18144C28.8936 5.22008 28.6733 5.24924 28.5027 5.26552C28.332 5.28254 28.211 5.28496 28.0726 5.27038C27.9342 5.2558 27.7781 5.22688 27.6295 5.21595C27.4808 5.20623 27.3393 5.21353 27.0999 5.26213C26.8605 5.31074 26.5232 5.39943 26.3218 5.46771C26.1205 5.536 26.055 5.58365 25.9424 5.67721C25.8298 5.77053 25.6699 5.90952 25.5075 5.90782C25.3451 5.90612 25.1804 5.76395 25.0565 5.65121C24.9327 5.5387 24.8498 5.45584 24.7606 5.30835C24.6713 5.16108 24.5758 4.94921 24.5256 4.82238C24.4753 4.69552 24.4705 4.65371 24.4841 4.63281C24.4977 4.61094 24.5299 4.61095 24.5479 4.59977C24.566 4.58762 24.5697 4.56331 24.5686 4.54144C24.5672 4.51957 24.5603 4.49892 24.5649 4.48143C24.5697 4.46441 24.5864 4.44861 24.5948 4.44108C24.603 4.43379 24.6032 4.43498 24.6626 4.39002Z" fill="#E6F9AF"/>
<path d="M26.3622 6.11936C26.4392 6.05861 26.5934 5.93735 26.7036 5.8573C26.8138 5.77735 26.8801 5.73894 26.9698 5.69739C27.0595 5.65607 27.1726 5.6116 27.2798 5.57928C27.3869 5.54696 27.4885 5.52704 27.5651 5.51489C27.6417 5.50274 27.6932 5.49787 27.7469 5.49544C27.8006 5.49301 27.8561 5.49058 27.9049 5.49058C27.9537 5.49019 27.9955 5.49179 28.0409 5.49544C28.0862 5.5003 28.135 5.5076 28.1824 5.51489C28.2298 5.52218 28.2758 5.52947 28.3307 5.53992C28.3857 5.55207 28.45 5.56835 28.5077 5.58584C28.5655 5.60285 28.6158 5.62182 28.6738 5.64636C28.7318 5.67091 28.7972 5.70201 28.8615 5.73701C28.9258 5.77225 28.9892 5.8116 29.025 5.83615C29.0608 5.86094 29.0702 5.8726 29.0912 5.8901C29.1121 5.90711 29.1452 5.93191 29.1828 5.90955C29.2203 5.88525 29.2622 5.815 29.2617 5.74793C29.2612 5.68086 29.2183 5.61816 29.0877 5.53189C28.9571 5.44562 28.7386 5.33601 28.5718 5.25854C28.4051 5.18102 28.2901 5.13581 28.1541 5.10203C28.0181 5.06825 27.861 5.04541 27.5763 5.04541C27.2916 5.04541 26.879 5.06728 26.6333 5.10228C26.3875 5.13654 26.3085 5.18248 26.2242 5.25539C26.1399 5.32829 26.0502 5.42793 25.9273 5.5622C25.8044 5.69659 25.6484 5.86568 25.5543 5.99254C25.4602 6.1194 25.428 6.20397 25.41 6.28217C25.3919 6.36042 25.3882 6.43259 25.4253 6.46005C25.4624 6.48751 25.5404 6.46979 25.6256 6.41316C25.7109 6.35532 25.8036 6.25665 25.9006 6.18715C25.9976 6.11764 26.0992 6.07754 26.1459 6.08508C26.1927 6.09237 26.1848 6.14803 26.1864 6.17039C26.188 6.19226 26.2006 6.1801 26.2062 6.18253C26.2119 6.18445 26.2119 6.19955 26.2161 6.20441C26.2201 6.20684 26.2297 6.19954 26.2416 6.19225C26.2535 6.18739 26.2696 6.18253 26.2774 6.18253C26.285 6.18093 26.2853 6.1799 26.3622 6.11936Z" fill="#E6F9AF"/>
<path d="M35.5831 13.0653C35.6191 13.0376 35.6914 12.9824 35.7445 12.9408C35.7977 12.8993 35.8317 12.8718 35.8679 12.8388C35.904 12.8057 35.942 12.7673 35.9737 12.7326C36.0053 12.6978 36.0307 12.667 36.0575 12.6288C36.0844 12.5907 36.1126 12.5455 36.1369 12.4995C36.1613 12.4534 36.1818 12.4064 36.1993 12.3583C36.2169 12.3102 36.2315 12.2609 36.2432 12.2013C36.2548 12.1418 36.2636 12.0723 36.2681 12.0057C36.2726 11.9391 36.2726 11.8755 36.2574 11.8011C36.2424 11.7265 36.212 11.6409 36.1857 11.5741C36.1593 11.507 36.1369 11.4584 36.1081 11.4113C36.0794 11.3641 36.0444 11.318 36.0161 11.2815C35.9878 11.245 35.9664 11.2183 35.9298 11.1821C35.8932 11.1462 35.8415 11.1009 35.7776 11.0482C35.7138 10.9955 35.6377 10.9352 35.5309 10.8531C35.4242 10.7709 35.2867 10.6671 35.2069 10.6058C35.1271 10.5443 35.1061 10.5266 35.096 10.5125C35.0859 10.4979 35.087 10.4882 35.089 10.476C35.0909 10.4639 35.0938 10.4469 35.1048 10.4286C35.1159 10.4092 35.1357 10.39 35.1741 10.3737C35.2126 10.3567 35.2703 10.3448 35.32 10.3543C35.3698 10.364 35.4117 10.3944 35.5038 10.3028C35.5959 10.2111 35.7383 9.99673 36.0015 9.93857C36.2646 9.88049 36.6486 9.97844 36.831 9.9014C37.0133 9.82436 36.994 9.5721 37.0297 9.41635C37.0654 9.26057 37.1561 9.20127 37.2038 9.1732C37.2516 9.14525 37.257 9.14866 37.2657 9.1562C37.2745 9.16349 37.2889 9.1732 37.3078 9.18924C37.3264 9.20382 37.3494 9.22205 37.4258 9.27916C37.5022 9.33652 37.7617 9.52908 37.7851 9.54916C37.8086 9.5686 37.8554 9.60943 37.9022 9.65122C37.949 9.69302 37.9958 9.73652 38.0406 9.78123C38.0854 9.82595 38.1284 9.87213 38.1786 9.9273C38.2288 9.98247 38.2863 10.0469 38.3458 10.122C38.4053 10.1968 38.4668 10.2823 38.5131 10.3501C38.5594 10.4179 38.5906 10.468 38.6223 10.5217C38.654 10.5752 38.6861 10.6321 38.71 10.676C38.7338 10.72 38.7496 10.7511 38.773 10.8048C38.7965 10.8583 38.8276 10.9344 38.8558 11.0121C38.8842 11.0899 38.9095 11.1696 38.9266 11.2282C38.9435 11.2868 38.9523 11.3244 38.9612 11.3616C38.97 11.3988 38.9787 11.4357 38.9855 11.4683C38.9923 11.5011 38.9974 11.5293 39.0017 11.5565C39.0062 11.5837 39.0099 11.6095 39.0124 11.6323C39.0149 11.6542 39.0158 11.6744 39.0189 11.7208C39.0218 11.7672 39.0268 11.8408 39.0291 11.9125C39.0316 11.9842 39.0316 12.0537 39.0267 12.1308C39.0219 12.2078 39.012 12.2924 38.9979 12.3802C38.9837 12.4679 38.9652 12.5595 38.9433 12.6494C38.9215 12.7394 38.896 12.8281 38.8717 12.901C38.8473 12.9739 38.8239 13.0308 38.7927 13.1007C38.7615 13.1707 38.7225 13.2536 38.6718 13.3452C38.6211 13.4368 38.5586 13.5374 38.5074 13.6157C38.4562 13.694 38.4162 13.7501 38.3777 13.8002C38.3393 13.8502 38.3022 13.8947 38.2695 13.9312C38.2368 13.9676 38.2086 13.9961 38.1769 14.0298C38.1452 14.0636 38.1101 14.103 38.0701 14.1445C38.0301 14.1861 37.9853 14.2296 37.9278 14.2797C37.8702 14.33 37.8 14.3868 37.6635 14.4928C37.527 14.5987 37.3242 14.7536 37.2052 14.8478C37.0862 14.9421 37.0511 14.9754 36.9048 14.9423C36.7586 14.9093 36.5011 14.8096 36.3544 14.7297C36.2076 14.6497 36.1715 14.5895 36.1208 14.5418C36.0701 14.4942 36.0049 14.459 35.9049 14.397C35.8049 14.335 35.6704 14.2463 35.6294 14.1148C35.5885 13.9833 35.6411 13.8092 35.7074 13.6761C35.7737 13.5429 35.8537 13.4508 35.8254 13.3806C35.7971 13.3103 35.6605 13.2617 35.5913 13.2289C35.5221 13.1961 35.5201 13.1796 35.5279 13.1713C35.5355 13.164 35.5534 13.164 35.5551 13.1592C35.5568 13.1568 35.5437 13.1495 35.5398 13.1373C35.5358 13.1252 35.5415 13.1089 35.5446 13.1006C35.5474 13.0933 35.547 13.0935 35.5831 13.0653Z" fill="#E6F9AF"/>
<path d="M31.0039 16.6567L35.5441 13.1001L37.2467 14.8231L32.9464 18.1888L31.0039 16.6567Z" fill="url(#paint7_linear_31_64)"/>
<path d="M31.5053 4.71973L37.3551 9.22375L36.5525 10.5664L35.179 10.5737L29.1057 5.89207L28.3528 5.21717L28.5845 5.01109L30.0076 5.07501" fill="#E6F9AF"/>
<path d="M29.6611 4.9645L29.6875 5.1453L30.1292 5.21311L30.3779 5.11007L30.1351 4.78857L29.7489 4.7983L29.667 4.98421L29.6611 4.9645Z" fill="#E6F9AF"/>
<path d="M26.3264 6.1478L21.8915 9.59636L21.2684 9.00861L20.9905 7.73771L21.3181 7.01686L24.6297 4.4248L26.0953 5.37672L26.1245 5.75097L26.3264 6.1478Z" fill="#E6F9AF"/>
</g>
<path d="M41.5273 28.2422C42.3477 28.2422 43.1016 28.3711 43.7891 28.6289C44.4766 28.8867 45.0664 29.2578 45.5586 29.7422C46.0586 30.2266 46.4453 30.8125 46.7188 31.5C46.9922 32.1875 47.1289 32.9414 47.1289 33.7617C47.1289 34.5508 46.9922 35.2891 46.7188 35.9766C46.4453 36.6562 46.0625 37.2383 45.5703 37.7227C45.0781 38.207 44.4883 38.582 43.8008 38.8477C43.1133 39.1133 42.3555 39.2461 41.5273 39.2461C40.6992 39.2461 39.9414 39.1172 39.2539 38.8594C38.5742 38.5938 37.9883 38.2188 37.4961 37.7344C37.0039 37.2422 36.6211 36.6562 36.3477 35.9766C36.082 35.2891 35.9492 34.5508 35.9492 33.7617C35.9492 32.9414 36.0859 32.1914 36.3594 31.5117C36.6328 30.8242 37.0156 30.2383 37.5078 29.7539C38 29.2617 38.5859 28.8867 39.2656 28.6289C39.9531 28.3711 40.707 28.2422 41.5273 28.2422ZM41.5273 29.4609C40.9805 29.4609 40.4883 29.5625 40.0508 29.7656C39.6133 29.9688 39.2383 30.2539 38.9258 30.6211C38.6211 30.9883 38.3867 31.4414 38.2227 31.9805C38.0586 32.5117 37.9766 33.1016 37.9766 33.75C37.9766 34.3594 38.0586 34.9336 38.2227 35.4727C38.3945 36.0039 38.6328 36.4609 38.9375 36.8438C39.25 37.2188 39.625 37.5078 40.0625 37.7109C40.5 37.9141 40.9883 38.0156 41.5273 38.0156C42.0664 38.0156 42.5547 37.9141 42.9922 37.7109C43.4297 37.5078 43.8047 37.2188 44.1172 36.8438C44.4297 36.4609 44.668 36.0039 44.832 35.4727C45.0039 34.9336 45.0898 34.3594 45.0898 33.75C45.0898 33.1094 45.0039 32.5195 44.832 31.9805C44.668 31.4414 44.4297 30.9883 44.1172 30.6211C43.8125 30.2539 43.4375 29.9688 42.9922 29.7656C42.5547 29.5625 42.0664 29.4609 41.5273 29.4609ZM52.2734 37.1367C52.2734 37.332 52.3086 37.4844 52.3789 37.5938C52.457 37.7031 52.5703 37.7852 52.7188 37.8398C52.875 37.8945 53.0625 37.9297 53.2812 37.9453C53.5078 37.9531 53.7734 37.957 54.0781 37.957V39C53.8594 39 53.6445 39 53.4336 39C53.2227 39 53.0039 39 52.7773 39C52.5586 39 52.3281 39 52.0859 39C51.8438 38.9922 51.5781 38.9844 51.2891 38.9766C51.0078 38.9766 50.7461 38.9805 50.5039 38.9883C50.2617 38.9883 50.0312 38.9883 49.8125 38.9883C49.5938 38.9883 49.3828 38.9922 49.1797 39C48.9766 39 48.7695 39 48.5586 39C48.5586 38.9375 48.5586 38.8594 48.5586 38.7656C48.5586 38.6719 48.5547 38.5781 48.5469 38.4844C48.5469 38.3828 48.5469 38.2852 48.5469 38.1914C48.5469 38.0977 48.5469 38.0195 48.5469 37.957C48.9922 37.957 49.332 37.9375 49.5664 37.8984C49.8086 37.8594 49.9844 37.8008 50.0938 37.7227C50.2031 37.6445 50.2656 37.5469 50.2812 37.4297C50.3047 37.3125 50.3164 37.1719 50.3164 37.0078V25.5C50.3164 25.3594 50.2773 25.25 50.1992 25.1719C50.1289 25.0938 50.0195 25.0391 49.8711 25.0078C49.7227 24.9688 49.543 24.9453 49.332 24.9375C49.1211 24.9297 48.8789 24.9219 48.6055 24.9141V23.8594C49.2227 23.8594 49.8203 23.8555 50.3984 23.8477C50.9766 23.8398 51.6016 23.8281 52.2734 23.8125V37.1367ZM58.7188 37.1367C58.7188 37.332 58.7539 37.4844 58.8242 37.5938C58.9023 37.7031 59.0156 37.7852 59.1641 37.8398C59.3203 37.8945 59.5078 37.9297 59.7266 37.9453C59.9531 37.9531 60.2188 37.957 60.5234 37.957V39C60.3047 39 60.0898 39 59.8789 39C59.668 39 59.4492 39 59.2227 39C59.0039 39 58.7734 39 58.5312 39C58.2891 38.9922 58.0234 38.9844 57.7344 38.9766C57.4531 38.9766 57.1914 38.9805 56.9492 38.9883C56.707 38.9883 56.4766 38.9883 56.2578 38.9883C56.0391 38.9883 55.8281 38.9922 55.625 39C55.4219 39 55.2148 39 55.0039 39C55.0039 38.9375 55.0039 38.8594 55.0039 38.7656C55.0039 38.6719 55 38.5781 54.9922 38.4844C54.9922 38.3828 54.9922 38.2852 54.9922 38.1914C54.9922 38.0977 54.9922 38.0195 54.9922 37.957C55.4375 37.957 55.7773 37.9375 56.0117 37.8984C56.2539 37.8594 56.4297 37.8008 56.5391 37.7227C56.6484 37.6445 56.7109 37.5469 56.7266 37.4297C56.75 37.3125 56.7617 37.1719 56.7617 37.0078V25.5C56.7617 25.3594 56.7227 25.25 56.6445 25.1719C56.5742 25.0938 56.4648 25.0391 56.3164 25.0078C56.168 24.9688 55.9883 24.9453 55.7773 24.9375C55.5664 24.9297 55.3242 24.9219 55.0508 24.9141V23.8594C55.668 23.8594 56.2656 23.8555 56.8438 23.8477C57.4219 23.8398 58.0469 23.8281 58.7188 23.8125V37.1367ZM66.7344 34.7344H65.4102C65.4023 34.7188 65.3945 34.6484 65.3867 34.5234C65.3789 34.3984 65.3711 34.2656 65.3633 34.125C65.3555 33.9766 65.3477 33.8438 65.3398 33.7266C65.3398 33.6094 65.3398 33.543 65.3398 33.5273C65.3398 33.0977 65.3984 32.7266 65.5156 32.4141C65.6406 32.0938 65.8008 31.8125 65.9961 31.5703C66.1992 31.3281 66.4258 31.1133 66.6758 30.9258C66.9336 30.7383 67.1953 30.5586 67.4609 30.3867C67.7344 30.2148 67.9961 30.0391 68.2461 29.8594C68.5039 29.6797 68.7305 29.4805 68.9258 29.2617C69.1289 29.0352 69.2891 28.7773 69.4062 28.4883C69.5312 28.1992 69.5938 27.8594 69.5938 27.4688C69.5938 27.0625 69.5156 26.6953 69.3594 26.3672C69.2109 26.0312 68.9961 25.7461 68.7148 25.5117C68.4414 25.2695 68.1094 25.0859 67.7188 24.9609C67.3359 24.8281 66.9102 24.7617 66.4414 24.7617C65.3789 24.7617 64.6016 25.0195 64.1094 25.5352C63.625 26.0508 63.3789 26.8359 63.3711 27.8906H62.0117L62.0703 24.9375C62.6641 24.5078 63.332 24.1758 64.0742 23.9414C64.8242 23.707 65.6289 23.5898 66.4883 23.5898C67.2773 23.5898 67.9844 23.6758 68.6094 23.8477C69.2344 24.0195 69.7656 24.2656 70.2031 24.5859C70.6406 24.8984 70.9766 25.2773 71.2109 25.7227C71.4453 26.168 71.5625 26.668 71.5625 27.2227C71.5625 27.8477 71.4648 28.375 71.2695 28.8047C71.0742 29.2344 70.8242 29.6055 70.5195 29.918C70.2148 30.2305 69.8789 30.5078 69.5117 30.75C69.1445 30.9922 68.7852 31.2461 68.4336 31.5117C68.0898 31.7773 67.7773 32.0742 67.4961 32.4023C67.2148 32.7305 67.0078 33.1328 66.875 33.6094L66.7344 34.7344ZM66.125 36.9844C66.3438 36.9844 66.5312 37.0156 66.6875 37.0781C66.8516 37.1328 66.9844 37.2109 67.0859 37.3125C67.1953 37.4062 67.2734 37.5156 67.3203 37.6406C67.3672 37.7656 67.3906 37.8984 67.3906 38.0391C67.3906 38.3203 67.293 38.5703 67.0977 38.7891C66.9023 39 66.5781 39.1055 66.125 39.1055C65.6719 39.1055 65.3477 39.0039 65.1523 38.8008C64.9648 38.5898 64.8711 38.3359 64.8711 38.0391C64.8711 37.8984 64.8945 37.7656 64.9414 37.6406C64.9883 37.5156 65.0625 37.4062 65.1641 37.3125C65.2656 37.2109 65.3945 37.1328 65.5508 37.0781C65.707 37.0156 65.8984 36.9844 66.125 36.9844Z" fill="url(#paint8_linear_31_64)"/>
<path d="M48.5 22.375C48.5 22.7812 48.5117 23.0938 48.5352 23.3125C48.5664 23.5234 48.6211 23.6797 48.6992 23.7812C48.7773 23.875 48.8867 23.9297 49.0273 23.9453C49.1758 23.9531 49.3672 23.957 49.6016 23.957H50.1289V25C49.5117 25 48.8984 25.0039 48.2891 25.0117C47.6875 25.0195 47.125 25.0312 46.6016 25.0469V23.4414C46.1328 24.043 45.5742 24.4961 44.9258 24.8008C44.2852 25.0977 43.5352 25.2461 42.6758 25.2461C42.1133 25.2461 41.6055 25.1641 41.1523 25C40.6992 24.8438 40.3125 24.625 39.9922 24.3438C39.6719 24.0625 39.4219 23.7266 39.2422 23.3359C39.0703 22.9453 38.9844 22.5156 38.9844 22.0469C38.9844 21.5469 39.0859 21.0938 39.2891 20.6875C39.4922 20.2734 39.7891 19.9219 40.1797 19.6328C40.5703 19.3438 41.043 19.1211 41.5977 18.9648C42.1602 18.8008 42.8008 18.7188 43.5195 18.7188C44.0117 18.7188 44.5078 18.7578 45.0078 18.8359C45.5078 18.9062 46.0156 19.0078 46.5312 19.1406V17.4531C46.5312 16.7422 46.293 16.1992 45.8164 15.8242C45.3477 15.4492 44.625 15.2617 43.6484 15.2617C42.8281 15.2617 42.1836 15.4219 41.7148 15.7422C41.2539 16.0547 40.9453 16.543 40.7891 17.207L39.7109 17.0781L39.8633 15.0156C40.3633 14.7891 40.9453 14.6055 41.6094 14.4648C42.2812 14.3164 43.0352 14.2422 43.8711 14.2422C44.6992 14.2422 45.4062 14.3164 45.9922 14.4648C46.5781 14.6133 47.0547 14.8398 47.4219 15.1445C47.7969 15.4492 48.0703 15.8398 48.2422 16.3164C48.4141 16.7852 48.5 17.3398 48.5 17.9805V22.375ZM43.9648 19.7031C43.4961 19.7031 43.0742 19.7578 42.6992 19.8672C42.3242 19.9688 42.0039 20.1172 41.7383 20.3125C41.4805 20.5078 41.2812 20.7461 41.1406 21.0273C41 21.3086 40.9297 21.6289 40.9297 21.9883C40.9297 22.3086 40.9844 22.5938 41.0938 22.8438C41.2109 23.0859 41.3711 23.293 41.5742 23.4648C41.7852 23.6367 42.0352 23.7734 42.3242 23.875C42.6133 23.9766 42.9297 24.0234 43.2734 24.0156C43.6484 24.0234 44.0273 23.9688 44.4102 23.8516C44.8008 23.7266 45.1523 23.5547 45.4648 23.3359C45.7773 23.1094 46.0312 22.8281 46.2266 22.4922C46.4297 22.1484 46.5312 21.7383 46.5312 21.2617V20.1133C46.0625 19.9805 45.6172 19.8789 45.1953 19.8086C44.7734 19.7383 44.3633 19.7031 43.9648 19.7031ZM59.7148 16.7148H59.0117C58.8555 16.3398 58.6602 16.0859 58.4258 15.9531C58.1914 15.8125 57.8711 15.7422 57.4648 15.7422C57.082 15.7422 56.7305 15.832 56.4102 16.0117C56.0898 16.1914 55.8125 16.4492 55.5781 16.7852C55.3438 17.1133 55.1602 17.5117 55.0273 17.9805C54.9023 18.4414 54.8359 18.957 54.8281 19.5273C54.8203 19.5352 54.8164 19.6328 54.8164 19.8203C54.8164 20 54.8125 20.2266 54.8047 20.5C54.8047 20.7734 54.8047 21.0703 54.8047 21.3906C54.8047 21.7031 54.8047 22 54.8047 22.2812C54.8047 22.5625 54.8047 22.8008 54.8047 22.9961C54.8047 23.1836 54.8047 23.2852 54.8047 23.3008C54.8047 23.4648 54.8359 23.5938 54.8984 23.6875C54.9688 23.7734 55.082 23.8398 55.2383 23.8867C55.3945 23.9258 55.6016 23.9492 55.8594 23.957C56.1172 23.957 56.4336 23.957 56.8086 23.957V25C56.5586 25 56.3164 25 56.082 25C55.8555 24.9922 55.6172 24.9883 55.3672 24.9883C55.1172 24.9883 54.8516 24.9883 54.5703 24.9883C54.2969 24.9805 53.9922 24.9766 53.6562 24.9766C53.3672 24.9766 53.1055 24.9805 52.8711 24.9883C52.6367 24.9883 52.4141 24.9883 52.2031 24.9883C52 24.9883 51.8008 24.9922 51.6055 25C51.4102 25 51.207 25 50.9961 25V23.957C51.4414 23.957 51.7852 23.9492 52.0273 23.9336C52.2773 23.9102 52.4609 23.8711 52.5781 23.8164C52.6953 23.7617 52.7617 23.6836 52.7773 23.582C52.8008 23.4805 52.8125 23.3516 52.8125 23.1953V16.0938C52.8125 15.9609 52.7891 15.8594 52.7422 15.7891C52.7031 15.7109 52.6172 15.6562 52.4844 15.625C52.3594 15.5859 52.1797 15.5664 51.9453 15.5664C51.7188 15.5586 51.4219 15.5547 51.0547 15.5547V14.5117C51.1406 14.5117 51.2734 14.5156 51.4531 14.5234C51.6406 14.5234 51.8242 14.5234 52.0039 14.5234H52.6953C53.0234 14.5234 53.3516 14.5156 53.6797 14.5C54.0156 14.4844 54.3594 14.4727 54.7109 14.4648V16.5977C55.0859 15.8633 55.6055 15.2891 56.2695 14.875C56.9414 14.4531 57.7344 14.2422 58.6484 14.2422C58.9922 14.2422 59.3477 14.2656 59.7148 14.3125V16.7148ZM64.8125 11.5469V14.5117H67.625V15.5547H64.8242V21.4258C64.8242 21.8242 64.8281 22.1836 64.8359 22.5039C64.8438 22.8164 64.8789 23.0859 64.9414 23.3125C65.0117 23.5391 65.1211 23.7148 65.2695 23.8398C65.418 23.957 65.6328 24.0156 65.9141 24.0156C66.0234 24.0156 66.1328 23.9961 66.2422 23.957C66.3516 23.9102 66.4453 23.8359 66.5234 23.7344C66.6094 23.6328 66.6758 23.5039 66.7227 23.3477C66.7773 23.1836 66.8047 22.9844 66.8047 22.75L67.8711 22.6445C67.8711 23.1055 67.8047 23.5 67.6719 23.8281C67.5469 24.1562 67.375 24.4258 67.1562 24.6367C66.9453 24.8398 66.6953 24.9922 66.4062 25.0938C66.1172 25.1953 65.8125 25.2461 65.4922 25.2461C64.9453 25.2461 64.5 25.1562 64.1562 24.9766C63.8203 24.7969 63.5547 24.5508 63.3594 24.2383C63.1719 23.918 63.043 23.5273 62.9727 23.0664C62.9023 22.6055 62.8672 22.0938 62.8672 21.5312V15.5547H60.9453V14.6289C61.1406 14.6211 61.3594 14.6094 61.6016 14.5938C61.8438 14.5703 62.0742 14.5508 62.293 14.5352C62.5508 14.5117 62.8086 14.4883 63.0664 14.4648C63.0742 14.4102 63.0859 14.3125 63.1016 14.1719C63.1172 14.0234 63.1328 13.8555 63.1484 13.668C63.1641 13.4727 63.1836 13.2734 63.207 13.0703C63.2305 12.8594 63.25 12.668 63.2656 12.4961C63.2812 12.3164 63.293 12.168 63.3008 12.0508C63.3164 11.9258 63.3242 11.8594 63.3242 11.8516L64.8125 11.5469ZM70.3555 28.1875C70.5586 28.2188 70.7539 28.25 70.9414 28.2812C71.0977 28.3047 71.2578 28.3242 71.4219 28.3398C71.5859 28.3555 71.7227 28.3633 71.832 28.3633C71.9961 28.3633 72.1484 28.3281 72.2891 28.2578C72.4375 28.1875 72.582 28.0703 72.7227 27.9062C72.8711 27.75 73.0195 27.5391 73.168 27.2734C73.3242 27.0156 73.4883 26.6953 73.6602 26.3125L74.1055 25.1406C73.3945 23.6016 72.75 22.2148 72.1719 20.9805C71.9219 20.457 71.6758 19.9375 71.4336 19.4219C71.1992 18.9062 70.9844 18.4297 70.7891 17.9922C70.5938 17.5469 70.4297 17.1836 70.2969 16.9023C70.1641 16.6133 70.082 16.4375 70.0508 16.375C69.9648 16.1875 69.8867 16.043 69.8164 15.9414C69.7461 15.832 69.6641 15.75 69.5703 15.6953C69.4844 15.6328 69.3711 15.5938 69.2305 15.5781C69.0977 15.5625 68.918 15.5547 68.6914 15.5547H68.2695V14.5117C68.7148 14.5117 69.1523 14.5156 69.582 14.5234C70.0195 14.5312 70.4297 14.5352 70.8125 14.5352C71.1797 14.5352 71.5938 14.5312 72.0547 14.5234C72.5234 14.5156 73.0508 14.5117 73.6367 14.5117V15.5547H72.6055C72.3945 15.5547 72.2266 15.5938 72.1016 15.6719C71.9844 15.7422 71.9219 15.8711 71.9141 16.0586C71.9219 16.2148 71.957 16.3906 72.0195 16.5859C72.082 16.7812 72.1562 16.9844 72.2422 17.1953C72.3359 17.3984 72.4297 17.6055 72.5234 17.8164C72.625 18.0195 72.7188 18.2148 72.8047 18.4023L75.043 23.1836C75.3555 22.3945 75.668 21.6172 75.9805 20.8516C76.1133 20.5234 76.25 20.1875 76.3906 19.8438C76.5312 19.4922 76.6719 19.1445 76.8125 18.8008C76.9531 18.4492 77.0859 18.1094 77.2109 17.7812C77.3438 17.4531 77.4648 17.1562 77.5742 16.8906C77.6445 16.7188 77.6992 16.5703 77.7383 16.4453C77.7773 16.3203 77.8008 16.2031 77.8086 16.0938C77.8008 15.9766 77.7734 15.8828 77.7266 15.8125C77.6875 15.7422 77.6094 15.6875 77.4922 15.6484C77.375 15.6094 77.207 15.5859 76.9883 15.5781C76.7695 15.5625 76.4844 15.5547 76.1328 15.5547V14.5117C76.5391 14.5117 76.9297 14.5156 77.3047 14.5234C77.6875 14.5312 78.0664 14.5352 78.4414 14.5352C78.8555 14.5352 79.2812 14.5312 79.7188 14.5234C80.1562 14.5156 80.6016 14.5117 81.0547 14.5117V15.5547C80.7188 15.5547 80.4531 15.5664 80.2578 15.5898C80.0703 15.6133 79.918 15.668 79.8008 15.7539C79.6836 15.832 79.5859 15.9492 79.5078 16.1055C79.4297 16.2539 79.332 16.457 79.2148 16.7148L75.1719 26.2539C74.8906 26.918 74.625 27.4727 74.375 27.918C74.125 28.3633 73.8711 28.7188 73.6133 28.9844C73.3555 29.2578 73.082 29.4492 72.793 29.5586C72.5117 29.6758 72.1914 29.7344 71.832 29.7344C71.6602 29.7344 71.4844 29.7188 71.3047 29.6875C71.125 29.6562 70.957 29.6211 70.8008 29.582C70.6211 29.543 70.4453 29.4922 70.2734 29.4297L70.3555 28.1875ZM84.2656 22.9844C84.4844 22.9844 84.6719 23.0156 84.8281 23.0781C84.9922 23.1328 85.125 23.2109 85.2266 23.3125C85.3281 23.4062 85.4023 23.5156 85.4492 23.6406C85.4961 23.7656 85.5195 23.8984 85.5195 24.0391C85.5195 24.3203 85.4219 24.5703 85.2266 24.7891C85.0391 25 84.7188 25.1055 84.2656 25.1055C83.8125 25.1055 83.4883 25.0039 83.293 24.8008C83.0977 24.5898 83 24.3359 83 24.0391C83 23.8984 83.0234 23.7656 83.0703 23.6406C83.1172 23.5156 83.1914 23.4062 83.293 23.3125C83.3945 23.2109 83.5234 23.1328 83.6797 23.0781C83.8438 23.0156 84.0391 22.9844 84.2656 22.9844ZM85.332 9.88281C85.332 9.89844 85.332 9.98438 85.332 10.1406C85.3398 10.2891 85.3438 10.457 85.3438 10.6445C85.3438 10.832 85.3438 11.0039 85.3438 11.1602C85.3438 11.3164 85.3438 11.4023 85.3438 11.418C85.3438 11.457 85.3359 11.6172 85.3203 11.8984C85.3047 12.1719 85.2812 12.5234 85.25 12.9531C85.2266 13.375 85.1992 13.8555 85.168 14.3945C85.1367 14.9336 85.1016 15.4805 85.0625 16.0352C85.0234 16.5898 84.9844 17.1367 84.9453 17.6758C84.9141 18.2148 84.8828 18.6992 84.8516 19.1289C84.8203 19.5508 84.793 19.9023 84.7695 20.1836C84.7539 20.457 84.7422 20.6133 84.7344 20.6523H83.9023C83.8945 20.6133 83.8789 20.457 83.8555 20.1836C83.8398 19.9023 83.8164 19.5508 83.7852 19.1289C83.7539 18.6992 83.7227 18.2188 83.6914 17.6875C83.6602 17.1484 83.625 16.6016 83.5859 16.0469C83.5547 15.4844 83.5195 14.9336 83.4805 14.3945C83.4492 13.8555 83.4219 13.375 83.3984 12.9531C83.375 12.5234 83.3555 12.168 83.3398 11.8867C83.3242 11.6055 83.3164 11.4453 83.3164 11.4062C83.3164 11.3984 83.3164 11.3164 83.3164 11.1602C83.3164 11.0039 83.3164 10.832 83.3164 10.6445C83.3164 10.457 83.3164 10.2891 83.3164 10.1406C83.3242 9.98438 83.3281 9.89844 83.3281 9.88281H85.332Z" fill="url(#paint9_linear_31_64)"/>
<defs>
<linearGradient id="paint0_linear_31_64" x1="10.4142" y1="9.74561" x2="10.4142" y2="23.0057" gradientUnits="userSpaceOnUse">
<stop offset="0.755" stop-color="#E6F9AF"/>
<stop offset="1" stop-color="#889367"/>
</linearGradient>
<linearGradient id="paint1_linear_31_64" x1="3.86349" y1="21.0146" x2="3.86349" y2="23.3136" gradientUnits="userSpaceOnUse">
<stop offset="0.445" stop-color="#E6F9AF"/>
<stop offset="1" stop-color="#889367"/>
</linearGradient>
<linearGradient id="paint2_linear_31_64" x1="33.9065" y1="36.1597" x2="33.9065" y2="38.4586" gradientUnits="userSpaceOnUse">
<stop offset="0.68" stop-color="#E6F9AF"/>
<stop offset="1" stop-color="#889367"/>
</linearGradient>
<linearGradient id="paint3_linear_31_64" x1="9.92331" y1="36.9697" x2="9.92331" y2="39.2687" gradientUnits="userSpaceOnUse">
<stop offset="0.62" stop-color="#E6F9AF"/>
<stop offset="1" stop-color="#889367"/>
</linearGradient>
<linearGradient id="paint4_linear_31_64" x1="31.9852" y1="16.312" x2="31.9852" y2="18.516" gradientUnits="userSpaceOnUse">
<stop offset="0.665" stop-color="#E6F9AF"/>
<stop offset="1" stop-color="#889367"/>
</linearGradient>
<linearGradient id="paint5_linear_31_64" x1="18.2997" y1="15.4536" x2="18.2997" y2="27.1226" gradientUnits="userSpaceOnUse">
<stop offset="0.95" stop-color="#E6F9AF"/>
<stop offset="1" stop-color="#889367"/>
</linearGradient>
<linearGradient id="paint6_linear_31_64" x1="19.7206" y1="7.01172" x2="19.7206" y2="12.1356" gradientUnits="userSpaceOnUse">
<stop offset="0.665" stop-color="#E6F9AF"/>
<stop offset="1" stop-color="#889367"/>
</linearGradient>
<linearGradient id="paint7_linear_31_64" x1="34.1253" y1="13.1001" x2="34.1253" y2="18.1888" gradientUnits="userSpaceOnUse">
<stop offset="0.665" stop-color="#E6F9AF"/>
<stop offset="1" stop-color="#889367"/>
</linearGradient>
<linearGradient id="paint8_linear_31_64" x1="54" y1="18" x2="54" y2="46" gradientUnits="userSpaceOnUse">
<stop offset="0.61" stop-color="#E6F9AF"/>
<stop offset="1" stop-color="#889367"/>
</linearGradient>
<linearGradient id="paint9_linear_31_64" x1="63" y1="4" x2="63" y2="32" gradientUnits="userSpaceOnUse">
<stop offset="0.465" stop-color="#E6F9AF"/>
<stop offset="1" stop-color="#889367"/>
</linearGradient>
<clipPath id="clip0_31_64">
<rect width="42" height="51" fill="white" transform="translate(0 -6)"/>
</clipPath>
</defs>
</svg>
