<svg width="125" height="49" viewBox="0 0 100 24" fill="none" xmlns="http://www.w3.org/2000/svg">
<path d="M15 20V12.8889C15 12.6531 14.8946 12.427 14.7071 12.2603C14.5196 12.0937 14.2652 12 14 12H10C9.73478 12 9.48043 12.0937 9.29289 12.2603C9.10536 12.427 9 12.6531 9 12.8889V20" stroke="#E6F9AF" stroke-width="2" stroke-linecap="round" stroke-linejoin="round"/>
<path d="M3 9.57893C2.99993 9.30331 3.06333 9.031 3.18579 8.78098C3.30824 8.53096 3.4868 8.30927 3.709 8.3135L10.709 2.4481C11.07 2.15907 11.5274 2.00049 12 2.00049C12.4726 2.00049 12.93 2.15907 13.291 2.4481L20.291 8.13135C20.5132 8.30927 20.6918 8.53096 20.8142 8.78098C20.9367 9.031 21.0001 9.30331 21 9.57893V18.1052C21 18.6077 20.7893 19.0897 20.4142 19.445C20.0391 19.8003 19.5304 20 19 20H5C4.46957 20 3.96086 19.8003 3.58579 19.445C3.21071 19.0897 3 18.6077 3 18.1052V9.57893Z" stroke="#E6F9AF" stroke-width="2" stroke-linecap="round" stroke-linejoin="round"/>1
<path d="M34.1855 12.7915C34.0398 12.7915 33.8328 12.78 33.5645 12.757V15.425L34.68 15.655C34.703 15.8007 34.6838 15.9348 34.6225 16.0575C33.9325 16.0192 33.3882 16 32.9895 16C32.6522 16 32.127 16.0192 31.414 16.0575C31.391 15.9118 31.3987 15.7777 31.437 15.655C31.8587 15.6013 32.1653 15.5247 32.357 15.425V8.525L31.4715 8.295C31.4485 8.14933 31.4677 8.01517 31.529 7.8925C32.219 7.93083 32.6867 7.95 32.932 7.95C33.185 7.95 33.4802 7.93467 33.8175 7.904C34.1548 7.86567 34.3772 7.8465 34.4845 7.8465C35.4352 7.8465 36.1788 8.05733 36.7155 8.479C37.2598 8.90067 37.532 9.48333 37.532 10.227C37.532 10.6793 37.4362 11.0742 37.2445 11.4115C37.0528 11.7488 36.7922 12.0172 36.4625 12.2165C36.1405 12.4158 35.7878 12.5615 35.4045 12.6535C35.0212 12.7455 34.6148 12.7915 34.1855 12.7915ZM34.404 8.364C34.1357 8.364 33.8558 8.3985 33.5645 8.4675V12.1935C33.8098 12.2395 34.0475 12.2625 34.2775 12.2625C34.8985 12.2625 35.3892 12.0977 35.7495 11.768C36.1175 11.4307 36.3015 10.94 36.3015 10.296C36.3015 9.71333 36.1213 9.24567 35.761 8.893C35.4007 8.54033 34.9483 8.364 34.404 8.364ZM39.2782 14.62C39.2782 14.9267 39.3587 15.1605 39.5197 15.3215C39.6884 15.4825 39.9145 15.563 40.1982 15.563C40.4129 15.563 40.639 15.4978 40.8767 15.3675C41.122 15.2372 41.306 15.0838 41.4287 14.9075V13.355C40.639 13.355 40.0832 13.4508 39.7612 13.6425C39.4392 13.8265 39.2782 14.1523 39.2782 14.62ZM42.5557 12.3545V15.4365C42.6707 15.4978 42.939 15.5745 43.3607 15.6665C43.3837 15.8122 43.3645 15.9463 43.3032 16.069C43.0195 16.1227 42.6975 16.1495 42.3372 16.1495C42.0842 16.1495 41.8657 16.1265 41.6817 16.0805L41.5207 15.4825H41.4747C41.0147 15.9578 40.4435 16.1955 39.7612 16.1955C39.2705 16.1955 38.8757 16.069 38.5767 15.816C38.2777 15.5553 38.1282 15.195 38.1282 14.735C38.1359 13.47 39.236 12.8567 41.4287 12.895L41.4402 11.883C41.4479 10.9937 41.1105 10.5452 40.4282 10.5375C40.0219 10.5375 39.6615 10.595 39.3472 10.71L39.1977 11.929C39.0444 11.9827 38.8757 11.998 38.6917 11.975C38.5307 11.3923 38.454 10.894 38.4617 10.48C39.098 10.1733 39.857 10.02 40.7387 10.02C41.398 10.0123 41.8657 10.181 42.1417 10.526C42.4177 10.871 42.5557 11.4805 42.5557 12.3545ZM40.0487 9.2955L40.9687 7.2945C41.375 7.3635 41.6817 7.51683 41.8887 7.7545C41.2907 8.5825 40.8154 9.16133 40.4627 9.491C40.2864 9.46033 40.1484 9.39517 40.0487 9.2955ZM47.7778 12.1475C47.7778 11.6798 47.6513 11.3118 47.3983 11.0435C47.1529 10.7675 46.8309 10.6295 46.4323 10.6295C46.0336 10.6295 45.7078 10.7675 45.4548 11.0435C45.2094 11.3118 45.0868 11.6798 45.0868 12.1475C45.0868 12.5845 45.2133 12.9448 45.4663 13.2285C45.7193 13.5045 46.0413 13.6425 46.4323 13.6425C46.8233 13.6425 47.1453 13.5045 47.3983 13.2285C47.6513 12.9448 47.7778 12.5845 47.7778 12.1475ZM46.4323 14.0795C46.1256 14.0795 45.8343 14.0373 45.5583 13.953C45.4203 14.1523 45.3513 14.3018 45.3513 14.4015C45.3513 14.4858 45.3781 14.5587 45.4318 14.62C45.4854 14.6813 45.6273 14.7465 45.8573 14.8155C46.0949 14.8768 46.4706 14.9382 46.9843 14.9995C47.8123 15.0838 48.4064 15.241 48.7668 15.471C49.1348 15.6933 49.3188 16.0805 49.3188 16.6325C49.3188 17.0772 49.1693 17.449 48.8703 17.748C48.5713 18.0547 48.2033 18.2732 47.7663 18.4035C47.3293 18.5338 46.8846 18.599 46.4323 18.599C45.6043 18.599 44.9833 18.4533 44.5693 18.162C44.1553 17.8783 43.9483 17.518 43.9483 17.081C43.9483 16.391 44.3086 15.8965 45.0293 15.5975C44.7763 15.3752 44.6498 15.1222 44.6498 14.8385C44.6498 14.4398 44.8069 14.091 45.1213 13.792C44.4006 13.4393 44.0403 12.8988 44.0403 12.1705C44.0479 11.5035 44.2894 11.0052 44.7648 10.6755C45.2478 10.3458 45.8036 10.1848 46.4323 10.1925C46.8616 10.1925 47.2449 10.2615 47.5823 10.3995L49.1118 9.4565C49.1961 9.51017 49.2766 9.63667 49.3533 9.836C49.4299 10.0353 49.4568 10.1887 49.4338 10.296C48.9278 10.4647 48.4409 10.5643 47.9733 10.595C48.5406 10.94 48.8243 11.4652 48.8243 12.1705C48.8243 12.5998 48.6901 12.964 48.4218 13.263C48.1611 13.562 47.8506 13.7728 47.4903 13.8955C47.1299 14.0182 46.7773 14.0795 46.4323 14.0795ZM46.6048 15.9195C46.5434 15.9118 46.4399 15.9003 46.2943 15.885C46.1486 15.862 45.9991 15.839 45.8458 15.816C45.7001 15.793 45.5659 15.7662 45.4433 15.7355C45.2439 15.9042 45.0983 16.0728 45.0063 16.2415C44.9219 16.4178 44.8798 16.644 44.8798 16.92C44.8798 17.265 45.0254 17.5563 45.3168 17.794C45.6081 18.0393 45.9991 18.162 46.4898 18.162C47.0188 18.162 47.4481 18.0355 47.7778 17.7825C48.1151 17.5295 48.2838 17.2458 48.2838 16.9315C48.2838 16.6402 48.1343 16.414 47.8353 16.253C47.5439 16.0997 47.1338 15.9885 46.6048 15.9195ZM50.2671 8.3065C50.2671 8.16083 50.3552 8.01133 50.5316 7.858C50.7079 7.70467 50.8919 7.628 51.0836 7.628C51.2752 7.628 51.4401 7.71617 51.5781 7.8925C51.7161 8.06117 51.7851 8.23367 51.7851 8.41C51.7851 8.56333 51.6969 8.71667 51.5206 8.87C51.3519 9.01567 51.1679 9.0885 50.9686 9.0885C50.7922 9.0885 50.6312 9.00417 50.4856 8.8355C50.3399 8.65917 50.2671 8.48283 50.2671 8.3065ZM51.8541 10.2615V15.425L52.6246 15.655C52.6476 15.8007 52.6284 15.9348 52.5671 16.0575C51.8771 16.0192 51.4477 16 51.2791 16C51.0491 16 50.5814 16.0192 49.8761 16.0575C49.8531 15.9118 49.8607 15.7777 49.8991 15.655C50.3284 15.5553 50.5967 15.4787 50.7041 15.425V10.94L49.7496 10.848C49.7266 10.6947 49.7457 10.5605 49.8071 10.4455C50.4434 10.3535 50.9801 10.25 51.4171 10.135C51.5474 10.1427 51.6931 10.1848 51.8541 10.2615ZM55.086 10.2385L55.0515 11.0205L55.063 11.032C55.707 10.4033 56.4277 10.0813 57.225 10.066C57.731 10.066 58.1259 10.2117 58.4095 10.503C58.6932 10.7867 58.835 11.1968 58.835 11.7335L58.8465 15.425L59.6515 15.655C59.6745 15.8007 59.6554 15.9348 59.594 16.0575C58.9807 16.0192 58.5399 16 58.2715 16C57.9955 16 57.5432 16.0192 56.9145 16.0575C56.8915 15.9118 56.8992 15.7777 56.9375 15.655C57.1752 15.609 57.4282 15.5323 57.6965 15.425V12.251C57.6965 11.745 57.616 11.3885 57.455 11.1815C57.3017 10.9745 57.0449 10.871 56.6845 10.871C56.0635 10.871 55.5499 11.101 55.1435 11.561V15.425L55.914 15.655C55.937 15.8007 55.9179 15.9348 55.8565 16.0575C55.2432 16.0192 54.8139 16 54.5685 16C54.3385 16 53.8709 16.0192 53.1655 16.0575C53.1425 15.9118 53.1502 15.7777 53.1885 15.655C53.5565 15.563 53.8249 15.4863 53.9935 15.425V10.94L53.039 10.848C53.016 10.6947 53.0352 10.5605 53.0965 10.4455C53.6869 10.3458 54.2197 10.2423 54.695 10.135C54.8254 10.1427 54.9557 10.1772 55.086 10.2385ZM61.2562 14.62C61.2562 14.9267 61.3367 15.1605 61.4977 15.3215C61.6664 15.4825 61.8926 15.563 62.1762 15.563C62.3909 15.563 62.6171 15.4978 62.8547 15.3675C63.1001 15.2372 63.2841 15.0838 63.4067 14.9075V13.355C62.6171 13.355 62.0612 13.4508 61.7392 13.6425C61.4172 13.8265 61.2562 14.1523 61.2562 14.62ZM64.5337 12.3545V15.4365C64.6487 15.4978 64.9171 15.5745 65.3387 15.6665C65.3617 15.8122 65.3426 15.9463 65.2812 16.069C64.9976 16.1227 64.6756 16.1495 64.3152 16.1495C64.0622 16.1495 63.8437 16.1265 63.6597 16.0805L63.4987 15.4825H63.4527C62.9927 15.9578 62.4216 16.1955 61.7392 16.1955C61.2486 16.1955 60.8537 16.069 60.5547 15.816C60.2557 15.5553 60.1062 15.195 60.1062 14.735C60.1139 13.47 61.2141 12.8567 63.4067 12.895L63.4182 11.883C63.4259 10.9937 63.0886 10.5452 62.4062 10.5375C61.9999 10.5375 61.6396 10.595 61.3252 10.71L61.1757 11.929C61.0224 11.9827 60.8537 11.998 60.6697 11.975C60.5087 11.3923 60.4321 10.894 60.4397 10.48C61.0761 10.1733 61.8351 10.02 62.7167 10.02C63.3761 10.0123 63.8437 10.181 64.1197 10.526C64.3957 10.871 64.5337 11.4805 64.5337 12.3545ZM68.9658 8.3065C68.9658 8.16083 69.054 8.01133 69.2303 7.858C69.4066 7.70467 69.5906 7.628 69.7823 7.628C69.974 7.628 70.1388 7.71617 70.2768 7.8925C70.4148 8.06117 70.4838 8.23367 70.4838 8.41C70.4838 8.56333 70.3956 8.71667 70.2193 8.87C70.0506 9.01567 69.8666 9.0885 69.6673 9.0885C69.491 9.0885 69.33 9.00417 69.1843 8.8355C69.0386 8.65917 68.9658 8.48283 68.9658 8.3065ZM70.5528 10.2615V15.425L71.3233 15.655C71.3463 15.8007 71.3271 15.9348 71.2658 16.0575C70.5758 16.0192 70.1465 16 69.9778 16C69.7478 16 69.2801 16.0192 68.5748 16.0575C68.5518 15.9118 68.5595 15.7777 68.5978 15.655C69.0271 15.5553 69.2955 15.4787 69.4028 15.425V10.94L68.4483 10.848C68.4253 10.6947 68.4445 10.5605 68.5058 10.4455C69.1421 10.3535 69.6788 10.25 70.1158 10.135C70.2461 10.1427 70.3918 10.1848 70.5528 10.2615ZM73.7848 10.2385L73.7503 11.0205L73.7618 11.032C74.4058 10.4033 75.1264 10.0813 75.9238 10.066C76.4298 10.066 76.8246 10.2117 77.1083 10.503C77.3919 10.7867 77.5338 11.1968 77.5338 11.7335L77.5453 15.425L78.3503 15.655C78.3733 15.8007 78.3541 15.9348 78.2928 16.0575C77.6794 16.0192 77.2386 16 76.9703 16C76.6943 16 76.2419 16.0192 75.6133 16.0575C75.5903 15.9118 75.5979 15.7777 75.6363 15.655C75.8739 15.609 76.1269 15.5323 76.3953 15.425V12.251C76.3953 11.745 76.3148 11.3885 76.1538 11.1815C76.0004 10.9745 75.7436 10.871 75.3833 10.871C74.7623 10.871 74.2486 11.101 73.8423 11.561V15.425L74.6128 15.655C74.6358 15.8007 74.6166 15.9348 74.5553 16.0575C73.9419 16.0192 73.5126 16 73.2673 16C73.0373 16 72.5696 16.0192 71.8643 16.0575C71.8413 15.9118 71.8489 15.7777 71.8873 15.655C72.2553 15.563 72.5236 15.4863 72.6923 15.425V10.94L71.7378 10.848C71.7148 10.6947 71.7339 10.5605 71.7953 10.4455C72.3856 10.3458 72.9184 10.2423 73.3938 10.135C73.5241 10.1427 73.6544 10.1772 73.7848 10.2385ZM79.2305 8.3065C79.2305 8.16083 79.3186 8.01133 79.495 7.858C79.6713 7.70467 79.8553 7.628 80.047 7.628C80.2386 7.628 80.4035 7.71617 80.5415 7.8925C80.6795 8.06117 80.7485 8.23367 80.7485 8.41C80.7485 8.56333 80.6603 8.71667 80.484 8.87C80.3153 9.01567 80.1313 9.0885 79.932 9.0885C79.7556 9.0885 79.5946 9.00417 79.449 8.8355C79.3033 8.65917 79.2305 8.48283 79.2305 8.3065ZM80.8175 10.2615V15.425L81.588 15.655C81.611 15.8007 81.5918 15.9348 81.5305 16.0575C80.8405 16.0192 80.4111 16 80.2425 16C80.0125 16 79.5448 16.0192 78.8395 16.0575C78.8165 15.9118 78.8241 15.7777 78.8625 15.655C79.2918 15.5553 79.5601 15.4787 79.6675 15.425V10.94L78.713 10.848C78.69 10.6947 78.7091 10.5605 78.7705 10.4455C79.4068 10.3535 79.9435 10.25 80.3805 10.135C80.5108 10.1427 80.6565 10.1848 80.8175 10.2615ZM86.2804 11.929L86.1309 10.71C85.8932 10.6027 85.6057 10.549 85.2684 10.549C84.9694 10.549 84.7049 10.6103 84.4749 10.733C84.2526 10.8557 84.0647 11.032 83.9114 11.262C83.7581 11.4843 83.6431 11.7527 83.5664 12.067C83.4897 12.3813 83.4514 12.734 83.4514 13.125C83.4514 13.93 83.6086 14.5395 83.9229 14.9535C84.2449 15.3675 84.6704 15.5745 85.1994 15.5745C85.6977 15.5745 86.2267 15.3943 86.7864 15.034C86.8861 15.0877 86.9551 15.1873 86.9934 15.333C86.4261 15.908 85.7629 16.1955 85.0039 16.1955C84.6359 16.1955 84.2832 16.1265 83.9459 15.9885C83.6086 15.8428 83.3134 15.6358 83.0604 15.3675C82.8074 15.0992 82.6042 14.7772 82.4509 14.4015C82.3052 14.0258 82.2286 13.6003 82.2209 13.125C82.2209 12.642 82.2976 12.2088 82.4509 11.8255C82.6119 11.4422 82.8266 11.1202 83.0949 10.8595C83.3632 10.5912 83.6814 10.388 84.0494 10.25C84.4174 10.112 84.8122 10.043 85.2339 10.043C85.8626 10.043 86.4567 10.1657 87.0164 10.411C87.0164 10.9707 86.9397 11.492 86.7864 11.975C86.7557 11.9827 86.6944 11.9865 86.6024 11.9865C86.4797 11.9865 86.3724 11.9673 86.2804 11.929ZM88.1362 8.3065C88.1362 8.16083 88.2244 8.01133 88.4007 7.858C88.5771 7.70467 88.7611 7.628 88.9527 7.628C89.1444 7.628 89.3092 7.71617 89.4472 7.8925C89.5852 8.06117 89.6542 8.23367 89.6542 8.41C89.6542 8.56333 89.5661 8.71667 89.3897 8.87C89.2211 9.01567 89.0371 9.0885 88.8377 9.0885C88.6614 9.0885 88.5004 9.00417 88.3547 8.8355C88.2091 8.65917 88.1362 8.48283 88.1362 8.3065ZM89.7232 10.2615V15.425L90.4937 15.655C90.5167 15.8007 90.4976 15.9348 90.4362 16.0575C89.7462 16.0192 89.3169 16 89.1482 16C88.9182 16 88.4506 16.0192 87.7452 16.0575C87.7222 15.9118 87.7299 15.7777 87.7682 15.655C88.1976 15.5553 88.4659 15.4787 88.5732 15.425V10.94L87.6187 10.848C87.5957 10.6947 87.6149 10.5605 87.6762 10.4455C88.3126 10.3535 88.8492 10.25 89.2862 10.135C89.4166 10.1427 89.5622 10.1848 89.7232 10.2615ZM92.1962 14.62C92.1962 14.9267 92.2767 15.1605 92.4377 15.3215C92.6063 15.4825 92.8325 15.563 93.1162 15.563C93.3308 15.563 93.557 15.4978 93.7947 15.3675C94.04 15.2372 94.224 15.0838 94.3467 14.9075V13.355C93.557 13.355 93.0012 13.4508 92.6792 13.6425C92.3572 13.8265 92.1962 14.1523 92.1962 14.62ZM95.4737 12.3545V15.4365C95.5887 15.4978 95.857 15.5745 96.2787 15.6665C96.3017 15.8122 96.2825 15.9463 96.2212 16.069C95.9375 16.1227 95.6155 16.1495 95.2552 16.1495C95.0022 16.1495 94.7837 16.1265 94.5997 16.0805L94.4387 15.4825H94.3927C93.9327 15.9578 93.3615 16.1955 92.6792 16.1955C92.1885 16.1955 91.7937 16.069 91.4947 15.816C91.1957 15.5553 91.0462 15.195 91.0462 14.735C91.0538 13.47 92.154 12.8567 94.3467 12.895L94.3582 11.883C94.3658 10.9937 94.0285 10.5452 93.3462 10.5375C92.9398 10.5375 92.5795 10.595 92.2652 10.71L92.1157 11.929C91.9623 11.9827 91.7937 11.998 91.6097 11.975C91.4487 11.3923 91.372 10.894 91.3797 10.48C92.016 10.1733 92.775 10.02 93.6567 10.02C94.316 10.0123 94.7837 10.181 95.0597 10.526C95.3357 10.871 95.4737 11.4805 95.4737 12.3545ZM98.5913 7.4325V15.425L99.4768 15.655C99.4998 15.8007 99.4806 15.9348 99.4193 16.0575C98.7293 16.0192 98.2616 16 98.0163 16C97.7939 16 97.3263 16.0192 96.6133 16.0575C96.5903 15.9118 96.5979 15.7777 96.6363 15.655C97.0656 15.5477 97.3339 15.471 97.4413 15.425V8.111L96.4868 8.019C96.4638 7.86567 96.4829 7.7315 96.5443 7.6165C97.1806 7.5245 97.7173 7.421 98.1543 7.306C98.2846 7.31367 98.4303 7.35583 98.5913 7.4325Z" fill="#E6F9AF"/>
</svg>
