<svg width="77" height="27" viewBox="0 0 77 27" fill="none" xmlns="http://www.w3.org/2000/svg">
<g clip-path="url(#clip0_31_110)">
<path d="M21.375 3.375H5.625C4.38236 3.375 3.375 4.38236 3.375 5.625V21.375C3.375 22.6176 4.38236 23.625 5.625 23.625H21.375C22.6176 23.625 23.625 22.6176 23.625 21.375V5.625C23.625 4.38236 22.6176 3.375 21.375 3.375Z" stroke="#E6F9AF" stroke-width="2" stroke-linecap="round" stroke-linejoin="round"/>
<path d="M13.3032 18.2363C13.4946 18.2363 13.6587 18.2637 13.7954 18.3184C13.939 18.3662 14.0552 18.4346 14.144 18.5234C14.2329 18.6055 14.2979 18.7012 14.3389 18.8105C14.3799 18.9199 14.4004 19.0361 14.4004 19.1592C14.4004 19.4053 14.3149 19.624 14.144 19.8154C13.98 20 13.6997 20.0923 13.3032 20.0923C12.9067 20.0923 12.623 20.0034 12.4521 19.8257C12.2812 19.6411 12.1958 19.4189 12.1958 19.1592C12.1958 19.0361 12.2163 18.9199 12.2573 18.8105C12.2983 18.7012 12.3633 18.6055 12.4521 18.5234C12.541 18.4346 12.6538 18.3662 12.7905 18.3184C12.9341 18.2637 13.105 18.2363 13.3032 18.2363ZM14.2363 6.77246C14.2363 6.78613 14.2363 6.86133 14.2363 6.99805C14.2432 7.12793 14.2466 7.2749 14.2466 7.43896C14.2466 7.60303 14.2466 7.75342 14.2466 7.89014C14.2466 8.02686 14.2466 8.10205 14.2466 8.11572C14.2466 8.1499 14.2397 8.29004 14.2261 8.53613C14.2124 8.77539 14.1919 9.08301 14.1646 9.45898C14.144 9.82812 14.1201 10.2485 14.0928 10.7202C14.0654 11.1919 14.0347 11.6704 14.0005 12.1558C13.9663 12.6411 13.9321 13.1196 13.8979 13.5913C13.8706 14.063 13.8433 14.4868 13.8159 14.8628C13.7886 15.2319 13.7646 15.5396 13.7441 15.7856C13.7305 16.0249 13.7202 16.1616 13.7134 16.1958H12.9854C12.9785 16.1616 12.9648 16.0249 12.9443 15.7856C12.9307 15.5396 12.9102 15.2319 12.8828 14.8628C12.8555 14.4868 12.8281 14.0664 12.8008 13.6016C12.7734 13.1299 12.7427 12.6514 12.7085 12.166C12.6812 11.6738 12.6504 11.1919 12.6162 10.7202C12.5889 10.2485 12.5649 9.82812 12.5444 9.45898C12.5239 9.08301 12.5068 8.77197 12.4932 8.52588C12.4795 8.27979 12.4727 8.13965 12.4727 8.10547C12.4727 8.09863 12.4727 8.02686 12.4727 7.89014C12.4727 7.75342 12.4727 7.60303 12.4727 7.43896C12.4727 7.2749 12.4727 7.12793 12.4727 6.99805C12.4795 6.86133 12.4829 6.78613 12.4829 6.77246H14.2363Z" fill="#E6F9AF"/>
<path d="M8.77881 12.2363C8.97021 12.2363 9.13428 12.2637 9.271 12.3184C9.41455 12.3662 9.53076 12.4346 9.61963 12.5234C9.71533 12.6055 9.78369 12.7012 9.82471 12.8105C9.86572 12.9199 9.88623 13.0361 9.88623 13.1592C9.88623 13.4053 9.80078 13.624 9.62988 13.8154C9.45898 14 9.17529 14.0923 8.77881 14.0923C8.38232 14.0923 8.09863 14.0034 7.92773 13.8257C7.76367 13.6411 7.68164 13.4189 7.68164 13.1592C7.68164 13.0361 7.70215 12.9199 7.74316 12.8105C7.78418 12.7012 7.84912 12.6055 7.93799 12.5234C8.02686 12.4346 8.13965 12.3662 8.27637 12.3184C8.41309 12.2637 8.58057 12.2363 8.77881 12.2363ZM17.5767 12.2363C17.7681 12.2363 17.9321 12.2637 18.0688 12.3184C18.2124 12.3662 18.3286 12.4346 18.4175 12.5234C18.5132 12.6055 18.5815 12.7012 18.6226 12.8105C18.6636 12.9199 18.6841 13.0361 18.6841 13.1592C18.6841 13.4053 18.5986 13.624 18.4277 13.8154C18.2568 14 17.9731 14.0923 17.5767 14.0923C17.1802 14.0923 16.8965 14.0034 16.7256 13.8257C16.5615 13.6411 16.4795 13.4189 16.4795 13.1592C16.4795 13.0361 16.5 12.9199 16.541 12.8105C16.582 12.7012 16.647 12.6055 16.7358 12.5234C16.8247 12.4346 16.9375 12.3662 17.0742 12.3184C17.2109 12.2637 17.3784 12.2363 17.5767 12.2363Z" fill="#E6F9AF"/>
</g>
<path d="M40.3462 17.4214C40.4487 17.8726 40.5444 18.2622 40.6333 18.5903C40.7222 18.9185 40.8179 19.1885 40.9204 19.4004C41.0229 19.6055 41.1392 19.7593 41.269 19.8618C41.3989 19.9644 41.5596 20.0156 41.751 20.0156C41.8535 20.0156 41.9561 20.0054 42.0586 19.9849C42.1611 19.9575 42.2534 19.9097 42.3354 19.8413C42.4175 19.7661 42.4824 19.6636 42.5303 19.5337C42.585 19.4038 42.6123 19.2363 42.6123 19.0312L43.6479 18.939C43.6479 19.6499 43.4531 20.2139 43.0635 20.6309C42.6738 21.041 42.1235 21.2461 41.4126 21.2461C40.9136 21.2461 40.5034 21.1436 40.1821 20.9385C39.8608 20.7334 39.5908 20.4463 39.3721 20.0771C39.1533 19.708 38.9619 19.2671 38.7979 18.7544C38.6406 18.2417 38.4766 17.6743 38.3057 17.0522C38.1826 16.6079 38.0186 16.2114 37.8135 15.8628C37.6084 15.5142 37.4102 15.1997 37.2188 14.9194C37.0137 14.8442 36.7744 14.7896 36.501 14.7554C36.2275 14.7212 35.9165 14.7041 35.5679 14.7041H34.2144V19.4517C34.2144 19.5884 34.2349 19.6943 34.2759 19.7695C34.3169 19.8379 34.3853 19.8892 34.481 19.9233C34.5835 19.9507 34.7168 19.9678 34.8809 19.9746C35.0518 19.9814 35.2603 19.9849 35.5063 19.9849H36.0396V21C35.8345 21 35.6328 21 35.4346 21C35.2363 21 35.0312 21 34.8193 21C34.6143 21 34.3921 21 34.1528 21C33.9204 20.9932 33.6641 20.9863 33.3838 20.9795C33.083 20.9795 32.8027 20.9829 32.543 20.9897C32.2832 20.9897 32.0371 20.9897 31.8047 20.9897C31.5723 20.9897 31.3467 20.9932 31.1279 21C30.9092 21 30.6904 21 30.4717 21V19.9849H30.9844C31.3262 19.9849 31.5894 19.9712 31.7739 19.9438C31.9585 19.9165 32.0918 19.8755 32.1738 19.8208C32.2627 19.7661 32.314 19.6978 32.3276 19.6157C32.3413 19.5337 32.3481 19.438 32.3481 19.3286V9.44385C32.3481 9.28662 32.3345 9.16357 32.3071 9.07471C32.2798 8.98584 32.2046 8.9209 32.0815 8.87988C31.9585 8.83887 31.7705 8.81494 31.5176 8.80811C31.2715 8.79443 30.9229 8.7876 30.4717 8.7876V7.77246H36.1216C36.8667 7.77246 37.5605 7.82031 38.2031 7.91602C38.8525 8.00488 39.4131 8.17578 39.8848 8.42871C40.3564 8.6748 40.7256 9.02002 40.9922 9.46436C41.2656 9.90869 41.4023 10.4795 41.4023 11.1768C41.4023 11.9971 41.1494 12.6807 40.6436 13.2275C40.1445 13.7744 39.4302 14.147 38.5005 14.3452C38.7056 14.5024 38.897 14.6699 39.0747 14.8477C39.2524 15.0186 39.4199 15.2236 39.5771 15.4629C39.7344 15.6953 39.8745 15.9722 39.9976 16.2935C40.1274 16.6079 40.2437 16.9839 40.3462 17.4214ZM34.2144 13.7095H36.4497C37.0034 13.7095 37.4751 13.665 37.8647 13.5762C38.2612 13.4873 38.5825 13.3472 38.8286 13.1558C39.0747 12.9644 39.2559 12.7148 39.3721 12.4072C39.4883 12.0996 39.5464 11.7271 39.5464 11.2896C39.5464 10.7905 39.4644 10.3838 39.3003 10.0693C39.1362 9.75488 38.8936 9.51221 38.5723 9.34131C38.2578 9.16357 37.8682 9.04395 37.4033 8.98242C36.9385 8.91406 36.4053 8.87988 35.8037 8.87988H34.2144V13.7095ZM49.3286 11.5869C50.0464 11.5869 50.7061 11.6997 51.3076 11.9253C51.9092 12.1509 52.4253 12.4756 52.856 12.8994C53.2935 13.3232 53.6318 13.8359 53.8711 14.4375C54.1104 15.0391 54.23 15.6987 54.23 16.4165C54.23 17.1069 54.1104 17.7529 53.8711 18.3545C53.6318 18.9492 53.2969 19.4585 52.8662 19.8823C52.4355 20.3062 51.9194 20.6343 51.3179 20.8667C50.7163 21.0991 50.0532 21.2153 49.3286 21.2153C48.604 21.2153 47.9409 21.1025 47.3394 20.877C46.7446 20.6445 46.2319 20.3164 45.8013 19.8926C45.3706 19.4619 45.0356 18.9492 44.7964 18.3545C44.564 17.7529 44.4478 17.1069 44.4478 16.4165C44.4478 15.6987 44.5674 15.0425 44.8066 14.4478C45.0459 13.8462 45.3809 13.3335 45.8115 12.9097C46.2422 12.479 46.7549 12.1509 47.3496 11.9253C47.9512 11.6997 48.6108 11.5869 49.3286 11.5869ZM49.3286 12.6533C48.8501 12.6533 48.4194 12.7422 48.0366 12.9199C47.6538 13.0977 47.3257 13.3472 47.0522 13.6685C46.7856 13.9897 46.5806 14.3862 46.437 14.8579C46.2935 15.3228 46.2217 15.8389 46.2217 16.4062C46.2217 16.9395 46.2935 17.4419 46.437 17.9136C46.5874 18.3784 46.7959 18.7783 47.0625 19.1133C47.3359 19.4414 47.6641 19.6943 48.0469 19.8721C48.4297 20.0498 48.8569 20.1387 49.3286 20.1387C49.8003 20.1387 50.2275 20.0498 50.6104 19.8721C50.9932 19.6943 51.3213 19.4414 51.5947 19.1133C51.8682 18.7783 52.0767 18.3784 52.2202 17.9136C52.3706 17.4419 52.4458 16.9395 52.4458 16.4062C52.4458 15.8457 52.3706 15.3296 52.2202 14.8579C52.0767 14.3862 51.8682 13.9897 51.5947 13.6685C51.3281 13.3472 51 13.0977 50.6104 12.9199C50.2275 12.7422 49.8003 12.6533 49.3286 12.6533ZM58.7314 19.3696C58.7314 19.5405 58.7622 19.6738 58.8237 19.7695C58.8921 19.8652 58.9912 19.937 59.1211 19.9849C59.2578 20.0327 59.4219 20.0635 59.6133 20.0771C59.8115 20.084 60.0439 20.0874 60.3105 20.0874V21C60.1191 21 59.9312 21 59.7466 21C59.562 21 59.3706 21 59.1724 21C58.981 21 58.7793 21 58.5674 21C58.3555 20.9932 58.123 20.9863 57.8701 20.9795C57.624 20.9795 57.395 20.9829 57.1831 20.9897C56.9712 20.9897 56.7695 20.9897 56.5781 20.9897C56.3867 20.9897 56.2021 20.9932 56.0244 21C55.8467 21 55.6655 21 55.481 21C55.481 20.9453 55.481 20.877 55.481 20.7949C55.481 20.7129 55.4775 20.6309 55.4707 20.5488C55.4707 20.46 55.4707 20.3745 55.4707 20.2925C55.4707 20.2104 55.4707 20.1421 55.4707 20.0874C55.8604 20.0874 56.1577 20.0703 56.3628 20.0361C56.5747 20.002 56.7285 19.9507 56.8242 19.8823C56.9199 19.814 56.9746 19.7285 56.9883 19.626C57.0088 19.5234 57.019 19.4004 57.019 19.2568V9.1875C57.019 9.06445 56.9849 8.96875 56.9165 8.90039C56.855 8.83203 56.7593 8.78418 56.6294 8.75684C56.4995 8.72266 56.3423 8.70215 56.1577 8.69531C55.9731 8.68848 55.7612 8.68164 55.522 8.6748V7.75195C56.062 7.75195 56.585 7.74854 57.0908 7.7417C57.5967 7.73486 58.1436 7.72461 58.7314 7.71094V19.3696ZM64.3711 19.3696C64.3711 19.5405 64.4019 19.6738 64.4634 19.7695C64.5317 19.8652 64.6309 19.937 64.7607 19.9849C64.8975 20.0327 65.0615 20.0635 65.2529 20.0771C65.4512 20.084 65.6836 20.0874 65.9502 20.0874V21C65.7588 21 65.5708 21 65.3862 21C65.2017 21 65.0103 21 64.812 21C64.6206 21 64.4189 21 64.207 21C63.9951 20.9932 63.7627 20.9863 63.5098 20.9795C63.2637 20.9795 63.0347 20.9829 62.8228 20.9897C62.6108 20.9897 62.4092 20.9897 62.2178 20.9897C62.0264 20.9897 61.8418 20.9932 61.6641 21C61.4863 21 61.3052 21 61.1206 21C61.1206 20.9453 61.1206 20.877 61.1206 20.7949C61.1206 20.7129 61.1172 20.6309 61.1104 20.5488C61.1104 20.46 61.1104 20.3745 61.1104 20.2925C61.1104 20.2104 61.1104 20.1421 61.1104 20.0874C61.5 20.0874 61.7974 20.0703 62.0024 20.0361C62.2144 20.002 62.3682 19.9507 62.4639 19.8823C62.5596 19.814 62.6143 19.7285 62.6279 19.626C62.6484 19.5234 62.6587 19.4004 62.6587 19.2568V9.1875C62.6587 9.06445 62.6245 8.96875 62.5562 8.90039C62.4946 8.83203 62.3989 8.78418 62.269 8.75684C62.1392 8.72266 61.9819 8.70215 61.7974 8.69531C61.6128 8.68848 61.4009 8.68164 61.1616 8.6748V7.75195C61.7017 7.75195 62.2246 7.74854 62.7305 7.7417C63.2363 7.73486 63.7832 7.72461 64.3711 7.71094V19.3696ZM71.3848 17.2676H70.2261C70.2192 17.2539 70.2124 17.1924 70.2056 17.083C70.1987 16.9736 70.1919 16.8574 70.1851 16.7344C70.1782 16.6045 70.1714 16.4883 70.1646 16.3857C70.1646 16.2832 70.1646 16.2251 70.1646 16.2114C70.1646 15.8354 70.2158 15.5107 70.3184 15.2373C70.4277 14.957 70.5679 14.7109 70.7388 14.499C70.9165 14.2871 71.1147 14.0991 71.3335 13.9351C71.5591 13.771 71.7881 13.6138 72.0205 13.4634C72.2598 13.313 72.4888 13.1592 72.7075 13.002C72.9331 12.8447 73.1313 12.6704 73.3022 12.479C73.48 12.2808 73.6201 12.0552 73.7227 11.8022C73.832 11.5493 73.8867 11.252 73.8867 10.9102C73.8867 10.5547 73.8184 10.2334 73.6816 9.94629C73.5518 9.65234 73.3638 9.40283 73.1177 9.19775C72.8784 8.98584 72.5879 8.8252 72.2461 8.71582C71.9111 8.59961 71.5386 8.5415 71.1284 8.5415C70.1987 8.5415 69.5186 8.76709 69.0879 9.21826C68.6641 9.66943 68.4487 10.3564 68.4419 11.2793H67.2524L67.3037 8.69531C67.8232 8.31934 68.4077 8.02881 69.0571 7.82373C69.7134 7.61865 70.4175 7.51611 71.1694 7.51611C71.8599 7.51611 72.4785 7.59131 73.0254 7.7417C73.5723 7.89209 74.0371 8.10742 74.4199 8.3877C74.8027 8.66113 75.0967 8.99268 75.3018 9.38232C75.5068 9.77197 75.6094 10.2095 75.6094 10.6948C75.6094 11.2417 75.5239 11.7031 75.353 12.0791C75.1821 12.4551 74.9634 12.7798 74.6968 13.0532C74.4302 13.3267 74.1362 13.5693 73.8149 13.7812C73.4937 13.9932 73.1792 14.2153 72.8716 14.4478C72.5708 14.6802 72.2974 14.9399 72.0513 15.2271C71.8052 15.5142 71.624 15.8662 71.5078 16.2832L71.3848 17.2676ZM70.8516 19.2363C71.043 19.2363 71.207 19.2637 71.3438 19.3184C71.4873 19.3662 71.6035 19.4346 71.6924 19.5234C71.7881 19.6055 71.8564 19.7012 71.8975 19.8105C71.9385 19.9199 71.959 20.0361 71.959 20.1592C71.959 20.4053 71.8735 20.624 71.7026 20.8154C71.5317 21 71.248 21.0923 70.8516 21.0923C70.4551 21.0923 70.1714 21.0034 70.0005 20.8257C69.8364 20.6411 69.7544 20.4189 69.7544 20.1592C69.7544 20.0361 69.7749 19.9199 69.8159 19.8105C69.8569 19.7012 69.9219 19.6055 70.0107 19.5234C70.0996 19.4346 70.2124 19.3662 70.3491 19.3184C70.4858 19.2637 70.6533 19.2363 70.8516 19.2363Z" fill="#E6F9AF"/>
<defs>
<clipPath id="clip0_31_110">
<rect width="27" height="27" fill="white"/>
</clipPath>
</defs>
</svg>
